<?xml version="1.0" standalone="no"?>
<!DOCTYPE svg PUBLIC "-//W3C//DTD SVG 20010904//EN"
 "http://www.w3.org/TR/2001/REC-SVG-20010904/DTD/svg10.dtd">
<svg version="1.0" xmlns="http://www.w3.org/2000/svg"
 width="512.000000pt" height="512.000000pt" viewBox="0 0 512.000000 512.000000"
 preserveAspectRatio="xMidYMid meet">
<metadata>
Created by potrace 1.14, written by Peter Selinger 2001-2017
</metadata>
<g transform="translate(0.000000,512.000000) scale(0.100000,-0.100000)"
fill="#000000" stroke="none">
<path d="M2330 5000 c-623 -59 -1143 -317 -1387 -689 -97 -147 -149 -288 -174
-479 -15 -116 -6 -432 16 -532 40 -183 128 -397 242 -585 l60 -100 6 -183 c8
-203 24 -302 69 -410 30 -73 113 -191 134 -192 21 0 65 -42 84 -81 52 -101 78
-292 90 -664 10 -308 19 -363 76 -475 118 -233 373 -385 788 -471 194 -40 277
-45 415 -25 123 18 239 52 340 97 161 73 373 247 494 406 l47 61 0 134 c1 371
37 725 91 868 17 47 27 59 70 85 210 125 296 384 256 769 l-14 139 62 85 c125
169 197 322 243 515 23 101 26 131 26 302 -1 285 -28 399 -150 617 -253 451
-656 707 -1251 794 -128 18 -497 27 -633 14z m644 -114 c220 -35 374 -85 576
-186 400 -198 631 -468 716 -835 24 -100 27 -427 6 -515 -28 -113 -65 -218
-109 -305 -46 -91 -139 -235 -153 -235 -4 0 -11 62 -16 138 -9 127 -8 144 14
237 85 365 94 417 82 480 -31 169 -30 165 -55 165 -13 0 -35 -5 -49 -11 -25
-12 -25 -13 -10 -48 37 -88 35 -188 -11 -484 -24 -152 -25 -179 -25 -635 0
-532 -3 -555 -67 -672 -61 -111 -63 -113 -161 -127 -163 -24 -296 -112 -393
-261 -26 -40 -55 -96 -63 -125 -18 -63 -51 -97 -128 -132 -220 -101 -871 -99
-1145 3 -43 16 -49 22 -71 77 -65 164 -259 360 -397 405 -164 52 -268 170
-315 355 -33 131 -35 235 -6 461 14 111 30 262 37 335 l11 134 -61 243 c-56
222 -60 245 -47 270 15 29 60 182 54 187 -14 12 -51 25 -71 25 -22 0 -25 -7
-47 -101 -36 -159 -21 -279 71 -555 l30 -91 -25 -158 c-13 -86 -27 -159 -29
-162 -8 -8 -116 182 -157 276 -44 101 -73 188 -97 291 -26 107 -25 410 0 530
78 366 320 676 664 848 208 105 444 163 798 196 103 10 555 -3 649 -18z
m-1415 -3183 c68 -69 137 -282 195 -603 32 -177 52 -214 148 -280 119 -80 284
-133 541 -171 276 -41 490 8 726 165 114 76 146 109 155 163 16 88 90 373 111
428 13 33 26 85 29 115 8 70 49 153 87 180 33 24 89 43 89 30 0 -5 -9 -46 -20
-92 -38 -160 -70 -510 -70 -762 l0 -110 -42 -70 c-199 -338 -501 -496 -950
-496 -239 0 -461 61 -635 177 -72 47 -189 157 -253 238 l-48 61 -17 164 c-21
216 -58 493 -95 709 -17 95 -30 177 -30 182 0 22 46 6 79 -28z m1894 -130 c-3
-10 -14 -27 -24 -38 -11 -12 -31 -83 -53 -187 -59 -274 -116 -443 -153 -456
-10 -3 -13 45 -13 217 0 182 2 221 14 221 21 0 119 111 168 190 23 38 48 70
55 70 7 0 10 -7 6 -17z m-1736 -15 c11 -13 52 -71 92 -130 39 -58 78 -112 86
-118 12 -10 15 -50 15 -226 l0 -214 -35 22 c-20 13 -37 32 -40 43 -2 11 -25
113 -50 227 -25 114 -57 247 -71 295 -15 48 -29 96 -31 106 -7 24 10 21 34 -5z
m311 -275 l32 -6 0 -104 0 -105 -42 7 c-24 4 -46 9 -50 12 -5 2 -8 52 -8 110
0 96 2 105 18 98 9 -4 32 -9 50 -12z m1145 -63 c4 -33 9 -71 13 -84 5 -20 -1
-25 -47 -44 -28 -12 -56 -22 -60 -22 -5 0 -9 40 -9 89 0 102 10 121 64 121 33
0 33 0 39 -60z m-989 25 l46 -7 0 -110 0 -110 -30 6 c-16 3 -43 9 -60 12 l-30
6 0 110 c0 89 3 109 14 105 7 -3 34 -9 60 -12z m836 -94 l0 -109 -30 -6 c-16
-3 -43 -9 -60 -12 l-30 -6 0 110 0 109 53 10 c28 6 55 11 60 12 4 0 7 -48 7
-108z m-650 -41 l0 -120 -45 0 -45 0 0 120 0 120 45 0 45 0 0 -120z m340 -10
l0 -130 -60 0 -60 0 0 118 0 118 53 11 c28 5 55 11 60 11 4 1 7 -56 7 -128z
m140 10 l0 -120 -45 0 -45 0 0 120 0 120 45 0 45 0 0 -120z m-310 -20 l0 -120
-60 0 -60 0 0 120 0 120 60 0 60 0 0 -120z m639 -44 c8 -9 8 -16 2 -20 -7 -5
-7 -15 -1 -32 13 -33 13 -100 0 -124 -9 -18 -87 -70 -103 -70 -4 0 -7 47 -7
103 0 112 5 124 60 146 34 13 36 13 49 -3z m-1138 -16 c17 -10 19 -22 19 -120
0 -120 2 -117 -62 -99 l-38 10 0 109 0 110 31 0 c17 0 39 -5 50 -10z m159 -56
l30 -6 0 -119 c0 -68 -4 -119 -10 -119 -5 0 -32 5 -60 11 l-50 11 0 120 0 120
30 -6 c17 -3 44 -9 60 -12z m818 -91 l-3 -107 -30 -17 c-16 -10 -42 -21 -57
-24 l-28 -7 0 120 0 121 38 6 c20 4 42 8 47 10 34 11 36 6 33 -102z m-648 -63
l0 -120 -43 0 c-42 0 -44 2 -57 39 -9 28 -9 43 -1 59 6 11 7 22 2 24 -4 2 -3
29 3 61 l10 57 43 0 43 0 0 -120z m480 18 c0 -57 -4 -109 -8 -116 -5 -7 -25
-15 -45 -19 l-37 -6 0 122 0 121 45 0 45 0 0 -102z m-310 -38 l0 -120 -60 0
-60 0 0 120 0 120 60 0 60 0 0 -120z m170 12 c0 -71 -4 -112 -12 -120 -7 -7
-34 -12 -60 -12 l-48 0 0 120 0 120 60 0 60 0 0 -108z"/>
<path d="M3080 3047 c-125 -35 -210 -138 -242 -290 -10 -48 -9 -62 11 -123 59
-183 162 -329 267 -379 132 -63 346 -33 456 64 49 43 96 119 120 194 25 80 37
295 18 351 -26 81 -108 141 -232 171 -87 22 -340 29 -398 12z"/>
<path d="M1700 3025 c-127 -26 -206 -76 -258 -164 -25 -43 -27 -53 -25 -156 3
-232 72 -379 209 -446 59 -29 77 -33 172 -37 127 -5 211 12 285 60 161 103
268 431 189 583 -35 69 -96 117 -195 153 -49 19 -78 22 -185 21 -70 0 -156 -7
-192 -14z"/>
<path d="M2414 2266 c-91 -91 -144 -194 -169 -331 -21 -111 -16 -252 10 -307
24 -49 75 -75 115 -58 36 15 86 64 122 119 l28 45 0 303 c0 272 -2 303 -16
303 -9 0 -50 -33 -90 -74z"/>
<path d="M2620 2026 l0 -313 58 -77 c53 -71 59 -75 87 -70 54 11 83 33 104 78
24 49 40 146 24 146 -6 0 -13 37 -17 83 -8 110 -30 198 -67 271 -33 65 -104
145 -156 176 l-33 19 0 -313z"/>
</g>
</svg>
