<?xml version="1.0" standalone="no"?>
<!DOCTYPE svg PUBLIC "-//W3C//DTD SVG 20010904//EN"
 "http://www.w3.org/TR/2001/REC-SVG-20010904/DTD/svg10.dtd">
<svg version="1.0" xmlns="http://www.w3.org/2000/svg"
 width="1024.000000pt" height="768.000000pt" viewBox="0 0 1024.000000 768.000000"
 preserveAspectRatio="xMidYMid meet">
<metadata>
Created by potrace 1.14, written by Peter Selinger 2001-2017
</metadata>
<g transform="translate(0.000000,768.000000) scale(0.100000,-0.100000)"
fill="#000000" stroke="none">
<path d="M8020 6080 c-293 -46 -420 -283 -287 -536 15 -30 28 -73 31 -112 6
-69 16 -94 52 -133 24 -25 30 -54 50 -236 7 -60 51 -115 121 -149 49 -25 70
-29 138 -29 99 1 167 28 224 90 42 46 43 49 60 205 9 85 13 97 37 114 37 27
54 74 54 151 0 52 5 73 24 103 37 56 59 146 53 212 -13 143 -109 252 -267 301
-71 22 -213 31 -290 19z m242 -51 c163 -35 269 -148 269 -288 1 -60 -13 -125
-32 -151 -11 -15 -10 -13 8 131 6 53 -9 91 -33 82 -12 -4 -14 -14 -9 -40 4
-20 0 -56 -10 -89 -14 -48 -14 -69 -4 -155 15 -121 4 -174 -39 -191 -80 -31
-92 -39 -117 -82 -23 -40 -31 -46 -71 -52 -25 -3 -86 -4 -135 -2 -73 3 -93 8
-101 22 -22 40 -74 89 -114 107 -58 28 -66 52 -64 205 2 150 -4 256 -14 273
-6 9 -11 9 -22 0 -23 -19 -27 -73 -9 -136 21 -75 17 -113 -7 -68 -27 51 -40
146 -28 202 27 117 104 190 242 227 65 18 218 20 290 5z m97 -893 c-10 -97
-21 -122 -71 -159 -47 -35 -91 -47 -167 -47 -80 0 -134 22 -177 73 -27 30 -33
46 -39 107 -8 81 0 107 11 33 10 -69 19 -82 81 -110 95 -44 224 -33 299 23 27
20 35 36 49 99 9 42 18 75 20 73 2 -2 -1 -43 -6 -92z"/>
<path d="M8233 5615 c-39 -17 -53 -42 -53 -96 0 -53 30 -102 76 -124 90 -42
174 23 174 134 0 49 -24 75 -85 90 -56 14 -73 13 -112 -4z"/>
<path d="M7883 5605 c-43 -18 -57 -51 -48 -111 10 -70 57 -114 119 -114 36 0
52 6 81 31 62 55 70 136 18 185 -21 20 -36 24 -82 24 -31 -1 -71 -7 -88 -15z"/>
<path d="M8093 5442 c-18 -15 -39 -44 -48 -64 -18 -45 -20 -119 -3 -136 17
-17 67 -15 75 3 5 14 7 14 23 0 27 -25 73 -16 84 16 17 49 -2 117 -46 165 -22
24 -43 44 -47 44 -3 0 -21 -13 -38 -28z"/>
<path d="M2880 4975 c-47 -13 -107 -33 -133 -44 -27 -12 -52 -21 -57 -21 -5 0
-47 -22 -95 -50 -48 -27 -93 -50 -100 -50 -8 0 -93 -41 -190 -91 l-175 -91 7
-156 c11 -209 10 -1088 0 -1541 l-9 -363 182 93 182 94 -7 393 -7 393 53 -31
c124 -73 326 -234 394 -316 72 -87 176 -228 202 -276 15 -27 30 -48 35 -48 5
0 84 43 175 96 l165 95 67 -64 c36 -35 89 -76 116 -89 129 -65 397 -98 630
-78 202 17 201 17 364 141 l145 110 18 -108 c9 -59 20 -152 23 -206 3 -55 8
-103 11 -108 12 -21 47 -6 116 50 58 47 88 63 139 76 35 9 74 23 87 31 26 17
26 25 3 214 -13 104 -14 577 -2 584 23 15 115 -118 149 -214 21 -59 76 -287
88 -359 3 -25 23 -70 44 -103 21 -32 40 -64 42 -70 4 -10 342 174 353 192 2 4
-13 37 -35 73 -22 36 -40 76 -40 88 0 40 -89 357 -118 421 -32 70 -122 188
-177 231 -52 41 -129 77 -164 77 -17 0 -57 -13 -89 -29 -31 -15 -68 -32 -81
-36 l-23 -7 4 523 c3 288 8 532 13 542 5 13 -50 -10 -179 -75 l-187 -93 8
-115 c19 -274 2 -1556 -21 -1557 -6 0 -49 -8 -96 -17 -235 -46 -539 -24 -708
50 -66 29 -155 117 -184 181 -53 120 -21 433 44 433 10 0 53 -7 94 -16 l76
-15 164 106 c90 59 166 111 169 116 10 15 -98 41 -190 46 -121 6 -166 -10
-390 -135 -204 -114 -277 -172 -311 -246 -41 -92 -57 -301 -30 -404 7 -29 12
-51 11 -50 -1 2 -47 59 -102 128 -171 214 -357 371 -600 506 l-92 51 121 78
c124 81 269 208 317 279 55 80 66 135 65 311 -1 188 -19 290 -66 385 -33 65
-82 111 -117 109 -9 0 -54 -11 -101 -24z m-136 -272 c45 -69 60 -151 61 -338
0 -191 -9 -229 -70 -306 -61 -77 -221 -199 -261 -199 -8 0 3 737 12 792 6 37
8 38 83 62 42 13 93 24 113 25 33 1 41 -4 62 -36z"/>
<path d="M7908 4770 c-72 -12 -184 -68 -223 -112 -28 -31 -35 -46 -35 -80 0
-37 6 -47 53 -92 28 -28 86 -69 127 -91 l75 -40 -2 -175 c-2 -96 -6 -417 -9
-712 l-6 -538 -33 -20 c-90 -56 -173 -182 -161 -245 8 -41 54 -82 102 -91 59
-11 194 2 262 25 l64 22 38 -35 c98 -89 259 -83 411 14 78 51 99 112 59 177
-23 39 -79 81 -182 136 -88 47 -87 46 -136 218 -118 408 -108 754 33 1121 34
89 41 100 80 122 23 14 67 52 97 85 105 113 112 201 18 249 -40 21 -55 23
-135 19 -52 -3 -119 -14 -159 -27 l-68 -22 -27 26 c-55 53 -156 80 -243 66z
m124 -141 c23 -17 29 -27 25 -48 -9 -48 38 -101 89 -101 30 0 72 30 82 57 8
23 21 32 67 47 31 10 82 20 113 23 l56 6 -18 -29 c-32 -51 -59 -76 -133 -124
-40 -26 -70 -50 -67 -52 2 -3 -5 -27 -17 -54 -157 -361 -188 -760 -88 -1159
24 -97 88 -296 100 -311 5 -6 53 -34 106 -63 128 -68 161 -95 144 -114 -18
-23 -112 -60 -153 -61 -54 -1 -92 31 -96 80 -6 70 -64 106 -128 79 -20 -8 -35
-24 -42 -43 -12 -35 -72 -59 -171 -69 l-64 -6 19 33 c24 40 83 92 151 131 45
26 51 33 41 48 -8 13 -8 215 -1 752 5 404 12 740 14 747 3 9 -38 37 -111 79
-63 35 -124 73 -135 84 l-20 20 20 16 c70 54 166 68 217 32z"/>
<path d="M9230 4004 c-30 -8 -100 -40 -155 -71 -55 -31 -137 -76 -182 -101
-110 -61 -186 -122 -218 -176 -37 -64 -58 -194 -53 -326 6 -138 37 -209 130
-303 120 -119 259 -163 548 -173 124 -5 196 -2 290 10 l125 17 148 111 c81 62
146 116 144 122 -5 13 -14 13 -147 -9 -81 -13 -144 -16 -280 -12 -274 8 -385
41 -491 146 -95 94 -113 145 -106 306 3 84 10 135 24 170 18 48 20 50 61 53
24 2 66 -4 95 -12 l51 -15 86 54 c47 30 125 81 174 114 l90 60 -30 11 c-48 19
-156 40 -204 39 -25 0 -70 -7 -100 -15z"/>
<path d="M1287 3924 c-4 -4 -65 -11 -135 -15 -453 -25 -772 -216 -857 -513
-26 -89 -17 -217 21 -293 57 -117 184 -209 353 -255 68 -19 102 -21 316 -21
213 0 247 3 303 21 81 26 128 61 187 139 8 11 25 6 87 -25 110 -56 178 -68
292 -53 223 29 236 32 236 52 0 13 -10 20 -37 24 -106 18 -240 81 -306 143
-36 34 -70 100 -92 178 -13 45 -18 119 -22 315 l-5 256 27 21 28 22 -129 -1
c-71 -1 -158 2 -194 6 -36 4 -69 3 -73 -1z m-53 -206 c-7 -46 -13 -122 -13
-170 -1 -101 -25 -296 -47 -382 -31 -119 -81 -188 -162 -222 -33 -13 -41 -13
-98 6 -129 43 -229 129 -260 223 -26 80 -16 198 25 281 73 148 245 269 465
326 110 29 104 33 90 -62z"/>
<path d="M6800 3844 c-297 -29 -481 -91 -647 -216 -237 -179 -292 -498 -118
-686 141 -152 349 -205 721 -183 121 7 172 14 215 30 55 21 120 73 150 120
l15 24 84 -41 c136 -65 168 -68 359 -42 150 22 162 25 159 43 -2 17 -16 23
-72 34 -122 25 -264 110 -305 184 -62 110 -88 299 -77 559 6 131 8 147 28 163
11 10 18 20 14 24 -3 4 -46 2 -95 -3 -49 -5 -106 -6 -127 -2 -56 10 -149 7
-304 -8z m96 -136 c-3 -13 -11 -93 -16 -178 -30 -454 -74 -592 -207 -651 -41
-18 -44 -18 -98 1 -199 68 -296 193 -282 363 18 210 212 392 501 467 97 26
110 26 102 -2z"/>
</g>
</svg>
