<?xml version="1.0" standalone="no"?>
<!DOCTYPE svg PUBLIC "-//W3C//DTD SVG 20010904//EN"
 "http://www.w3.org/TR/2001/REC-SVG-20010904/DTD/svg10.dtd">
<svg version="1.0" xmlns="http://www.w3.org/2000/svg"
 width="1200.000000pt" height="1728.000000pt" viewBox="0 0 1200.000000 1728.000000"
 preserveAspectRatio="xMidYMid meet">
<metadata>
Created by potrace 1.14, written by Peter Selinger 2001-2017
</metadata>
<g transform="translate(0.000000,1728.000000) scale(0.100000,-0.100000)"
fill="#000000" stroke="none">
<path d="M8470 16595 c0 -64 -7 -67 -73 -33 -85 43 -61 51 -472 -155 -209
-104 -432 -213 -496 -241 -273 -123 -429 -287 -485 -511 -22 -91 -22 -285 0
-420 9 -55 41 -210 71 -345 72 -323 85 -402 92 -546 9 -180 -5 -247 -96 -486
-342 -889 -748 -1800 -1501 -3368 -687 -1430 -961 -2012 -1182 -2509 -32 -74
-90 -184 -127 -245 -151 -249 -322 -584 -551 -1086 -383 -838 -631 -1261 -953
-1627 -209 -237 -432 -425 -689 -579 -62 -37 -133 -82 -158 -99 -87 -61 -158
-95 -427 -203 -360 -144 -492 -225 -610 -373 -87 -109 -117 -177 -157 -349
-140 -613 -142 -1027 -6 -1365 65 -163 142 -267 327 -439 177 -166 243 -199
443 -221 79 -9 224 8 465 55 119 24 256 44 315 47 l106 6 46 -79 c92 -159 224
-321 502 -618 83 -89 176 -189 207 -223 55 -61 57 -63 125 -73 99 -14 177 -12
285 6 233 40 459 165 716 396 44 40 170 158 278 261 227 216 309 285 449 379
l100 67 17 73 c9 40 26 111 39 158 32 118 25 183 -27 258 l-38 56 0 135 c0 75
2 186 5 246 2 74 0 123 -9 150 -20 62 -70 108 -138 129 -20 6 -24 1 -37 -45
-25 -82 -20 -243 11 -437 37 -227 39 -416 5 -515 -13 -37 -43 -94 -67 -126
-74 -100 -221 -190 -335 -206 -109 -15 -300 -75 -545 -173 -444 -176 -569
-210 -802 -219 l-152 -6 -76 78 c-133 137 -236 312 -380 649 -76 176 -163 316
-312 501 -90 112 -292 322 -351 363 l-32 23 -11 -28 c-18 -45 -14 -152 8 -209
25 -64 63 -119 172 -249 47 -57 100 -127 118 -157 36 -58 70 -175 60 -201 -6
-15 -10 -15 -49 -1 -106 37 -256 37 -558 0 -165 -21 -251 -20 -343 3 -90 24
-135 46 -201 99 l-50 39 -2 194 c-1 126 -9 258 -22 374 -43 360 -24 545 75
737 53 101 206 244 773 718 569 475 814 698 1043 945 127 138 151 170 294 400
843 1349 1652 2863 2354 4406 110 242 193 405 542 1059 484 908 585 1123 802
1701 195 518 310 809 427 1079 129 295 147 366 155 595 7 204 -12 354 -97 775
-38 190 -70 356 -70 368 0 15 22 48 58 87 31 34 77 98 101 141 85 154 118 197
179 231 80 44 190 130 342 268 133 121 251 216 318 257 20 12 64 46 97 76 147
135 262 135 361 0 25 -34 86 -145 135 -247 137 -282 203 -368 329 -430 30 -15
100 -54 155 -86 220 -128 311 -157 505 -160 175 -4 265 6 430 45 250 60 364
62 503 10 92 -35 117 -57 169 -155 117 -222 162 -461 193 -1025 8 -157 20
-329 26 -383 11 -105 7 -141 -21 -197 -37 -72 -95 -105 -261 -146 -100 -24
-163 -50 -206 -84 -15 -11 -50 -20 -100 -25 -338 -30 -707 -182 -1118 -463
-139 -94 -487 -355 -525 -393 -15 -16 -102 -140 -193 -276 -373 -563 -595
-942 -1257 -2148 -338 -617 -476 -863 -635 -1135 -56 -96 -141 -251 -190 -345
-124 -239 -234 -441 -580 -1065 -355 -641 -487 -888 -634 -1192 -425 -874
-639 -1549 -727 -2298 -21 -182 -30 -681 -15 -880 16 -216 17 -220 51 -220 35
0 27 -29 129 511 193 1023 253 1265 406 1649 260 653 490 1109 1210 2395 409
732 479 861 695 1290 102 204 198 390 213 415 14 25 47 108 72 185 26 77 55
156 65 175 21 41 75 97 101 105 35 11 558 977 922 1700 73 146 77 151 145 202
120 91 219 203 453 507 133 174 254 306 348 376 78 60 289 170 329 172 15 1
37 -1 49 -5 16 -6 23 -3 28 12 12 39 66 101 106 121 53 28 143 28 284 0 58
-11 118 -20 133 -20 78 0 158 51 198 125 17 33 22 36 52 30 39 -7 91 8 146 43
37 23 42 24 92 12 119 -29 222 11 423 161 127 96 142 114 175 216 18 55 63
103 96 103 16 0 19 13 25 117 4 64 5 180 1 258 -3 77 -9 258 -12 402 l-7 262
-36 23 c-69 45 -76 71 -74 261 l3 168 -106 210 c-119 237 -200 365 -288 454
-61 61 -212 178 -305 236 -67 41 -190 84 -297 105 -222 43 -614 2 -889 -93
-67 -23 -97 -27 -185 -28 -101 0 -108 1 -167 34 -80 43 -146 113 -268 286
-113 160 -176 230 -249 279 -61 40 -160 76 -211 76 l-35 0 0 -55z"/>
<path d="M9335 15137 c-2 -6 -6 -43 -10 -81 -3 -37 -32 -173 -65 -300 -32
-127 -64 -269 -71 -315 -14 -96 -7 -263 13 -331 12 -39 18 -45 43 -48 53 -4
61 9 46 75 -26 118 -26 136 4 171 15 18 31 32 36 32 5 0 47 -75 93 -167 l85
-168 0 62 c1 93 41 204 118 329 36 60 86 142 111 183 25 40 58 106 73 145 27
70 54 222 43 249 -2 7 -43 25 -89 41 -85 27 -85 27 -85 61 0 59 -28 69 -168
61 -75 -4 -128 -3 -145 3 -21 8 -29 8 -32 -2z"/>
<path d="M10481 14770 c-57 -42 -79 -48 -99 -28 -9 9 -12 3 -12 -28 0 -65 -26
-138 -115 -324 -46 -96 -91 -202 -100 -235 -21 -82 -19 -164 6 -238 30 -88 36
-94 70 -61 35 34 53 23 72 -43 l13 -45 66 168 c110 281 150 430 168 619 10 96
4 255 -9 255 -3 -1 -30 -19 -60 -40z"/>
<path d="M8140 12282 c-152 -85 -320 -210 -465 -346 l-70 -65 33 -1 32 0 0
-107 0 -107 35 59 c49 80 93 130 306 345 160 160 250 270 222 270 -4 0 -46
-22 -93 -48z"/>
<path d="M7433 11208 c-211 -237 -231 -263 -222 -285 16 -43 -16 -91 -160
-238 -76 -77 -148 -159 -160 -182 -30 -61 -37 -122 -17 -161 15 -29 73 -82 90
-82 4 0 29 19 57 43 53 46 62 76 32 109 -16 18 -13 23 69 106 47 48 101 112
120 142 19 30 70 100 113 155 136 173 191 248 224 307 31 55 32 57 12 67 -72
39 -68 69 24 158 75 72 86 91 62 111 -10 8 -66 -49 -244 -250z"/>
<path d="M6665 9683 c-223 -173 -346 -331 -390 -500 -22 -85 -18 -283 6 -283
5 0 9 12 9 27 0 55 33 161 80 258 34 70 93 158 194 293 141 186 185 252 169
252 -5 0 -35 -21 -68 -47z"/>
<path d="M3900 2290 c-11 -11 -31 -44 -44 -73 -12 -28 -31 -59 -41 -67 -16
-13 -20 -11 -46 18 -23 26 -28 38 -22 60 l6 26 -28 -18 c-78 -51 -188 -96
-234 -96 -20 0 -20 0 0 46 12 25 19 47 17 49 -5 4 -227 -249 -284 -325 -29
-38 -63 -93 -78 -123 -27 -58 -48 -175 -28 -163 6 3 59 67 119 142 l108 135
28 -86 c33 -99 22 -103 120 46 31 47 75 103 98 124 l42 38 18 -22 c25 -31 39
-85 39 -151 l0 -55 36 55 c19 30 53 74 74 99 105 126 180 268 180 342 0 26
-53 26 -80 -1z"/>
<path d="M3196 2182 c-15 -31 -66 -123 -112 -205 -89 -155 -127 -242 -138
-317 l-7 -45 42 45 c52 57 109 154 148 252 32 78 104 318 98 324 -2 2 -16 -22
-31 -54z"/>
</g>
</svg>
