<?xml version="1.0" standalone="no"?>
<!DOCTYPE svg PUBLIC "-//W3C//DTD SVG 20010904//EN"
 "http://www.w3.org/TR/2001/REC-SVG-20010904/DTD/svg10.dtd">
<svg version="1.0" xmlns="http://www.w3.org/2000/svg"
 width="1300.000000pt" height="1300.000000pt" viewBox="0 0 1300.000000 1300.000000"
 preserveAspectRatio="xMidYMid meet">
<metadata>
Created by potrace 1.14, written by Peter Selinger 2001-2017
</metadata>
<g transform="translate(0.000000,1300.000000) scale(0.100000,-0.100000)"
fill="#000000" stroke="none">
<path d="M6468 12193 c-9 -10 -26 -41 -38 -70 -12 -30 -31 -55 -41 -58 -23 -8
-54 -66 -62 -118 -3 -20 -13 -44 -21 -53 -32 -31 -5 -189 33 -196 16 -3 42 17
58 46 6 11 8 -15 7 -76 -2 -76 -1 -85 6 -48 5 25 9 72 10 105 l2 60 14 -60 13
-60 -4 58 c-3 50 -2 57 11 46 8 -6 15 -32 16 -58 l1 -46 4 42 4 41 54 -54 c29
-30 58 -54 64 -54 6 0 11 -15 11 -32 1 -18 18 -100 39 -183 22 -82 36 -153 33
-157 -4 -4 -38 -13 -77 -21 l-70 -15 72 -1 c39 -1 83 3 97 9 21 8 27 6 36 -10
17 -32 11 -70 -15 -95 -19 -20 -34 -25 -72 -25 -48 0 -50 11 -4 25 18 6 22 4
15 -6 -6 -12 -5 -12 8 -1 9 7 18 22 21 34 5 16 3 18 -6 9 -6 -6 -26 -11 -45
-11 -19 0 -47 -7 -62 -17 -24 -14 -38 -15 -91 -6 -54 9 -73 8 -124 -8 -33 -10
-78 -19 -100 -20 -35 0 -37 -2 -18 -11 l21 -10 -28 -39 c-53 -74 -56 -117 -20
-296 30 -152 54 -424 39 -441 -4 -4 -12 -59 -18 -122 -15 -146 -34 -240 -73
-354 -17 -50 -32 -98 -33 -106 -1 -8 -6 -24 -12 -35 -5 -11 -18 -55 -28 -98
-22 -93 -12 -156 35 -226 17 -24 30 -47 30 -51 0 -4 -12 -13 -26 -20 -14 -8
-32 -28 -40 -45 l-15 -30 22 28 c11 15 34 34 49 42 47 24 173 25 205 1 18 -13
18 -14 -8 -9 -39 8 -33 -10 11 -32 20 -10 32 -20 25 -22 -6 -2 -24 2 -40 9
-19 9 -48 11 -88 7 -44 -4 -51 -6 -25 -9 19 -1 39 -2 44 -1 16 4 56 -21 50
-31 -3 -5 -15 -6 -27 -2 -26 8 -21 1 12 -16 15 -8 21 -8 17 -1 -10 15 0 14 36
-5 17 -9 40 -13 54 -10 34 9 20 26 -21 26 -19 0 -36 4 -39 8 -2 4 10 6 27 4
34 -3 102 31 93 47 -11 18 32 40 92 47 57 6 67 4 94 -16 24 -18 30 -19 25 -7
-6 17 4 23 16 10 4 -4 -4 -18 -17 -32 -49 -51 -72 -214 -41 -288 19 -46 30
-36 27 25 -2 44 -1 46 13 28 20 -27 19 -11 -2 26 -13 21 -14 32 -7 35 7 2 10
14 7 26 -4 20 -3 20 7 4 6 -9 9 -21 6 -26 -10 -15 15 -74 26 -63 7 7 5 25 -5
54 -27 78 -28 84 -3 33 l25 -50 2 70 c4 119 8 138 20 105 8 -22 8 -20 4 8 -3
19 -14 46 -25 61 l-19 28 29 28 c70 67 77 181 21 334 -17 47 -31 99 -31 117 0
18 -5 36 -12 40 -18 11 -2 -89 28 -176 47 -139 44 -190 -19 -281 l-32 -46
-100 -6 c-97 -6 -101 -6 -139 21 -69 49 -96 64 -96 55 0 -4 12 -16 26 -24 26
-16 26 -16 -48 -27 -84 -13 -132 -4 -170 29 -13 12 -16 19 -8 16 21 -6 22 20
5 69 -8 22 -14 31 -15 22 0 -9 5 -29 10 -44 13 -33 5 -44 -15 -18 -8 10 -15
14 -15 8 0 -5 5 -15 12 -22 7 -7 9 -12 5 -12 -4 0 -3 -9 3 -21 11 -19 10 -20
-10 -9 -35 19 -77 143 -53 159 9 6 47 131 49 161 0 8 6 26 12 40 5 14 29 77
51 140 23 63 39 99 37 80 -3 -19 -7 -62 -10 -95 -5 -57 -5 -57 4 -15 8 39 50
359 55 416 1 11 4 24 7 30 17 27 29 214 19 304 -12 107 -21 218 -15 180 3 -14
14 -70 26 -125 18 -86 20 -118 14 -230 -8 -148 -11 -176 -27 -298 -6 -49 -9
-91 -6 -93 3 -3 10 35 16 83 6 48 18 124 26 168 25 141 28 243 12 335 -24 131
-28 174 -18 188 11 18 31 -112 41 -268 7 -105 8 -99 6 73 l-1 187 22 -47 c24
-54 31 -51 8 4 -14 33 -14 35 2 22 15 -12 16 -12 9 6 -16 39 -18 55 -8 55 9 0
32 -47 67 -143 10 -26 19 -46 21 -44 6 5 -35 146 -48 167 -13 21 -4 40 12 24
6 -6 25 -48 45 -94 19 -47 34 -77 35 -68 0 20 -39 129 -51 143 -12 12 -11 25
1 25 6 0 19 -15 30 -32 11 -18 20 -27 20 -20 0 26 22 10 41 -30 l19 -43 -4 38
c-6 46 15 47 25 1 l7 -29 1 29 c1 17 11 38 26 52 27 25 31 20 14 -22 -6 -17
-7 -45 -3 -69 l8 -40 8 50 c19 111 20 209 3 274 -9 35 -15 64 -13 65 2 1 15 7
31 14 54 23 62 128 13 167 -34 27 -71 120 -96 243 -24 119 -24 132 -6 132 20
0 56 48 56 73 0 11 -4 34 -10 51 -5 17 -12 48 -15 69 -6 38 -35 77 -56 77 -6
0 1 -14 15 -31 17 -19 26 -43 26 -64 0 -18 6 -48 14 -66 15 -38 12 -58 -12
-76 -39 -32 -112 10 -112 64 0 19 -3 24 -9 15 -13 -21 -35 15 -33 54 3 39 -5
44 -17 12 -9 -23 -9 -23 -20 5 -6 16 -11 46 -11 67 0 21 -4 42 -10 45 -6 4
-10 -18 -10 -59 0 -64 -1 -66 -34 -88 -19 -13 -37 -31 -40 -40 -8 -31 -31 -19
-44 22 -19 61 -16 107 8 120 13 7 20 21 20 41 0 31 24 99 36 99 3 0 4 -7 1
-15 -4 -8 -2 -17 3 -20 6 -4 10 0 10 8 0 25 93 192 98 176 3 -8 16 -28 29 -46
14 -17 28 -44 33 -60 8 -28 8 -28 9 -3 1 14 -14 49 -33 79 -43 67 -40 64 -58
44z m-53 -1093 c4 -6 15 -8 24 -5 10 3 31 -2 48 -10 16 -8 52 -18 79 -21 27
-4 61 -13 76 -20 38 -20 47 -17 20 6 -24 20 -22 43 3 34 20 -8 35 -67 35 -137
0 -52 -3 -62 -30 -89 -26 -25 -36 -29 -63 -24 -17 4 -48 17 -69 31 -20 13 -48
27 -62 31 -33 8 -77 -3 -73 -18 1 -8 -24 -18 -64 -26 -56 -12 -70 -12 -95 -1
-25 12 -29 21 -32 58 -6 84 41 159 118 190 33 13 77 13 85 1z"/>
<path d="M4890 11146 c0 -8 -9 -24 -20 -37 -18 -23 -19 -23 -20 -4 0 17 -3 15
-18 -10 -34 -54 -46 -58 -71 -24 -13 17 -25 28 -28 25 -3 -3 -1 -12 6 -20 14
-17 30 -111 24 -137 -8 -29 -19 -23 -47 24 -14 23 -26 39 -26 34 0 -13 39 -80
51 -88 8 -5 3 -29 -20 -84 -17 -43 -31 -82 -31 -86 0 -5 -16 -51 -36 -101 -31
-80 -35 -98 -29 -147 5 -48 2 -64 -19 -111 -14 -30 -26 -70 -26 -89 0 -19 25
-95 55 -170 32 -82 61 -172 70 -226 23 -123 31 -335 16 -417 -19 -108 -79
-297 -127 -394 -34 -70 -45 -107 -49 -155 l-5 -64 13 55 c7 30 34 100 59 155
91 199 128 359 128 555 0 163 -30 345 -74 458 -18 45 -30 82 -26 82 4 0 11 -7
14 -16 4 -9 9 -14 13 -11 3 4 -10 24 -30 46 -47 52 -55 96 -31 164 l19 52 79
-4 c66 -2 94 2 163 25 45 15 81 29 79 31 -2 2 -44 -5 -95 -17 -121 -27 -187
-27 -201 0 -11 21 -8 24 23 21 11 -2 17 4 16 16 0 13 -2 14 -6 4 -4 -10 -11
-3 -23 20 -14 30 -15 41 -3 92 7 32 32 102 54 155 23 53 53 134 68 179 19 59
32 86 49 94 18 10 25 10 36 -2 13 -14 102 -206 158 -344 18 -43 27 -57 24 -38
-3 18 -28 85 -56 149 -47 107 -49 117 -35 137 8 12 15 33 15 48 0 14 9 34 20
44 11 10 20 23 20 28 0 5 -13 -7 -30 -28 -16 -21 -30 -48 -30 -61 0 -37 -15
-36 -29 2 -11 30 -10 38 2 52 28 33 30 47 3 22 -23 -21 -29 -22 -37 -10 -17
27 -22 61 -10 73 8 8 11 7 11 -6 0 -29 38 -20 55 12 18 36 5 49 -20 21 -26
-29 -38 -25 -30 10 4 17 4 30 1 30 -3 0 -6 -6 -6 -14z"/>
<path d="M8156 11127 c6 -33 4 -36 -12 -30 -14 5 -16 3 -10 -13 5 -10 10 -48
13 -82 4 -69 -15 -119 -43 -108 -18 7 -18 -2 2 -76 20 -79 14 -90 -21 -42 -41
56 -51 64 -29 25 10 -18 31 -46 47 -62 48 -49 86 -165 41 -128 -8 6 -14 8 -14
3 -1 -5 -12 5 -26 21 l-26 30 18 -33 c22 -38 59 -77 49 -51 -10 25 51 16 80
-11 32 -30 30 -66 -6 -93 -31 -23 -164 -42 -280 -41 -61 1 -82 6 -111 25 -63
41 -70 71 -22 100 27 17 90 145 124 258 22 70 24 85 11 77 -5 -3 -14 -27 -20
-53 -24 -99 -83 -234 -110 -251 -56 -34 -67 -79 -30 -118 l21 -22 -29 -14
c-39 -18 -83 -110 -90 -187 -6 -68 8 -115 40 -132 19 -11 20 -18 14 -153 -16
-371 -33 -460 -128 -674 -71 -161 -86 -219 -70 -273 7 -21 20 -43 31 -49 18
-10 18 -12 -13 -56 -46 -65 -44 -139 8 -293 36 -110 37 -118 31 -205 -4 -50
-15 -143 -26 -206 -11 -63 -29 -198 -40 -300 -12 -102 -30 -240 -41 -307 -11
-67 -19 -125 -18 -130 1 -4 -1 -17 -6 -28 -4 -11 -23 -60 -43 -110 -35 -91
-70 -165 -136 -288 -43 -82 -46 -133 -16 -251 19 -70 20 -86 9 -151 -12 -68
-11 -74 11 -119 12 -26 34 -53 47 -59 18 -8 23 -16 18 -31 -4 -12 -10 -52 -15
-91 -11 -94 -31 -168 -47 -178 -48 -29 -136 -114 -152 -146 -33 -63 -36 -158
-10 -301 39 -219 31 -497 -22 -759 -11 -52 -26 -152 -34 -222 -18 -152 -65
-344 -130 -524 -26 -71 -71 -199 -100 -283 -29 -83 -67 -176 -83 -205 -17 -29
-36 -72 -43 -96 -15 -52 -17 -49 -63 103 -45 148 -82 343 -96 511 -5 72 -22
259 -36 416 -25 277 -25 299 -16 650 9 333 12 368 30 411 25 56 50 174 57 261
l5 62 -19 -85 c-10 -47 -42 -146 -71 -220 -34 -87 -66 -197 -91 -309 -72 -320
-88 -474 -73 -696 l9 -130 6 210 c6 204 22 364 40 395 6 10 7 1 4 -25 -13
-120 -15 -174 -8 -267 l8 -103 6 110 5 110 3 -125 c7 -278 17 -318 17 -70 0
196 4 276 22 403 12 87 22 177 23 200 1 23 4 52 7 65 4 13 7 -161 8 -385 0
-361 3 -442 27 -703 42 -456 58 -559 123 -773 25 -81 26 -90 13 -130 l-14 -42
-3 60 c-2 33 -6 63 -10 67 -4 4 -6 -14 -4 -40 2 -26 -1 -58 -7 -72 -8 -21 -10
-17 -10 30 -1 37 -17 106 -52 215 -29 88 -60 198 -70 245 l-19 85 6 -65 c12
-142 83 -396 115 -415 14 -9 10 -96 -6 -130 -13 -29 -13 -27 -14 40 -1 42 -7
79 -15 90 -7 11 -19 38 -25 60 -7 22 -19 54 -26 70 -7 17 -20 55 -29 85 -17
59 -85 471 -87 530 -2 28 -3 30 -6 9 -5 -31 61 -499 82 -581 24 -95 68 -199
82 -194 19 8 17 -100 -2 -154 -8 -23 -15 -44 -15 -46 0 -8 25 2 35 13 6 7 15
9 22 5 21 -13 -32 -106 -90 -157 -62 -55 -155 -101 -231 -117 -43 -8 -54 -14
-46 -23 19 -23 139 14 219 67 34 22 46 26 57 17 18 -15 31 -66 39 -155 6 -64
4 -78 -20 -135 -60 -142 -64 -170 -19 -128 23 21 23 23 7 41 -13 14 -13 17 -2
13 10 -4 20 10 33 47 19 52 20 53 26 23 4 -16 8 -34 10 -40 5 -19 0 -35 -11
-35 -5 0 -7 6 -3 13 5 8 2 8 -9 -2 -20 -16 -23 -26 -4 -15 9 6 9 4 -1 -8 -10
-12 -10 -18 -1 -23 6 -4 15 -1 20 6 6 9 9 10 9 2 0 -11 -26 -43 -35 -43 -3 0
-2 6 1 14 11 29 -14 24 -45 -8 -30 -31 -33 -41 -38 -112 -5 -72 5 -170 23
-233 5 -18 4 -22 -5 -16 -7 4 -5 -5 5 -19 9 -15 25 -55 35 -89 15 -52 18 -57
18 -29 1 18 -4 42 -10 54 -13 25 -5 35 16 18 21 -17 18 -65 -8 -129 -25 -61
-47 -78 -47 -37 0 35 -22 87 -56 131 -31 42 -46 40 -15 -2 11 -15 32 -61 46
-102 28 -85 28 -81 17 -81 -4 0 -13 19 -19 43 -7 24 -21 54 -33 68 -19 22 -20
22 -11 2 20 -41 41 -147 31 -157 -7 -7 -10 -1 -10 15 0 13 -9 42 -21 64 -32
60 -41 64 -20 9 24 -63 35 -124 23 -124 -6 0 -13 17 -17 38 -9 48 -33 99 -50
106 -9 3 -7 -6 6 -29 13 -21 21 -55 22 -91 3 -79 -18 -83 -26 -4 -7 62 -21
100 -37 100 -4 0 -2 -12 5 -27 16 -33 23 -155 9 -160 -6 -2 -21 32 -34 76 -14
44 -26 78 -28 76 -2 -2 3 -38 12 -80 16 -78 15 -95 -8 -95 -13 0 -36 81 -36
125 0 13 -4 26 -9 29 -5 4 -8 -2 -6 -11 2 -10 6 -48 9 -85 5 -67 5 -68 -19
-68 -22 0 -24 4 -28 58 l-3 57 -2 -57 c-2 -55 -3 -58 -27 -58 -24 0 -25 2 -26
78 -1 84 -16 67 -18 -20 -1 -33 -5 -48 -15 -48 -16 0 -27 69 -21 126 l5 39
-11 -35 c-6 -19 -9 -54 -7 -77 2 -30 -1 -43 -9 -43 -9 0 -13 21 -14 73 -1 77
-16 61 -18 -20 -1 -43 -12 -55 -28 -30 -4 6 -11 46 -14 87 l-6 75 -1 -78 c-2
-75 -3 -77 -22 -67 -33 18 -44 53 -32 101 7 27 7 38 0 31 -5 -5 -12 -28 -15
-51 -5 -40 -7 -41 -24 -25 -11 10 -19 29 -19 43 l0 25 -35 -34 c-19 -19 -35
-37 -35 -40 0 -3 19 -16 43 -28 56 -29 137 -87 165 -118 29 -32 29 -86 1 -145
-13 -26 -24 -72 -27 -114 -5 -80 -29 -125 -66 -125 -13 0 -52 11 -87 24 -72
27 -151 41 -319 56 -208 20 -292 47 -378 125 -93 84 -114 159 -66 230 33 50
57 69 126 105 105 54 192 72 341 68 132 -3 132 -3 192 -40 l60 -37 26 25 c20
19 26 35 26 67 0 30 -2 36 -7 22 -14 -35 -24 10 -11 46 15 44 14 48 -8 20
l-19 -24 -7 34 c-12 54 -8 138 11 214 24 94 24 312 1 410 -46 190 -46 227 -2
271 32 32 100 32 202 -1 43 -14 116 -28 163 -32 78 -6 84 -5 71 10 -8 10 -28
17 -50 17 -64 0 -264 57 -283 80 -38 46 -48 139 -24 208 12 34 12 43 1 52 -10
8 -14 8 -18 -2 -3 -7 -6 -4 -6 8 -1 11 -7 26 -14 34 -10 12 -9 12 4 2 13 -10
17 -3 28 49 6 33 30 118 53 187 159 501 172 571 172 932 0 199 -5 294 -22 433
-23 186 -25 214 -17 205 11 -10 45 -272 56 -428 6 -91 9 -228 6 -305 -2 -77
-2 -165 2 -195 6 -47 8 -33 15 88 14 251 -10 607 -59 846 -22 109 -144 493
-145 455 0 -21 35 -156 71 -268 22 -70 32 -127 40 -225 5 -72 14 -160 19 -196
18 -114 24 -474 11 -630 -19 -221 -58 -377 -185 -723 -35 -95 -75 -255 -77
-307 l-1 -25 -8 25 c-6 20 -8 16 -9 -23 -3 -122 -39 -181 -120 -192 -63 -9
-90 4 -229 105 -108 79 -114 85 -150 158 -27 56 -49 85 -82 110 -25 19 -65 65
-89 104 -44 69 -45 72 -45 157 -1 62 4 100 18 136 11 28 22 52 25 55 9 7 31
81 23 76 -4 -2 -8 91 -8 207 -2 233 -4 267 -14 267 -4 0 -7 -93 -7 -207 0
-191 -2 -217 -26 -322 -15 -62 -27 -124 -27 -137 0 -31 -13 -30 -31 2 -7 14
-52 63 -98 107 -47 45 -100 97 -119 116 -18 18 -36 31 -39 27 -9 -8 45 -63
130 -134 97 -80 159 -203 127 -252 -7 -11 -10 -4 -10 26 0 22 -7 49 -16 60
-15 19 -15 19 -5 -2 5 -11 11 -45 13 -75 2 -49 -1 -59 -32 -98 -19 -24 -55
-57 -80 -73 -40 -26 -42 -29 -15 -22 46 10 103 50 133 94 30 43 47 52 37 19
-25 -77 -87 -130 -251 -212 -49 -25 -97 -54 -105 -64 -13 -17 -13 -17 5 -3 10
8 82 46 160 85 112 56 144 76 156 100 26 52 47 77 55 65 4 -6 1 -18 -6 -26 -6
-8 -9 -18 -5 -21 4 -4 11 -1 16 7 7 12 12 12 22 2 9 -9 7 -19 -12 -44 -29 -40
-50 -57 -157 -130 -45 -31 -106 -64 -134 -73 -62 -21 -60 -26 6 -14 113 20
305 145 305 198 0 12 4 19 10 16 17 -11 11 -68 -12 -122 -26 -59 -49 -72 -228
-134 -115 -39 -208 -93 -235 -136 -30 -47 -60 -61 -92 -43 -34 19 -39 35 -12
37 12 1 27 7 33 14 8 8 5 10 -14 4 l-25 -7 27 19 27 19 -67 -3 c-50 -1 -58 0
-32 6 30 6 80 28 80 34 0 1 -24 0 -54 -1 -30 -2 -63 1 -73 7 -16 9 -14 10 12
11 47 0 100 18 120 40 17 19 17 19 -21 -1 -43 -21 -114 -25 -132 -7 -17 17
-15 28 6 28 9 0 31 11 47 25 l30 25 -37 -15 c-48 -19 -84 -19 -92 1 -3 9 -6
75 -6 149 0 144 -13 235 -80 560 -36 174 -39 183 -35 110 2 -44 18 -147 35
-230 39 -187 59 -336 60 -440 1 -104 16 -208 37 -253 28 -59 140 -170 178
-178 32 -6 32 -7 24 -42 -13 -54 -10 -132 6 -175 13 -39 13 -39 -25 -73 -21
-19 -46 -51 -55 -72 -10 -20 -30 -55 -45 -77 -15 -22 -30 -47 -34 -55 -14 -27
33 34 71 93 20 31 50 63 65 70 15 6 28 16 28 21 0 5 45 6 107 2 163 -11 165
-11 390 -250 40 -42 79 -88 87 -103 18 -37 39 -222 30 -270 -11 -63 -41 -110
-91 -145 -27 -17 -73 -58 -104 -90 -43 -46 -64 -60 -94 -65 -25 -4 -36 -3 -32
4 6 10 -68 47 -88 44 -6 0 -23 10 -39 24 -17 14 -42 25 -58 25 -22 0 -39 10
-61 36 -18 20 -58 54 -90 76 -31 21 -74 56 -95 76 -25 25 -32 29 -21 12 9 -14
38 -41 65 -60 27 -19 74 -60 104 -91 60 -60 88 -79 117 -79 10 0 52 -25 93
-56 73 -54 77 -55 127 -51 59 6 69 0 106 -63 79 -133 210 -208 403 -229 49 -5
138 -15 198 -22 61 -6 135 -20 165 -30 77 -27 115 -25 146 8 19 22 25 24 25
11 0 -32 59 -86 117 -108 64 -24 176 -30 210 -12 12 7 47 34 77 60 60 53 88
69 191 108 173 65 316 134 405 194 79 54 280 267 280 297 0 11 -88 99 -93 92
-2 -2 -1 -29 2 -59 5 -52 5 -53 12 -20 l6 35 2 -37 c1 -32 -8 -47 -66 -113
-85 -97 -193 -178 -308 -234 -50 -24 -129 -63 -177 -87 -49 -24 -91 -44 -94
-44 -3 0 8 18 25 39 48 60 20 58 -46 -3 -32 -29 -73 -66 -92 -82 -19 -16 -53
-45 -75 -65 -64 -57 -78 -61 -162 -54 -164 16 -235 101 -199 240 30 115 100
178 225 204 79 16 170 45 170 54 0 4 6 7 14 7 8 0 28 16 44 35 35 39 127 223
137 273 11 52 15 32 6 -26 -4 -29 -5 -52 -2 -52 3 0 15 29 25 64 18 66 23 72
87 126 46 38 55 39 20 2 -49 -53 -83 -129 -87 -195 l-4 -62 16 50 c32 107 47
136 91 182 l45 48 -36 -44 c-35 -44 -71 -130 -63 -154 2 -6 7 4 10 23 4 19 18
49 32 65 l25 30 -25 -49 c-18 -36 -25 -64 -24 -105 l1 -56 13 63 c8 35 25 83
39 107 30 50 109 123 143 131 13 4 23 10 23 14 0 4 7 11 16 14 12 4 15 2 10
-9 -7 -19 13 -19 38 0 29 22 42 18 21 -5 -10 -11 -23 -20 -30 -20 -22 0 -109
-51 -143 -83 -38 -36 -66 -80 -77 -117 -5 -18 0 -14 20 15 15 22 23 31 20 20
-4 -11 -9 -42 -12 -70 l-4 -50 30 77 c16 42 41 92 55 111 31 40 97 87 124 87
10 0 27 7 38 15 20 15 64 20 64 7 0 -5 -14 -15 -32 -23 -48 -21 -48 -40 -1
-24 21 7 41 11 44 9 4 -2 10 -21 13 -41 16 -89 36 -129 95 -187 45 -45 60 -54
64 -42 4 9 18 16 34 16 16 0 61 16 101 34 99 48 224 86 282 86 27 0 61 5 77
11 38 14 100 75 126 124 28 54 28 166 -1 250 -19 54 -19 62 -5 89 8 16 28 40
44 53 16 14 37 38 46 54 11 19 25 29 41 29 36 0 76 28 106 73 14 23 58 138 97
256 121 371 249 591 550 950 320 383 370 449 429 566 54 107 68 182 51 283 -7
42 -26 103 -42 134 -16 32 -29 59 -29 60 0 2 21 2 48 0 61 -5 91 18 132 101
l31 63 -4 174 c-5 174 -4 176 39 400 98 496 103 512 210 671 89 135 116 201
113 284 -2 60 -13 92 -46 131 -26 30 -70 57 -82 50 -5 -4 -12 -2 -16 4 -3 5
-15 10 -25 10 -13 0 -18 7 -17 20 1 13 5 16 11 10 17 -17 84 -12 105 9 22 22
34 103 22 151 -5 19 -25 73 -45 120 -48 117 -66 188 -73 302 l-6 96 33 42 c22
28 33 53 33 74 0 17 6 38 13 47 23 25 29 157 11 202 -9 20 -21 37 -26 37 -6 0
-11 9 -11 21 0 11 -20 41 -45 67 -35 36 -45 53 -45 79 0 41 -8 41 -47 1 -30
-31 -54 -82 -72 -153 -4 -16 -20 -52 -34 -80 -24 -47 -25 -56 -19 -147 4 -53
12 -102 18 -108 9 -9 8 -24 -2 -58 -59 -204 -90 -303 -106 -335 -11 -22 -17
-45 -14 -53 3 -8 2 -13 -3 -10 -14 9 -57 -30 -71 -64 -21 -51 -8 -147 28 -208
18 -29 32 -55 32 -57 0 -2 -10 -5 -22 -7 -49 -7 -89 -116 -68 -187 5 -19 21
-47 35 -61 l26 -27 -11 -132 c-13 -168 -30 -244 -85 -401 -24 -69 -56 -163
-70 -210 -47 -152 -109 -236 -259 -355 -91 -72 -108 -171 -46 -269 28 -43 28
-45 9 -51 -54 -18 -199 -186 -235 -274 -23 -56 -32 -135 -16 -145 5 -3 8 9 7
27 -1 18 1 39 6 47 4 8 19 40 32 70 30 68 149 207 201 233 52 27 116 24 172
-9 47 -28 85 -70 152 -171 47 -70 68 -89 57 -52 -6 20 1 16 39 -21 120 -116
93 -274 -91 -534 -90 -127 -107 -148 -273 -340 -204 -237 -246 -288 -336 -416
-171 -242 -226 -361 -295 -635 -36 -141 -56 -190 -95 -229 -25 -25 -35 -28
-75 -24 -47 5 -73 20 -191 112 -53 41 -122 73 -190 90 -52 12 -28 -9 47 -43
43 -19 75 -40 75 -48 0 -8 4 -11 10 -8 9 6 59 -21 71 -38 9 -13 -1 -48 -12
-41 -5 3 -9 15 -9 27 0 14 -3 18 -8 10 -6 -9 -17 -5 -40 17 -18 16 -51 34 -75
41 -30 8 -58 28 -104 75 -34 36 -77 71 -97 79 -69 29 -106 11 -43 -21 46 -24
93 -62 95 -76 8 -60 16 -89 24 -95 10 -6 4 49 -9 83 -3 9 1 14 12 14 10 0 13
-5 9 -12 -4 -6 -3 -8 3 -5 6 4 21 -5 34 -19 28 -30 79 -59 97 -56 18 4 36 -42
28 -72 -10 -40 -26 -31 -28 17 l-1 42 -4 -38 c-4 -32 -7 -37 -21 -31 -9 4 -65
9 -123 12 -96 4 -110 2 -150 -19 -44 -24 -44 -24 -15 -27 16 -2 32 2 37 9 8
14 73 16 131 5 28 -5 44 -16 63 -44 14 -20 25 -32 25 -27 0 6 -7 21 -16 34
-16 22 -15 23 2 19 10 -2 29 -21 41 -43 22 -39 34 -33 13 6 -8 15 -7 19 4 19
7 0 17 -7 20 -16 4 -9 9 -14 13 -10 3 3 21 -5 39 -19 l33 -25 7 35 c11 60 23
28 27 -75 2 -25 7 -54 13 -65 20 -35 37 -128 38 -193 0 -53 -5 -68 -30 -104
-39 -56 -85 -86 -142 -92 -104 -13 -153 -26 -269 -75 -132 -56 -169 -61 -218
-31 -41 25 -71 116 -61 181 10 61 72 171 144 256 51 59 58 71 35 60 -35 -19
-113 -100 -142 -149 -28 -48 -36 -49 -17 -3 24 55 64 102 132 152 64 47 80 62
46 44 -26 -14 -110 6 -149 36 -18 13 -33 20 -33 14 0 -17 61 -61 85 -61 13 0
27 -4 30 -10 10 -17 -31 -11 -99 14 -78 28 -77 17 2 -23 45 -23 53 -31 39 -36
-12 -5 -39 4 -79 24 -33 18 -62 31 -64 29 -7 -8 14 -27 59 -56 26 -17 44 -33
39 -36 -9 -5 -34 9 -94 54 l-33 25 33 -42 c18 -23 42 -45 53 -48 18 -6 24 -28
6 -26 -4 1 -13 1 -21 1 -8 0 -31 16 -52 35 -20 19 -39 33 -41 31 -10 -9 18
-44 56 -71 39 -26 52 -45 32 -45 -12 0 -84 49 -98 68 -7 9 -13 11 -13 4 0 -6
14 -27 31 -47 35 -40 21 -48 -17 -10 l-24 24 6 -26 c10 -38 -11 -21 -37 29
-29 56 -21 110 27 207 48 93 89 135 179 183 118 62 177 135 221 273 14 44 37
98 52 120 33 50 320 329 422 410 224 179 311 262 414 399 83 110 277 464 275
503 0 10 -17 -16 -37 -57 -167 -335 -338 -541 -677 -812 -113 -90 -206 -175
-277 -253 -60 -64 -108 -121 -108 -126 0 -6 -4 -7 -10 -4 -5 3 -10 16 -10 29
0 13 -9 58 -20 101 -11 43 -21 91 -22 106 -3 32 -10 36 -28 14 -10 -12 -9 -33
3 -102 9 -49 19 -98 23 -110 6 -22 3 -23 -43 -23 -27 0 -54 -5 -61 -12 -10
-10 -16 -7 -28 10 -8 12 -20 22 -25 22 -11 0 -13 -5 -29 -69 -8 -29 -14 -40
-20 -32 -5 10 -9 10 -15 2 -4 -7 -16 -9 -27 -5 -12 3 -24 1 -28 -6 -8 -13
-100 -24 -100 -12 0 5 -7 17 -15 28 -15 19 -15 19 -8 -1 3 -11 11 -26 17 -33
7 -10 6 -16 -7 -23 -9 -6 -17 -14 -17 -18 0 -14 58 -34 80 -28 15 4 24 -2 35
-22 7 -15 21 -34 30 -41 13 -11 11 -3 -6 32 -20 43 -21 78 -1 78 5 0 14 -18
21 -39 6 -21 20 -50 31 -63 18 -20 18 -17 -4 35 -14 31 -21 57 -16 57 6 0 16
-15 23 -33 8 -17 22 -39 33 -47 15 -13 15 -10 -4 21 -26 43 -28 59 -7 59 8 0
15 -6 15 -13 0 -8 10 -22 21 -33 l22 -19 -22 43 c-21 42 -22 45 -5 63 9 10 25
19 34 19 10 0 31 7 46 15 50 26 103 14 90 -20 -6 -16 -9 -16 -31 5 -14 13 -25
19 -25 13 0 -5 9 -18 20 -28 21 -19 26 -50 10 -60 -5 -3 -10 1 -10 9 0 17 -49
77 -50 60 0 -6 7 -17 15 -24 8 -7 20 -29 26 -50 14 -47 -7 -119 -50 -171 l-29
-34 -36 41 c-28 33 -50 46 -115 67 -105 35 -211 46 -230 23 -12 -14 -8 -16 40
-16 118 -1 238 -40 292 -98 l28 -29 -33 -25 c-18 -13 -54 -37 -79 -52 -121
-70 -219 -232 -219 -362 0 -27 -6 -46 -17 -55 -15 -12 -16 -12 -10 5 4 10 -11
-1 -35 -24 -55 -57 -60 -36 -9 36 48 67 54 88 11 42 l-29 -33 23 50 c35 74 42
108 12 57 -14 -23 -32 -50 -41 -58 -8 -8 -15 -19 -15 -24 0 -12 -126 -100
-143 -100 -29 0 -42 33 -49 124 -4 50 -7 100 -8 111 0 11 -10 52 -21 90 -61
202 27 344 212 345 49 0 70 4 80 16 13 16 6 17 -81 12 -56 -3 -113 -13 -138
-23 -50 -20 -61 -15 -71 36 -8 38 3 147 16 160 4 4 6 -16 5 -45 -3 -37 1 -63
13 -82 9 -16 13 -20 8 -9 -4 11 -8 45 -8 75 0 46 7 67 43 133 l44 78 25 -26
c24 -23 25 -28 15 -64 -13 -43 -15 -126 -3 -156 5 -12 10 15 14 74 3 51 8 96
11 98 15 15 155 -102 185 -154 6 -12 13 -15 20 -8 16 17 -68 115 -147 170 -70
48 -114 93 -77 79 20 -8 20 24 0 50 -23 30 -18 63 17 124 17 30 71 173 120
316 49 144 86 250 84 236 -3 -14 -8 -53 -11 -85 l-5 -60 16 35 c16 35 129 476
158 620 28 140 57 394 62 545 4 115 0 183 -15 290 -10 77 -20 125 -20 106 -2
-59 -10 -29 -29 100 -15 102 -16 133 -6 175 16 70 25 85 96 148 67 59 78 65
78 41 0 -8 5 -15 10 -15 6 0 10 14 10 30 0 43 36 139 62 168 61 65 165 102
290 102 84 0 187 -25 170 -42 -7 -7 -17 -6 -32 2 -15 8 -20 8 -16 1 10 -15 -7
-14 -24 2 -8 6 -5 1 7 -13 11 -14 35 -47 53 -75 19 -30 29 -40 25 -25 -4 14
-18 41 -31 59 -13 19 -21 37 -18 40 10 11 44 -45 71 -119 23 -61 29 -70 31
-47 3 24 5 25 18 12 24 -24 10 -62 -78 -201 -79 -127 -100 -165 -232 -417 -58
-110 -66 -130 -55 -145 11 -14 11 -15 -1 -5 -16 15 -47 -46 -145 -287 -108
-269 -176 -527 -189 -720 -6 -104 6 -82 29 55 20 111 87 364 105 392 10 17 11
17 6 -2 -10 -39 -36 -215 -35 -237 1 -13 12 39 25 115 21 123 59 256 99 349
21 49 18 27 -10 -70 -26 -93 -66 -307 -64 -350 0 -15 11 29 24 98 31 171 67
303 115 418 23 53 51 121 62 150 39 99 27 46 -27 -119 -52 -159 -86 -317 -84
-389 1 -27 3 -29 6 -10 21 124 49 235 79 320 40 109 52 126 29 40 -15 -57 -89
-395 -149 -680 -69 -324 -96 -539 -96 -755 0 -125 8 -163 27 -133 4 7 8 85 9
173 2 183 10 265 60 565 74 451 148 792 233 1074 26 89 56 197 65 241 10 44
28 96 41 115 57 86 173 289 188 328 26 65 22 157 -8 211 -14 23 -25 44 -25 46
0 1 16 5 36 8 49 8 99 44 120 87 26 52 30 228 9 350 -27 149 -32 555 -10 800
10 107 19 218 21 245 1 28 7 97 13 155 6 58 15 155 21 215 5 61 21 166 35 235
13 69 24 136 24 150 -1 17 -3 19 -6 8 -6 -22 -29 -23 -37 -2 -3 8 -2 13 2 10
5 -3 14 11 21 30 7 18 17 34 22 34 7 0 10 40 8 108 -1 64 3 128 11 158 12 45
11 64 -4 139 -9 47 -31 128 -48 178 -32 92 -32 93 -36 335 -4 281 1 328 61
486 49 134 60 237 30 296 -18 35 -18 35 5 55 12 11 25 34 28 51 5 27 0 38 -31
73 -20 22 -40 39 -44 36 -10 -5 -59 136 -67 193 -5 31 -3 47 8 60 8 9 18 26
23 37 11 30 15 220 4 236 -7 9 -8 1 -3 -24z m49 -707 c24 -20 38 -80 31 -135
-6 -54 -66 -207 -92 -236 -8 -8 -11 -18 -8 -22 3 -3 3 -25 -1 -49 -6 -35 -9
-39 -16 -23 -4 12 -8 -31 -8 -102 -1 -69 -9 -176 -21 -245 -10 -68 -21 -161
-24 -208 -4 -66 1 -44 23 100 33 209 40 213 14 8 -19 -149 -12 -250 23 -337
23 -57 29 -45 10 20 -9 29 -18 98 -21 154 l-5 100 19 -70 c10 -38 33 -122 50
-185 34 -128 39 -181 16 -200 -19 -16 -20 -15 -32 40 l-11 45 -1 -43 c-2 -89
-36 -107 -196 -107 -118 1 -167 16 -226 71 -29 28 -113 74 -88 49 19 -20 14
-76 -7 -68 -8 3 -14 17 -15 32 0 23 -1 24 -9 6 -7 -17 -9 -14 -10 15 -1 19 -4
27 -7 18 -13 -50 -45 10 -36 66 4 26 14 41 38 56 36 22 96 27 91 8 -1 -7 -1
-10 1 -5 8 12 20 8 52 -19 39 -33 40 -16 2 25 -19 20 -28 39 -25 49 4 11 3 13
-3 5 -5 -7 -25 -9 -56 -6 -39 5 -48 9 -43 22 2 9 21 57 40 108 20 50 43 118
51 150 18 69 49 394 49 511 0 61 3 82 13 82 18 0 17 -301 -2 -444 -8 -61 -13
-111 -11 -113 11 -11 42 195 55 367 14 180 18 205 34 208 15 3 17 -6 19 -70
l2 -73 3 68 c3 40 8 67 15 67 24 0 -14 -496 -52 -675 -10 -49 -21 -99 -25
-110 -3 -11 4 0 15 25 43 92 98 410 107 623 3 76 11 140 16 144 7 4 8 -16 4
-57 -6 -70 8 -64 19 8 7 46 10 48 38 27 11 -8 25 -15 30 -15 12 1 -36 45 -56
53 -7 2 -10 8 -6 12 5 5 19 3 33 -3 38 -17 33 13 -5 33 -42 21 -83 19 -146
-10 -72 -33 -109 -33 -130 1 -33 49 -14 182 31 224 35 33 101 37 155 10 59
-30 196 -32 166 -2 -4 4 -36 7 -71 7 -35 0 -62 2 -60 4 7 6 199 28 223 25 13
-2 30 -8 37 -14z m-429 -1534 c52 -25 94 -48 94 -53 -1 -18 -18 -35 -30 -28
-7 4 -44 13 -81 20 -54 9 -69 9 -69 -1 0 -7 23 -15 59 -19 81 -9 91 -19 84
-77 -5 -45 -8 -48 -34 -48 -15 0 -31 -5 -34 -10 -4 -6 -3 -10 2 -9 38 7 62 -3
73 -31 17 -40 31 -38 19 2 -19 69 -5 168 29 195 14 11 13 16 -8 38 l-23 25 79
0 c43 0 115 3 160 6 l80 7 13 -43 c11 -37 11 -44 -2 -52 -24 -13 -57 -73 -57
-102 0 -18 -4 -25 -11 -20 -7 4 -9 22 -6 47 4 27 2 36 -4 26 -11 -18 -12 -82
0 -94 15 -16 21 -77 10 -99 -9 -18 -8 -19 3 -6 7 8 26 16 41 18 24 2 27 0 23
-20 -40 -183 -80 -479 -81 -600 0 -36 -3 -64 -6 -62 -8 5 -16 -52 -35 -274
-22 -247 -15 -600 16 -827 23 -171 21 -225 -10 -286 -39 -76 -103 -87 -224
-40 -83 34 -226 56 -295 47 -44 -6 -47 -4 -68 27 -13 18 -23 41 -23 50 0 9 -4
17 -10 17 -12 0 -12 -7 -1 -48 12 -41 -5 -33 -26 12 l-14 31 5 -35 6 -35 -22
25 -21 25 8 -25 c9 -31 35 -61 46 -55 4 3 10 1 13 -4 3 -5 -1 -12 -10 -15 -49
-19 -110 12 -125 64 -7 23 -8 70 -2 137 5 62 5 99 -1 96 -5 -4 -7 9 -3 30 4
24 1 37 -7 40 -38 15 -20 110 44 237 21 41 41 86 45 100 4 14 25 57 45 95 34
65 65 159 58 181 -1 5 3 18 9 29 14 25 38 185 58 380 8 83 26 213 40 290 14
77 29 181 33 230 l7 90 6 -65 c8 -83 -5 -230 -36 -395 -16 -87 -25 -182 -29
-287 -2 -87 -3 -158 -1 -158 11 0 28 125 35 255 6 104 15 169 29 213 32 96 46
231 32 299 -11 56 -15 123 -7 123 2 0 11 3 20 6 14 5 16 -7 16 -97 0 -143 -15
-306 -39 -435 -11 -60 -25 -163 -30 -229 -7 -72 -21 -154 -36 -204 -14 -47
-24 -105 -24 -130 1 -26 4 -35 6 -21 2 14 15 67 29 118 14 52 32 153 40 225 8
72 23 170 35 217 41 174 67 528 39 545 -6 4 -8 11 -5 16 46 73 40 -302 -10
-636 -29 -200 -33 -307 -4 -140 11 61 28 180 38 265 15 126 19 144 21 95 l3
-60 7 60 c12 94 20 303 10 275 -8 -25 -8 -25 -9 5 -1 17 -4 60 -8 98 -5 58 -4
67 11 67 12 0 16 -10 17 -42 0 -24 5 -52 10 -63 6 -13 7 3 3 48 -4 46 -3 67 5
67 6 0 11 -13 11 -30 0 -16 5 -30 11 -30 8 0 9 13 5 41 -8 52 16 50 25 -2 l6
-34 2 35 c1 30 3 32 12 17 6 -10 8 -25 5 -32 -10 -28 24 -48 74 -43 42 4 47 3
42 -14 -5 -21 1 -22 31 -7 32 16 67 50 67 64 0 8 -14 6 -42 -8 -46 -23 -85
-30 -93 -17 -7 11 56 39 109 48 22 4 41 13 44 21 3 10 0 11 -16 2 -12 -6 -23
-7 -26 -3 -3 5 -32 10 -64 11 -64 2 -116 14 -138 32 -11 9 -15 8 -20 -5 -4
-10 -18 -16 -38 -16 -17 0 -40 -6 -51 -13 -32 -22 -86 -37 -109 -31 -61 15
-129 281 -96 371 26 68 85 71 216 9z m1744 -617 c0 -23 9 -40 33 -63 19 -17
49 -57 67 -90 42 -75 48 -157 13 -205 -16 -21 -21 -38 -17 -58 4 -20 -1 -36
-16 -56 -12 -15 -25 -27 -29 -27 -13 0 -36 161 -34 235 l2 70 -13 -55 -12 -55
-18 33 c-9 18 -16 41 -15 50 1 9 1 31 0 47 l-2 30 -13 -25 c-17 -32 -31 -156
-18 -164 12 -7 -39 -107 -53 -103 -18 6 -25 87 -10 123 8 19 10 34 5 34 -4 0
-11 -6 -13 -12 -3 -7 -6 1 -6 17 0 17 10 50 24 74 14 23 25 53 25 66 0 32 10
56 21 49 5 -3 9 8 9 25 0 29 42 91 61 91 5 0 9 -14 9 -31z m-10 -366 c0 -10 9
-38 21 -62 15 -34 22 -80 28 -195 8 -137 22 -209 57 -301 4 -9 -3 -11 -21 -7
-46 8 -101 163 -76 211 7 13 8 21 2 21 -28 0 -20 -114 14 -196 12 -29 12 -34
0 -34 -12 0 -26 31 -38 85 -3 12 -5 7 -6 -13 0 -18 3 -42 9 -52 7 -13 6 -19
-5 -24 -10 -4 -15 2 -16 17 l-2 22 -4 -22 c-2 -13 -11 -23 -19 -23 -10 0 -15
14 -16 48 l-1 47 -4 -42 c-6 -60 -23 -53 -25 10 l-2 52 -3 -47 c-3 -34 -8 -48
-19 -48 -7 0 -15 8 -15 18 -1 15 -2 15 -6 -1 -4 -14 -11 -17 -26 -13 -12 3
-33 6 -46 6 -18 0 -22 4 -15 18 4 9 23 60 41 112 32 93 33 94 29 42 -3 -31 -1
-50 4 -47 17 10 30 78 30 152 0 81 28 170 75 242 29 43 55 54 55 24z m-147
-574 c59 -10 65 -13 50 -24 -32 -23 -8 -25 47 -4 64 24 120 28 154 10 36 -20
66 -90 66 -154 0 -68 -16 -84 -92 -89 l-56 -3 -65 63 c-54 52 -71 62 -100 62
-45 0 -116 -25 -143 -51 l-22 -20 -12 51 c-7 28 -9 66 -6 85 8 39 65 95 93 90
10 -2 49 -9 86 -16z m313 -387 l51 -49 -2 -64 c-3 -81 -39 -170 -103 -258
-108 -149 -139 -228 -177 -459 -13 -84 -38 -223 -55 -308 -17 -85 -28 -159
-25 -164 3 -5 0 -12 -6 -16 -8 -5 -10 -51 -4 -170 7 -180 10 -170 -60 -245
-35 -38 -41 -41 -80 -37 -30 4 -70 24 -146 75 -140 94 -181 114 -218 107 -58
-12 -131 94 -117 171 7 33 44 73 150 159 80 64 130 143 170 263 86 264 155
527 158 603 1 39 2 41 5 11 19 -154 -143 -668 -275 -869 -9 -14 -12 -23 -6
-19 44 27 249 481 279 617 5 19 10 30 12 23 6 -18 -43 -195 -77 -276 -16 -39
-25 -66 -21 -61 21 20 83 179 115 290 32 115 41 158 68 347 10 69 15 87 28 84
12 -2 15 -16 13 -71 -3 -78 6 -79 24 -3 l12 52 -5 -47 c-3 -27 -3 -48 0 -48 2
0 12 24 21 53 18 54 31 75 40 65 5 -5 -10 -69 -33 -138 -2 -8 2 -6 11 5 8 11
23 47 32 80 10 33 26 78 36 100 9 22 20 47 23 55 3 8 4 -8 2 -37 -3 -29 -19
-85 -35 -125 -31 -73 -35 -96 -9 -56 36 57 63 145 63 205 1 79 17 100 34 43
15 -50 5 -89 -49 -193 -44 -85 -56 -140 -15 -67 94 166 115 241 78 282 -15 17
-15 18 1 18 21 0 66 -44 66 -65 0 -8 5 -15 10 -15 13 0 13 6 -5 40 -47 92
-137 73 -164 -35 -7 -28 -20 -51 -35 -60 -23 -15 -27 -15 -63 4 -21 11 -51 29
-68 40 -18 13 -46 21 -71 21 -28 0 -47 6 -58 19 -23 25 -32 93 -17 117 10 16
11 13 7 -19 -6 -46 8 -87 29 -87 15 0 15 1 1 16 -9 8 -16 28 -16 43 0 32 26
101 38 101 5 0 8 -25 8 -54 -1 -30 4 -59 9 -65 7 -7 9 5 7 34 -3 30 1 49 11
59 18 19 29 9 17 -15 -6 -11 -7 -32 -1 -56 l9 -38 1 47 c1 26 6 50 11 53 18
11 65 -38 63 -65 -1 -14 0 -18 4 -10 3 8 17 27 31 43 24 25 19 40 -6 15 -8 -8
-15 -8 -27 2 -24 20 -18 30 18 30 17 0 55 7 82 14 28 8 73 13 100 11 45 -3 55
-8 101 -53z m-2481 -1657 c-10 -155 -54 -454 -91 -610 -34 -145 -53 -201 -41
-120 4 22 11 82 17 133 6 51 23 152 39 225 36 162 51 302 52 506 l2 156 13
-100 c9 -60 12 -136 9 -190z m-1931 -1878 c3 -12 4 -22 3 -24 -2 -1 -21 4 -42
12 -22 8 -47 14 -55 14 -8 0 1 -6 22 -14 42 -15 88 -44 88 -55 0 -4 -21 3 -47
16 -27 13 -59 24 -71 24 -28 0 -182 -82 -221 -117 l-26 -24 25 7 c14 3 45 19
69 35 23 15 65 35 92 44 45 15 53 15 96 1 46 -16 113 -70 113 -90 0 -6 -4 -5
-9 2 -4 7 -6 -12 -5 -45 3 -58 3 -58 -6 -15 -17 81 -40 115 -94 137 -37 15
-50 17 -53 8 -3 -7 -18 -13 -34 -13 -17 0 -42 -6 -57 -14 -33 -17 -95 -80 -69
-71 9 4 17 10 17 14 0 4 18 18 41 30 39 22 81 25 154 9 28 -6 56 -68 62 -138
4 -38 10 -60 18 -60 8 0 11 -13 10 -37 -9 -143 -106 -238 -223 -217 -44 8
-125 47 -201 98 -51 33 -124 54 -153 43 -7 -2 3 -9 22 -15 l35 -10 -40 -2 -40
-2 40 -9 c22 -4 51 -8 65 -7 l25 0 -25 8 c-24 8 -24 8 -3 9 14 1 44 -20 82
-56 33 -32 83 -78 112 -103 55 -47 114 -121 146 -180 21 -42 113 -150 126
-150 5 0 -11 24 -36 53 -24 28 -66 88 -92 132 -27 44 -59 95 -73 113 -14 18
-22 35 -20 38 3 3 15 -10 27 -28 11 -18 21 -26 21 -19 0 12 3 12 12 3 20 -20
33 -14 14 7 -16 17 -16 19 4 24 16 4 27 -5 50 -38 16 -23 67 -73 112 -111 46
-37 85 -70 88 -73 3 -3 28 -26 55 -51 36 -32 30 -24 -20 29 -38 41 -85 88
-104 105 -54 48 -121 119 -132 139 -20 36 14 16 71 -40 32 -32 89 -87 128
-121 38 -35 78 -71 88 -80 54 -50 -84 97 -165 175 l-96 92 31 29 c18 16 39 43
48 60 9 18 18 32 20 32 2 0 22 -31 44 -68 41 -69 91 -127 62 -72 -19 36 -83
133 -95 145 -7 6 -8 26 -4 50 3 22 7 33 9 25 2 -8 4 -19 5 -25 2 -5 3 -17 4
-26 0 -9 35 -52 77 -95 59 -61 68 -68 38 -29 -21 28 -55 69 -76 92 -62 69 -43
63 30 -10 103 -103 128 -112 32 -11 -114 119 -118 128 -90 190 12 27 24 74 27
104 4 47 1 60 -19 90 -41 60 -42 71 -2 47 31 -20 66 -44 265 -186 52 -37 67
-56 95 -114 45 -95 88 -281 88 -382 0 -106 -49 -344 -74 -366 -11 -9 -16 -20
-12 -24 4 -5 -1 -5 -10 -2 -12 4 -15 2 -12 -7 9 -23 -16 -29 -39 -9 -22 18
-22 18 -4 -3 16 -19 23 -44 13 -44 -3 0 -17 11 -32 25 -34 32 -45 23 -14 -10
13 -14 19 -25 13 -25 -6 0 -16 7 -23 15 -7 8 -17 15 -23 15 -5 0 -3 -8 6 -18
23 -25 9 -36 -17 -15 -20 17 -20 17 -7 1 12 -16 11 -18 -13 -18 -18 0 -26 5
-27 18 0 10 -3 12 -6 5 -9 -24 -23 -13 -24 20 -2 30 -2 30 -6 5 -2 -16 -8 -28
-13 -28 -21 0 -40 13 -40 28 0 8 -3 12 -7 9 -11 -11 -53 34 -53 57 0 17 -2 18
-10 6 -8 -13 -10 -13 -10 2 0 11 -5 15 -15 12 -10 -4 -15 0 -15 11 0 9 -4 14
-9 10 -15 -9 -81 85 -87 125 -4 27 -17 46 -47 71 -23 19 -99 91 -170 161 -134
134 -157 148 -242 148 -22 0 -62 6 -90 13 -47 12 -51 16 -67 63 -21 59 -16
136 13 204 40 90 89 123 296 196 128 45 180 70 225 106 26 20 100 38 125 30 6
-2 14 -13 17 -25z"/>
<path d="M7680 6620 c0 -6 18 -17 40 -26 22 -9 40 -23 40 -31 0 -16 56 -73 71
-73 6 0 5 9 -1 21 -19 35 -2 33 19 -2 17 -27 21 -30 21 -14 1 18 1 19 11 3 5
-10 15 -18 20 -18 6 0 7 5 4 10 -11 17 17 11 32 -7 14 -17 14 -17 8 2 -5 16
-4 18 6 8 7 -7 19 -13 27 -13 12 0 12 3 2 15 -15 18 1 20 18 3 7 -7 12 -8 12
-2 0 6 -6 16 -12 23 -11 10 -10 11 5 5 13 -5 16 -2 11 10 -5 12 -2 15 10 10
20 -8 21 3 1 22 -12 12 -22 13 -52 5 -59 -17 -80 -14 -156 24 -68 34 -137 46
-137 25z"/>
<path d="M7994 11102 c4 -7 2 -19 -4 -27 -9 -11 -9 -15 -1 -15 6 0 12 6 12 13
1 6 5 -4 8 -23 8 -40 0 -55 -41 -76 -33 -17 -37 -34 -7 -34 19 0 21 -4 14 -37
-11 -59 -74 -255 -96 -296 -11 -21 -14 -35 -8 -32 6 4 19 27 29 50 25 59 110
312 110 329 0 11 20 26 35 26 2 0 6 -17 10 -38 10 -62 20 -64 19 -2 -1 36 -8
67 -18 81 -9 13 -16 36 -16 51 0 15 -4 30 -10 33 -5 3 -10 1 -10 -6 0 -8 -5
-7 -17 2 -12 10 -15 11 -9 1z"/>
<path d="M5050 10580 c0 -17 -3 -18 -25 -8 -21 9 -30 7 -65 -17 -45 -31 -48
-35 -21 -28 13 3 21 -1 24 -14 3 -11 3 -10 2 5 -3 32 13 27 18 -5 4 -27 4 -27
6 3 0 20 8 34 18 38 20 8 33 -10 33 -47 0 -23 -5 -29 -30 -34 -37 -7 -41 -13
-33 -43 6 -22 7 -22 20 -4 12 16 15 17 23 4 6 -8 8 -20 5 -27 -2 -7 3 -36 12
-65 13 -44 17 -49 24 -33 16 41 9 -64 -13 -182 -28 -151 -30 -444 -4 -563 23
-104 184 -566 172 -492 -3 18 -28 92 -56 165 -58 155 -86 256 -100 370 -15
123 -13 417 5 517 19 109 20 272 1 308 -9 18 -12 51 -10 100 2 39 1 72 -1 72
-3 0 -5 -9 -5 -20z"/>
<path d="M4780 10224 c-96 -31 -121 -48 -84 -56 22 -4 41 -76 54 -198 6 -52
17 -120 25 -150 12 -42 14 -46 10 -15 -3 22 -12 92 -20 155 -8 63 -19 131 -25
150 -12 41 -13 60 -2 60 9 0 53 -186 63 -270 7 -62 8 -61 4 20 -2 47 -14 125
-26 173 -19 79 -20 112 -3 94 4 -3 17 -53 29 -109 13 -57 24 -89 24 -72 1 17
-8 66 -19 109 -23 91 -22 85 -11 85 9 0 25 -35 40 -90 5 -19 9 -28 10 -20 1
17 -13 76 -24 103 -5 11 -3 17 8 17 8 0 18 -17 25 -42 l11 -43 -5 41 c-5 39
-3 43 23 52 25 9 21 10 -32 10 -33 0 -67 -2 -75 -4z"/>
<path d="M3497 9103 c-5 -18 -7 -46 -6 -61 2 -17 -3 -36 -14 -46 -9 -10 -16
-29 -16 -44 2 -27 2 -27 6 -2 6 31 30 49 68 50 40 0 76 -10 70 -20 -3 -5 -1
-12 5 -15 6 -4 9 -1 8 6 -2 6 3 14 11 17 11 3 12 0 6 -14 -17 -42 -16 -57 2
-25 10 19 23 34 28 33 6 0 16 5 24 11 12 10 13 8 9 -10 -8 -31 -2 -29 15 4 8
14 23 28 33 29 11 2 37 6 60 9 37 7 43 4 62 -20 27 -34 29 -95 6 -233 -20
-119 -14 -438 10 -544 17 -78 56 -189 87 -250 12 -23 28 -58 35 -77 l14 -36
-6 40 c-3 21 -18 64 -34 95 -77 150 -99 248 -107 485 -5 157 -3 196 16 307 22
126 21 178 -2 223 -6 11 -10 40 -9 65 1 46 -2 46 -12 -1 -5 -24 -11 -26 -100
-38 -59 -8 -124 -11 -175 -6 l-80 7 -3 46 c-3 46 -3 46 -11 15z"/>
<path d="M6045 9080 c-11 -18 7 -104 30 -146 17 -29 26 -65 31 -130 6 -69 10
-81 14 -54 9 52 23 -93 18 -190 -4 -66 -4 -62 -8 40 -3 92 -5 67 -10 -125 -4
-132 -15 -305 -24 -385 -8 -80 -25 -266 -36 -415 -11 -148 -23 -286 -26 -305
-5 -29 -38 -210 -58 -310 -2 -14 -14 -65 -26 -115 -36 -148 -18 -229 60 -264
l39 -17 -44 -35 c-25 -19 -53 -52 -64 -74 -29 -58 -44 -166 -38 -262 4 -69 9
-89 27 -108 l22 -24 -36 -31 c-22 -20 -40 -47 -47 -73 -13 -47 -8 -152 8 -168
6 -6 8 16 5 72 -4 65 -1 89 12 114 23 41 51 58 76 45 10 -5 29 -10 43 -10 22
0 67 -39 67 -59 0 -5 12 -19 26 -30 20 -16 42 -21 83 -21 45 -1 52 -3 37 -12
-19 -10 -102 -6 -141 7 -16 6 -15 4 5 -11 14 -11 47 -20 81 -22 l56 -4 -12
-27 c-19 -38 -28 -151 -18 -228 8 -68 8 -68 14 57 6 140 23 204 56 219 l22 10
-20 -57 c-11 -31 -22 -84 -24 -117 l-5 -60 20 72 c10 40 23 81 28 90 5 10 12
34 16 55 4 20 14 39 22 42 13 5 15 2 9 -16 -30 -99 -55 -209 -60 -266 l-5 -67
24 100 c25 102 81 261 96 270 5 3 43 8 85 12 107 9 149 46 112 97 -11 15 -10
25 10 64 24 49 29 112 19 237 -4 60 -22 115 -37 115 -18 0 -17 -20 3 -71 49
-126 -2 -330 -82 -329 -8 0 -35 10 -60 22 -43 20 -44 21 -20 28 18 6 8 8 -36
9 -80 1 -182 -30 -215 -65 l-24 -27 24 6 c28 7 15 -9 -14 -17 -11 -3 7 -2 40
1 74 7 113 5 134 -7 11 -6 -7 -9 -57 -9 -41 1 -76 -2 -79 -5 -4 -3 15 -6 40
-6 58 0 60 -15 5 -40 -74 -34 -126 -23 -166 33 l-22 32 40 6 c23 3 51 15 62
27 l22 22 -66 -7 c-44 -4 -67 -2 -72 6 -4 6 -19 11 -33 11 -15 0 -23 -3 -19
-7 4 -4 17 -8 28 -8 12 0 23 -6 25 -12 7 -20 -41 -15 -69 7 -36 28 -51 94 -46
197 6 107 34 179 89 226 31 27 55 36 127 50 49 9 120 17 158 17 l68 0 -54 55
c-36 36 -58 51 -64 45 -6 -6 -21 -10 -36 -10 -14 -1 -36 -7 -50 -15 -26 -15
-59 -20 -46 -7 4 4 12 7 17 7 15 0 10 13 -21 57 -16 22 -30 39 -30 37 0 -2 4
-19 9 -37 12 -41 6 -41 -19 1 -23 38 -26 30 -6 -18 19 -44 2 -46 -24 -2 -22
35 -25 33 -10 -7 8 -21 7 -24 -7 -19 -11 4 -14 3 -9 -5 12 -20 -10 -13 -29 8
-24 27 -32 124 -16 196 7 29 14 64 15 76 2 13 6 30 9 38 10 23 55 313 67 430
6 58 17 164 25 235 8 72 19 209 26 305 6 96 15 193 19 215 14 72 11 -166 -5
-375 -8 -108 -14 -218 -14 -245 1 -28 -6 -79 -15 -115 -8 -36 -15 -81 -14
-100 1 -19 -2 -62 -6 -95 -5 -33 -6 -58 -3 -55 11 10 49 289 52 380 2 52 8
147 13 210 15 164 36 840 28 934 -7 93 1 96 14 5 l9 -64 -3 68 c-1 48 2 67 10
67 22 0 28 -42 27 -205 0 -145 1 -153 9 -85 5 41 7 126 4 188 -4 92 -3 112 9
112 25 0 37 -133 23 -255 l-7 -60 15 55 c15 58 22 220 10 258 -6 16 -3 22 8
22 9 0 19 -12 22 -26 7 -27 -2 -267 -12 -327 -4 -24 -3 -28 5 -16 19 29 33
159 29 275 -1 62 0 114 5 114 4 0 7 -3 8 -7 0 -5 4 -44 9 -88 6 -57 4 -112 -6
-194 -8 -62 -13 -115 -11 -117 12 -13 32 160 32 283 0 103 3 144 12 147 23 9
25 -15 20 -182 -4 -129 -3 -152 4 -102 5 36 11 113 12 172 l2 108 42 0 c40 0
41 1 38 29 -6 44 -25 111 -32 111 -7 0 3 -77 13 -104 6 -16 3 -17 -27 -10 -54
13 -107 5 -162 -23 -36 -18 -69 -27 -104 -27 -44 -1 -56 3 -83 29 -38 36 -48
59 -51 119 -3 49 -4 52 -14 36z"/>
<path d="M6741 9017 c-1 -10 -5 -15 -11 -12 -5 3 -7 0 -4 -9 9 -22 -53 -232
-96 -326 -56 -123 -65 -190 -64 -505 1 -260 2 -281 42 -560 22 -160 52 -335
66 -390 24 -97 42 -205 29 -175 -3 8 -21 69 -39 135 -18 66 -33 113 -33 104
-1 -9 13 -70 29 -135 17 -66 32 -144 35 -174 l5 -55 -15 40 c-9 22 -32 99 -50
170 -41 154 -44 139 -9 -35 34 -169 44 -269 34 -314 -10 -45 -57 -99 -74 -86
-6 5 -30 25 -52 44 -52 45 -118 75 -181 82 -26 3 -61 7 -78 9 -22 4 -26 2 -15
-5 8 -5 26 -10 40 -10 22 -1 23 -2 8 -11 -22 -12 -103 25 -92 43 5 7 3 8 -5 4
-7 -5 -22 0 -34 10 -12 10 -9 4 7 -14 17 -17 27 -32 23 -32 -4 0 0 -11 9 -25
9 -14 21 -25 27 -25 6 0 0 12 -13 28 -14 15 11 -7 55 -48 44 -41 83 -81 88
-87 4 -7 13 -13 20 -13 7 0 30 -12 52 -27 22 -15 34 -19 27 -11 -7 9 -32 26
-55 37 -27 14 -35 21 -22 21 29 0 122 -56 141 -86 22 -33 43 -17 26 20 -10 23
-9 25 17 31 39 8 85 59 121 134 31 64 31 65 28 200 -3 102 -13 185 -41 331
-67 355 -107 699 -107 914 0 188 20 307 79 484 55 165 95 317 88 335 -3 7 -6
4 -6 -6z"/>
<path d="M5221 8932 c0 -13 -15 -41 -33 -63 -26 -32 -38 -39 -67 -39 -44 0
-111 -18 -111 -29 0 -8 74 4 91 14 14 9 39 -7 39 -26 0 -16 -8 -19 -55 -19
-30 0 -55 -4 -55 -9 0 -6 15 -7 34 -4 19 3 51 2 70 -1 98 -19 117 -259 31
-396 -16 -25 -32 -80 -47 -161 -31 -168 -31 -432 0 -589 l21 -105 -5 75 c-3
41 -10 102 -15 135 -10 69 -12 199 -2 233 4 18 8 21 15 10 6 -8 8 8 5 47 -2
33 1 87 8 120 12 55 13 45 9 -120 -3 -99 -7 -189 -9 -199 -15 -72 58 -646 101
-801 23 -85 122 -310 132 -300 2 2 -18 53 -46 112 -28 59 -61 149 -73 198 -21
91 -40 241 -29 227 4 -4 17 -56 29 -117 31 -149 51 -205 137 -383 68 -142 81
-184 32 -108 -11 17 -17 22 -13 11 18 -51 28 -155 18 -178 -13 -27 -60 -35
-263 -42 -63 -3 -135 -11 -160 -19 l-45 -15 47 6 c59 7 232 -23 278 -49 19
-11 27 -17 17 -14 -55 17 -159 28 -226 24 -66 -4 -92 -11 -180 -52 -56 -27
-116 -49 -134 -50 -27 -1 -35 4 -49 34 -25 48 -24 210 2 365 19 118 24 162 16
154 -16 -16 -57 -279 -59 -374 -1 -122 10 -169 49 -206 22 -21 28 -22 65 -12
l40 10 -17 -25 c-57 -86 -59 -94 -63 -208 -3 -116 -1 -126 55 -226 11 -21 12
-33 4 -47 -5 -11 -10 -30 -10 -43 0 -22 44 -128 54 -128 2 0 -4 25 -15 55 -10
30 -19 69 -19 86 0 31 0 32 41 26 50 -7 155 -75 187 -121 12 -18 22 -46 22
-64 0 -62 17 -40 23 31 10 119 83 297 145 355 20 19 27 30 16 24 -18 -9 -53
-46 -93 -98 -18 -23 -28 -50 -23 -63 2 -8 0 -11 -6 -7 -5 3 -17 -12 -26 -34
-19 -49 -20 -53 -3 -44 6 4 2 -3 -10 -15 -25 -23 -32 -41 -10 -23 11 9 11 3 3
-33 -8 -34 -13 -42 -23 -33 -7 6 -17 25 -22 42 -7 26 -4 35 19 61 16 17 31 46
34 65 l6 35 -15 -32 c-27 -59 -32 -42 -7 27 24 69 82 150 107 150 7 0 18 7 25
15 20 24 -3 18 -67 -16 -64 -35 -73 -44 -108 -111 -14 -26 -34 -52 -44 -58
-25 -13 -85 -12 -136 4 -43 12 -85 63 -85 100 0 15 6 9 19 -19 22 -48 38 -63
79 -71 41 -8 42 9 3 26 -53 22 -59 36 -51 126 4 44 14 94 22 110 9 16 13 35
10 43 -3 8 0 11 7 7 6 -4 11 -2 11 4 0 25 -26 2 -47 -42 -23 -48 -29 -99 -17
-158 5 -29 4 -33 -7 -22 -19 18 -15 137 5 187 9 21 15 40 12 42 -7 7 -38 -81
-47 -132 -8 -47 -8 -46 -3 15 7 102 21 138 76 197 49 51 91 77 52 31 l-19 -22
28 17 c42 27 209 79 219 69 5 -5 -8 -12 -32 -15 -35 -4 -155 -56 -148 -63 2
-1 35 8 73 22 45 15 93 24 136 24 72 0 160 -22 179 -45 11 -13 8 -13 -23 0
-62 26 -127 36 -180 28 -51 -8 -51 -8 38 -14 65 -4 102 -12 135 -29 65 -33
132 -97 152 -144 17 -41 17 -41 18 -11 l2 30 10 -35 c6 -19 8 -66 5 -105 -5
-65 -4 -68 9 -40 21 47 17 117 -12 195 -36 96 -92 158 -179 194 -36 16 -64 30
-62 32 1 2 27 -3 57 -11 78 -21 113 -19 137 8 33 36 45 66 54 141 11 82 0 144
-38 221 -72 144 -181 466 -215 635 -13 63 -25 116 -28 118 -3 1 -4 23 -3 50 1
42 1 44 -6 12 -6 -30 -9 -21 -21 65 -21 149 -18 374 11 670 9 92 17 133 37
175 23 48 26 67 25 148 -1 82 -4 100 -30 150 -15 31 -37 61 -48 67 -27 14 -25
39 6 67 29 27 53 88 46 115 -3 13 -5 12 -6 -5z"/>
<path d="M4551 8847 c-1 -24 18 -59 41 -75 10 -7 18 -17 18 -22 0 -5 -23 -32
-51 -61 l-52 -51 7 -114 c6 -108 23 -220 32 -211 3 2 -2 50 -11 105 -28 188
-18 240 53 276 38 19 122 29 122 14 0 -8 24 -9 80 -5 44 4 80 3 81 -1 0 -4 2
-42 4 -86 2 -43 7 -81 10 -85 4 -3 5 24 3 61 -1 36 -1 65 1 63 2 -2 20 5 39
16 20 10 51 19 69 19 18 0 33 5 33 10 0 6 -7 10 -16 10 -27 0 -94 -23 -94 -32
0 -14 -28 -9 -34 7 -7 20 30 35 85 35 37 0 39 1 29 21 -8 15 -18 19 -33 15
-12 -3 -42 -8 -67 -11 -43 -6 -44 -6 -20 9 14 8 42 18 62 21 20 4 42 12 47 19
14 17 -116 10 -207 -10 -84 -19 -162 -18 -190 1 -12 9 -26 30 -31 48 -5 18
-10 24 -10 14z"/>
<path d="M4861 8396 c-15 -17 -36 -22 -26 -6 8 13 4 13 -38 -5 -20 -8 -40 -21
-44 -29 -4 -8 -36 -28 -71 -44 -50 -24 -59 -32 -44 -36 11 -4 27 -26 37 -54
26 -70 39 -76 32 -17 -3 28 -7 57 -9 64 -5 21 19 24 25 4 3 -10 17 -58 32
-108 34 -117 73 -296 90 -415 9 -66 13 -81 14 -50 0 25 -8 107 -18 182 -11 76
-18 146 -17 155 2 11 1 12 -2 3 -2 -8 -15 28 -29 80 -29 115 -38 148 -47 178
-5 13 -3 22 3 22 6 0 11 -6 11 -14 0 -8 5 -27 11 -43 7 -15 13 -41 16 -58 2
-16 10 -50 18 -75 l15 -45 -6 55 c-4 30 -9 59 -12 65 -13 22 -11 62 3 62 10 0
13 -8 11 -22 -2 -12 4 -51 14 -86 9 -35 21 -95 26 -134 12 -107 17 -39 5 80
-11 106 -4 176 11 105 5 -24 6 -14 3 29 -2 35 -9 67 -15 71 -8 5 -7 9 5 14 15
6 15 7 0 23 -15 15 -15 17 -1 25 21 12 36 2 36 -25 0 -20 0 -20 14 -1 8 10 18
16 22 11 4 -4 2 -7 -5 -7 -7 0 -10 -8 -7 -17 2 -10 7 -49 11 -87 4 -38 10 -64
14 -58 4 7 20 -8 42 -40 19 -28 41 -54 49 -56 10 -3 8 3 -6 19 -24 27 -86 140
-80 146 2 2 18 -19 36 -47 18 -28 42 -56 54 -62 19 -10 18 -7 -6 24 -50 66
-88 139 -88 170 0 29 3 26 30 -28 16 -33 44 -73 62 -89 l32 -30 -27 35 c-24
30 -77 131 -77 145 0 3 13 5 28 5 21 0 32 -7 41 -26 6 -15 14 -24 17 -21 3 3
0 15 -6 28 -12 21 -11 22 29 16 22 -3 41 -3 41 -2 0 10 -85 27 -160 32 -71 4
-88 2 -99 -11z"/>
<path d="M4655 8059 c-3 -14 -2 -53 4 -85 6 -32 17 -149 26 -259 9 -110 20
-247 26 -305 16 -168 36 -491 33 -545 l-3 -50 10 55 c11 57 -2 347 -21 500
-14 115 -41 502 -35 508 3 3 5 0 5 -5 0 -6 9 -87 20 -180 59 -515 69 -784 36
-958 -8 -38 -12 -72 -10 -74 2 -2 11 13 20 35 23 54 36 348 24 526 -20 282
-87 756 -119 841 -9 22 -9 22 -16 -4z"/>
<path d="M3566 7979 c-4 -22 -20 -70 -36 -106 -31 -68 -38 -117 -19 -128 7 -5
5 -13 -5 -24 -32 -35 -49 -95 -49 -171 0 -68 4 -83 40 -155 36 -71 43 -97 62
-230 12 -82 32 -211 46 -285 29 -163 61 -571 51 -665 -4 -37 -13 -99 -21 -137
-34 -158 -11 -244 89 -336 32 -28 64 -52 73 -52 11 0 13 -5 8 -17 -11 -25 -24
-102 -24 -142 -1 -41 5 -38 12 6 13 82 77 174 157 222 41 24 33 28 -13 6 -29
-15 -30 -15 -12 0 29 23 111 45 170 45 142 0 250 -82 268 -205 l7 -40 -19 41
c-11 23 -25 45 -32 49 -8 6 -10 4 -4 -6 5 -8 -20 11 -56 42 -35 31 -80 66 -99
78 -42 25 -77 29 -39 3 14 -9 60 -48 102 -86 73 -67 106 -114 93 -135 -4 -5
-2 -12 4 -16 7 -4 8 -70 5 -193 -9 -301 11 -411 144 -802 101 -298 148 -407
80 -188 -17 54 -29 101 -27 104 3 2 17 -25 33 -61 16 -38 31 -62 38 -58 6 4 8
0 4 -11 -4 -11 -3 -15 4 -10 8 4 9 -1 4 -17 -4 -13 -4 -21 1 -16 4 4 24 -22
44 -58 38 -68 69 -109 53 -70 -5 11 -25 53 -46 93 -69 133 -73 162 -9 55 23
-38 53 -81 67 -98 31 -36 25 -22 -30 65 -76 120 -183 334 -213 430 -17 52 -33
129 -37 170 -4 43 -20 107 -36 150 -33 87 -35 108 -13 210 12 58 14 106 9 210
-10 221 -34 303 -101 342 -31 18 -33 22 -21 37 97 111 57 342 -87 499 -29 31
-58 66 -64 77 -6 11 -12 15 -12 9 0 -6 18 -35 40 -65 56 -77 121 -187 139
-234 19 -52 21 -186 2 -208 -19 -24 -34 -21 -21 4 6 11 9 28 7 37 -4 13 -5 11
-6 -5 -2 -41 -42 -60 -144 -66 -76 -4 -109 -11 -168 -37 -41 -18 -90 -38 -109
-46 -19 -7 -28 -13 -20 -14 12 0 10 -4 -4 -15 -12 -9 -28 -12 -40 -9 -18 6
-19 5 -7 -10 24 -29 0 -17 -43 21 -54 48 -77 83 -70 108 4 14 3 16 -4 7 -7
-11 -11 -8 -15 10 -12 44 -7 131 14 242 17 88 21 134 16 221 -4 100 -4 107 8
70 8 -22 14 -89 15 -150 3 -158 17 -198 19 -52 0 64 -6 161 -13 215 -8 53 -20
165 -26 247 -10 134 -16 164 -56 284 -31 95 -48 164 -55 234 -11 109 -27 165
-70 246 -37 69 -38 130 -5 205 29 66 49 74 130 53 37 -10 70 -28 96 -51 37
-33 83 -49 78 -26 -2 5 19 30 46 55 74 67 151 74 181 15 21 -41 18 -50 -6 -20
-14 16 -19 19 -15 8 3 -10 1 -18 -3 -18 -15 0 -7 -65 12 -93 24 -36 36 -34 31
6 -4 24 -2 28 6 17 7 -11 8 -1 4 35 -7 54 -24 94 -48 114 -11 9 -13 19 -5 37
17 45 10 61 -11 26 -21 -34 -89 -71 -174 -94 -44 -12 -149 -2 -127 11 7 5 -16
9 -51 10 -90 2 -101 5 -117 32 -12 22 -11 32 18 96 28 65 52 163 39 163 -3 0
-8 -18 -12 -41z"/>
<path d="M3713 7485 c-20 -19 -43 -35 -50 -35 -17 0 -53 -36 -53 -52 1 -7 8
-2 16 12 l15 25 -5 -32 c-3 -18 -3 -69 1 -113 5 -66 8 -78 20 -69 10 9 12 31
7 99 -4 57 -3 94 4 106 9 15 11 0 12 -68 0 -48 5 -90 10 -93 6 -4 8 -10 6 -14
-9 -14 51 -317 61 -307 2 2 -7 60 -21 129 -29 137 -45 323 -27 297 6 -8 11
-27 11 -42 0 -46 20 -32 21 15 0 23 7 58 14 77 l13 35 1 -59 c1 -52 3 -57 17
-45 12 10 14 25 8 76 -4 44 -3 63 5 63 6 0 11 -19 12 -47 0 -27 2 -66 5 -88 3
-22 9 -78 13 -125 l9 -85 0 118 c0 68 -4 117 -10 117 -5 0 -6 6 -1 13 4 6 8
25 8 41 1 59 20 35 21 -26 0 -35 5 -108 12 -163 l11 -100 -5 141 c-3 77 -2
148 2 157 12 33 19 16 15 -40 -3 -55 17 -208 26 -199 3 2 0 46 -6 96 -7 50 -9
107 -5 126 5 29 12 36 45 46 45 13 66 32 48 44 -7 4 -9 3 -5 -4 12 -20 -57
-24 -121 -8 -93 24 -117 21 -160 -19z"/>
<path d="M4035 7463 c-6 -35 -8 -37 -21 -18 -13 17 -14 17 -14 1 0 -9 5 -26
11 -38 6 -11 15 -92 20 -181 5 -89 15 -229 23 -312 8 -82 17 -209 21 -282 3
-72 9 -143 13 -157 12 -45 2 272 -13 409 -8 72 -17 186 -20 255 -3 69 -11 154
-16 189 -7 46 -7 78 2 113 6 27 9 51 6 54 -2 3 -8 -12 -12 -33z"/>
<path d="M7568 6151 c-73 -24 -116 -51 -166 -105 -60 -65 -92 -134 -98 -214
-2 -37 -7 -76 -10 -87 -4 -15 -3 -17 5 -6 5 8 12 45 16 83 4 38 13 75 21 83 8
7 14 18 14 23 0 15 61 87 71 85 5 -2 9 3 9 10 0 8 10 22 21 33 l22 19 -6 -45
c-4 -30 -3 -38 3 -25 5 11 9 32 9 46 1 29 31 64 31 36 0 -9 -7 -44 -14 -79 -8
-35 -17 -99 -20 -143 l-6 -80 15 75 c7 41 19 114 26 162 l12 87 47 16 c49 16
116 23 127 12 6 -7 -11 -131 -23 -161 -3 -9 -2 -16 4 -16 15 0 21 24 28 101 7
66 8 69 33 69 l26 1 -27 15 c-45 24 -107 26 -170 5z"/>
<path d="M5377 5829 c-74 -208 -90 -335 -67 -514 5 -38 5 -99 1 -135 -5 -43
-2 -138 10 -280 22 -251 33 -326 65 -435 28 -98 30 -84 5 33 -18 81 -34 209
-44 362 -6 88 5 37 39 -180 29 -189 49 -275 106 -450 44 -136 68 -188 147
-323 67 -115 85 -171 79 -250 -4 -53 -3 -58 7 -34 7 17 9 51 4 95 -6 55 -18
89 -73 197 -36 72 -57 120 -47 108 28 -33 36 -28 12 6 -12 16 -18 36 -15 44 3
9 1 24 -6 34 -9 15 -10 13 -5 -12 5 -29 4 -28 -20 10 -14 22 -25 45 -25 52 0
6 -4 13 -10 15 -21 7 -133 449 -118 464 3 2 11 -22 18 -53 21 -98 95 -314 133
-388 19 -38 62 -115 96 -170 79 -130 105 -205 99 -293 -2 -40 -13 -84 -25
-109 -19 -39 -20 -43 -4 -57 15 -14 18 -10 35 46 13 43 17 83 14 137 -4 89
-26 143 -132 326 -86 150 -107 196 -145 328 -82 281 -110 640 -88 1147 4 91 3
119 -3 87 -13 -73 -19 -227 -20 -506 0 -140 -2 -252 -5 -249 -15 14 -25 308
-16 463 6 94 12 224 14 290 l5 120 -14 -100 c-7 -55 -18 -170 -24 -255 -6 -85
-14 -180 -18 -210 l-7 -55 -3 70 c-3 62 10 278 23 390 3 31 1 28 -9 -15 -11
-45 -14 -49 -15 -24 -1 45 37 228 49 232 6 2 10 12 10 22 0 11 9 43 20 71 12
29 20 59 18 67 -2 8 -24 -45 -51 -119z"/>
<path d="M3784 5452 c3 -27 19 -67 45 -110 22 -37 50 -96 63 -132 13 -36 49
-108 80 -160 31 -52 70 -129 87 -170 29 -71 140 -445 142 -479 0 -9 3 -11 5
-5 6 15 -50 296 -77 387 -11 37 -17 72 -13 79 4 7 3 8 -4 4 -7 -4 -12 -1 -12
6 0 27 -69 155 -125 233 -32 44 -70 107 -83 140 -13 33 -39 83 -58 110 -19 28
-39 71 -44 95 l-9 45 3 -43z"/>
<path d="M3884 5473 c-26 -5 -35 -33 -24 -72 4 -15 39 -70 78 -121 39 -51 86
-122 105 -158 30 -55 34 -60 33 -34 0 16 -5 28 -9 25 -5 -3 -7 1 -6 8 5 24
-12 60 -23 53 -8 -5 -9 -1 -5 10 4 9 3 15 -2 11 -5 -3 -28 28 -50 69 -41 73
-55 118 -26 80 13 -16 14 -16 9 -1 -3 9 -1 17 5 17 6 0 11 -4 11 -8 0 -5 15
-33 33 -63 31 -53 55 -104 112 -242 16 -37 29 -66 31 -64 7 7 -89 255 -125
323 -44 81 -45 84 -33 84 9 0 88 -162 138 -282 56 -134 32 -48 -40 145 -14 37
-26 73 -26 80 0 23 46 -68 80 -160 19 -51 36 -91 38 -89 7 8 -32 126 -74 218
-47 104 -48 108 -36 108 7 0 46 -78 130 -260 11 -23 12 -22 6 10 -10 57 -60
178 -89 216 -22 29 -25 38 -14 45 8 5 16 9 19 9 3 0 21 -36 40 -79 19 -43 38
-77 43 -74 4 2 7 -4 7 -14 0 -14 2 -15 9 -4 5 7 11 9 13 5 3 -5 3 -3 1 4 -1 8
-3 30 -3 50 0 26 -3 33 -9 23 -7 -11 -12 -6 -19 20 -10 34 -10 34 -11 5 -1
-28 -2 -28 -24 15 -28 51 -19 59 40 34 36 -15 37 -15 20 2 -19 19 -106 23
-204 8 -50 -7 -54 -6 -88 24 -20 17 -37 30 -38 30 -1 -1 -12 -4 -23 -6z"/>
<path d="M8975 4891 c-16 -10 -39 -28 -50 -41 -30 -33 -130 -99 -176 -116 -44
-15 -89 -18 -127 -8 -24 7 -25 31 -1 26 8 -1 3 7 -11 18 -64 53 -79 68 -74 73
3 2 -2 7 -10 10 -22 9 -9 -22 26 -59 23 -25 28 -38 25 -67 -4 -31 -1 -37 14
-37 11 0 19 -4 19 -9 0 -17 -91 -203 -153 -313 -35 -62 -76 -136 -90 -163 -29
-59 -139 -208 -172 -234 -50 -38 -168 -153 -135 -130 19 13 69 55 110 94 47
44 60 53 36 26 -21 -24 -100 -100 -175 -168 -133 -122 -291 -294 -291 -317 0
-6 7 -2 15 9 31 45 175 194 244 255 203 178 382 370 346 370 -17 0 -18 -2 33
77 65 102 131 215 177 305 27 53 51 95 52 94 9 -9 -77 -191 -152 -321 -26 -45
-27 -48 -6 -30 33 29 81 115 140 251 55 127 94 194 112 194 7 0 9 -11 7 -25
-7 -36 10 -31 28 8 12 24 33 42 73 63 31 16 58 30 61 31 3 2 12 -13 19 -33 7
-19 15 -33 17 -31 3 2 -2 23 -9 46 -8 22 -12 41 -8 41 9 0 31 -61 31 -86 0
-11 6 -29 14 -39 11 -16 9 -26 -21 -79 -19 -34 -47 -74 -62 -91 -27 -28 -133
-185 -126 -185 5 0 157 188 193 238 17 26 32 57 32 69 0 14 6 23 15 23 21 0
19 13 -5 35 -12 11 -20 31 -20 50 0 49 28 132 55 161 38 41 30 46 -20 15z"/>
<path d="M7225 4063 c-26 -138 -62 -438 -55 -457 6 -16 10 -7 15 42 4 34 11
62 15 62 12 0 63 -110 55 -118 -4 -4 -15 4 -26 17 -21 25 -25 21 -9 -10 6 -10
17 -19 24 -19 8 0 19 -13 25 -30 15 -44 19 -37 10 18 -4 26 -3 134 2 241 7
164 6 197 -6 214 -12 18 -15 18 -15 5 0 -9 5 -20 10 -23 6 -3 10 -18 10 -32 0
-21 -2 -24 -15 -13 -20 16 -19 6 1 -14 8 -9 12 -21 8 -27 -3 -6 -8 -68 -11
-137 -3 -70 -6 -128 -7 -129 -1 -2 -15 16 -30 39 l-27 42 11 124 c6 69 16 149
21 179 6 30 8 57 6 59 -3 3 -8 -12 -12 -33z"/>
<path d="M6471 3555 c-2 -22 -7 -51 -11 -65 -7 -23 -8 -23 -10 10 -2 26 -5 19
-11 -27 -4 -34 -12 -70 -18 -80 -8 -14 -9 -8 -5 22 4 36 2 34 -21 -25 -14 -36
-27 -69 -28 -75 -1 -5 -13 -25 -26 -43 -34 -49 -19 -50 23 -1 32 38 48 66 84
149 l11 25 0 -25 c1 -20 3 -22 11 -10 8 12 10 12 10 -5 1 -18 2 -17 15 5 13
22 14 23 15 5 1 -44 20 14 25 77 2 35 2 55 -1 46 -3 -10 -10 -18 -15 -18 -5 0
-9 -8 -9 -17 -1 -10 -8 -31 -16 -48 -8 -16 -12 -22 -10 -13 3 9 7 34 11 55 4
27 3 32 -4 18 -7 -16 -10 -10 -13 30 -4 48 -4 49 -7 10z"/>
<path d="M6443 3048 c2 -59 0 -66 -37 -113 -57 -73 -79 -129 -82 -210 -1 -38
0 -58 2 -42 6 32 24 37 24 6 0 -11 5 -30 12 -42 7 -12 13 -28 14 -35 1 -8 5
-16 8 -20 11 -10 6 24 -14 99 -22 85 -23 89 -12 89 5 0 14 -18 21 -39 6 -21
20 -50 31 -63 l19 -23 -5 30 c-3 17 -14 50 -25 74 -21 48 -25 86 -9 96 6 3 10
0 10 -7 0 -19 34 -98 43 -98 4 0 7 1 7 3 0 8 -47 135 -55 147 -8 13 -7 13 11
0 10 -8 20 -15 22 -16 2 -1 5 -14 8 -30 3 -15 10 -35 15 -43 8 -12 9 -10 4 9
-19 80 -20 103 -6 128 12 23 12 162 -1 162 -3 0 -5 -28 -5 -62z"/>
<path d="M5810 3004 c0 -29 11 -71 31 -115 16 -39 35 -97 41 -130 10 -60 4
-88 -12 -58 -5 9 -19 27 -30 40 l-21 24 20 -42 c12 -23 25 -44 31 -48 5 -3 10
-15 10 -25 0 -15 -5 -13 -30 12 -17 17 -33 28 -36 25 -4 -3 9 -21 28 -39 l33
-34 -13 -69 c-18 -95 -11 -249 12 -295 44 -86 112 -120 235 -120 79 0 135 23
176 71 15 19 33 33 38 31 5 -2 7 4 4 13 -4 8 -4 22 0 30 5 14 8 14 24 -1 25
-23 26 1 2 29 -17 19 -17 20 0 14 21 -8 23 15 2 33 -8 7 -15 17 -15 23 0 5 8
3 18 -6 20 -18 42 -22 42 -9 0 14 -35 42 -52 42 -10 0 -20 -20 -31 -60 -39
-139 -169 -203 -312 -154 -39 13 -49 13 -63 2 -15 -11 -15 -11 -5 2 10 13 8
18 -6 27 -10 7 -28 31 -40 55 -29 62 -28 158 5 295 37 153 32 231 -26 376 -24
59 -47 107 -52 107 -4 0 -8 -21 -8 -46z"/>
<path d="M4549 2506 c-46 -14 -134 -71 -159 -104 -13 -16 -20 -38 -19 -66 1
-25 3 -32 6 -16 11 69 37 96 140 149 79 40 126 27 225 -60 53 -47 68 -67 68
-88 0 -40 -52 -137 -110 -206 -27 -32 -50 -64 -50 -70 0 -5 11 4 23 20 12 17
45 55 74 87 65 71 83 106 83 160 l0 43 20 -25 c38 -49 44 -68 32 -92 -12 -23
-12 -23 -7 2 3 14 2 19 -1 12 -3 -6 -10 -9 -16 -6 -5 4 -5 -3 2 -16 18 -34 5
-64 -53 -116 -57 -53 -113 -122 -105 -129 3 -3 17 12 31 33 15 21 51 58 81 82
31 25 64 62 75 83 17 35 20 36 26 17 12 -39 -39 -125 -106 -176 -32 -25 -59
-49 -59 -54 0 -11 66 5 93 23 59 40 106 113 107 165 0 66 -24 117 -82 174 -32
32 -73 65 -90 74 -18 9 -35 20 -38 23 -21 25 -63 52 -105 69 -41 15 -56 17
-86 8z"/>
<path d="M5407 2003 c-29 -81 -21 -120 38 -201 40 -54 107 -97 181 -118 60
-16 114 -14 114 6 0 5 -17 18 -37 29 -38 20 -38 20 -10 21 39 0 25 16 -20 23
-21 4 -55 15 -76 26 -40 20 -62 10 -31 -14 21 -16 8 -20 -16 -5 -10 6 -21 4
-35 -8 -19 -16 -19 -16 -6 1 12 16 10 21 -26 52 -41 34 -63 85 -63 143 0 46
10 62 39 62 25 1 25 1 7 15 -31 24 -41 18 -59 -32z"/>
<path d="M6846 1857 c-47 -40 -53 -37 -17 8 8 11 0 6 -19 -11 -19 -18 -79 -62
-132 -99 -93 -63 -122 -94 -78 -82 11 3 20 1 20 -4 0 -5 19 0 42 12 30 16 39
17 30 6 -7 -8 -9 -17 -5 -20 11 -7 136 66 135 78 0 6 4 16 10 23 6 6 7 12 2
12 -4 0 14 23 41 51 l50 52 -62 -49 c-33 -27 -76 -57 -95 -67 l-33 -18 35 28
c44 35 137 123 130 122 -3 0 -27 -19 -54 -42z"/>
<path d="M5350 1745 c0 -9 111 -76 148 -90 l37 -14 -37 0 c-20 -1 -48 3 -62 9
-16 6 -26 6 -26 0 0 -5 15 -12 33 -15 130 -21 133 -24 17 -21 -130 4 -163 14
-272 86 l-63 42 40 -36 c101 -91 200 -122 360 -112 70 4 116 2 153 -7 57 -15
70 -12 21 5 -48 17 -27 20 26 3 57 -17 68 -13 28 10 l-28 16 34 -7 c19 -3 48
-15 65 -25 39 -24 52 -24 59 0 3 14 -6 23 -46 39 l-49 21 18 -21 c19 -21 19
-21 -3 -9 -13 6 -23 10 -23 7 0 -3 -15 1 -32 8 -18 8 -71 17 -118 20 -98 8
-164 27 -232 67 -26 16 -48 26 -48 24z"/>
</g>
</svg>
