<?xml version="1.0" standalone="no"?>
<!DOCTYPE svg PUBLIC "-//W3C//DTD SVG 20010904//EN"
 "http://www.w3.org/TR/2001/REC-SVG-20010904/DTD/svg10.dtd">
<svg version="1.0" xmlns="http://www.w3.org/2000/svg"
 width="1461.000000pt" height="1275.000000pt" viewBox="0 0 1461.000000 1275.000000"
 preserveAspectRatio="xMidYMid meet">
<metadata>
Created by potrace 1.14, written by Peter Selinger 2001-2017
</metadata>
<g transform="translate(0.000000,1275.000000) scale(0.100000,-0.100000)"
fill="#000000" stroke="none">
<path d="M3120 12134 c-14 -7 -34 -14 -45 -14 -12 0 -27 -6 -33 -12 -9 -9 -69
-14 -209 -15 -108 -2 -199 -5 -201 -8 -3 -3 -33 -6 -66 -7 -35 -1 -47 -3 -28
-5 51 -7 38 -20 -26 -25 -33 -3 -86 -19 -126 -37 -38 -17 -79 -31 -92 -31 -13
0 -38 -13 -56 -29 -18 -15 -43 -33 -55 -40 -13 -6 -23 -15 -23 -19 0 -11 -96
-112 -106 -111 -5 0 -32 17 -61 37 -149 106 -253 173 -261 168 -9 -5 -114 19
-147 34 -19 9 -115 31 -215 50 -174 33 -404 70 -414 67 -14 -6 12 -12 159 -37
65 -12 121 -23 124 -25 2 -3 -90 -4 -205 -2 -179 2 -218 -1 -269 -16 -112 -35
-124 -36 -176 -21 -29 9 -63 12 -84 8 -37 -7 -48 -24 -16 -24 11 0 27 -3 37
-7 12 -4 15 -3 10 5 -11 19 30 14 45 -5 13 -15 12 -16 -9 -11 -19 5 -21 4 -11
-8 15 -18 39 -18 39 1 0 11 12 15 49 15 27 0 62 5 78 11 17 7 118 13 263 14
130 2 226 -1 215 -5 -11 -5 -34 -9 -51 -9 -18 -1 -42 -9 -55 -20 -23 -18 -23
-18 -3 -42 21 -27 48 -27 76 -1 15 13 42 14 171 9 85 -3 160 -1 168 3 9 6 22
4 37 -6 12 -8 27 -12 32 -9 5 3 41 -5 80 -19 67 -25 84 -33 208 -103 31 -18
84 -46 117 -63 33 -16 88 -50 122 -74 34 -24 83 -51 110 -59 26 -9 79 -27 116
-41 37 -14 83 -26 102 -26 43 0 45 -17 7 -53 -33 -32 -56 -36 -47 -8 7 22 -12
38 -26 24 -5 -5 -12 -20 -14 -33 -3 -14 -25 -42 -50 -63 -48 -41 -61 -68 -20
-41 14 9 28 14 31 11 10 -10 -46 -202 -66 -221 -25 -26 -106 -36 -195 -26
-124 15 -305 13 -355 -3 l-45 -16 44 0 c34 -1 42 -4 37 -16 -4 -13 7 -15 69
-15 45 0 77 -5 81 -12 11 -18 -187 -3 -280 22 -44 11 -111 22 -150 24 -39 3
-75 5 -81 5 -5 1 -3 5 4 10 12 8 9 11 -11 16 -15 4 -29 13 -31 20 -3 7 -27 16
-53 20 -27 4 -66 16 -87 27 -21 10 -48 18 -60 16 -17 -2 -9 -10 35 -33 32 -16
58 -33 58 -38 0 -4 14 -13 32 -19 l32 -11 -34 -13 -35 -12 55 -1 c30 -1 84
-11 120 -22 39 -13 99 -22 150 -24 137 -4 300 -18 300 -24 -1 -15 -49 -63 -58
-58 -16 10 -56 -146 -48 -191 4 -27 0 -58 -14 -98 -39 -111 -52 -189 -41 -231
6 -21 11 -62 11 -91 0 -53 23 -122 41 -122 13 0 11 34 -3 48 -9 9 -7 48 6 164
26 227 31 250 81 349 24 50 43 95 40 99 -3 5 6 22 21 39 14 17 23 35 20 40 -7
10 59 71 77 71 16 0 77 -38 77 -48 0 -13 63 -32 107 -32 65 0 66 -31 2 -109
-16 -19 -27 -37 -24 -39 6 -6 54 51 82 97 23 36 23 36 23 8 0 -19 -12 -38 -40
-63 -22 -20 -40 -42 -40 -49 0 -7 -7 -18 -15 -25 -8 -7 -15 -16 -15 -21 0 -11
28 -1 62 23 14 10 33 18 41 18 9 0 18 6 20 13 4 9 6 9 6 0 1 -17 -58 -60 -108
-78 -24 -8 -61 -31 -82 -50 -37 -33 -49 -41 -49 -31 0 3 17 21 38 42 34 33 34
35 6 16 -49 -34 -60 -50 -46 -73 10 -15 10 -25 1 -41 -7 -12 -20 -52 -30 -88
-9 -36 -32 -112 -49 -170 -20 -69 -33 -137 -37 -199 -5 -84 -9 -98 -31 -118
-14 -13 -32 -23 -40 -23 -15 0 -76 -42 -97 -66 -5 -6 -31 -21 -56 -34 -52 -25
-159 -107 -159 -121 0 -5 7 -9 15 -9 8 0 15 -4 15 -10 0 -13 -79 -52 -93 -46
-9 3 -9 5 1 5 6 1 12 5 12 11 0 13 -27 2 -86 -37 -51 -33 -87 -42 -99 -23 -3
6 -31 10 -61 10 -38 0 -56 4 -60 14 -3 8 -27 17 -55 21 -27 4 -55 13 -62 19
-12 13 -97 14 -116 2 -5 -3 -8 5 -6 19 3 33 -10 41 -28 15 l-14 -20 -27 21
c-21 17 -27 18 -32 6 -4 -12 -10 -12 -39 3 -18 9 -55 33 -81 52 -51 37 -94 56
-94 40 0 -13 89 -91 145 -126 l50 -31 -30 -5 c-29 -5 -27 -7 30 -30 33 -14 63
-24 67 -22 4 1 36 -11 70 -27 130 -59 142 -62 268 -51 93 9 118 14 136 31 14
13 32 20 51 17 21 -2 27 1 26 12 -2 9 13 24 35 35 20 10 71 38 112 61 41 23
89 44 105 48 l30 6 0 -52 c0 -46 -3 -54 -25 -65 -14 -7 -38 -13 -53 -13 -40 0
-29 -24 13 -28 l33 -3 -7 -56 c-8 -64 -34 -131 -62 -154 -10 -9 -40 -27 -66
-42 -43 -23 -53 -25 -105 -16 -32 5 -79 12 -105 15 -43 6 -46 8 -37 26 10 18
9 18 -30 -1 -44 -23 -120 -28 -139 -9 -8 8 -15 8 -24 0 -9 -7 -27 -8 -48 -3
-41 9 -112 7 -130 -4 -18 -11 -170 5 -201 20 -14 8 -35 14 -45 13 -10 0 -27 3
-37 7 -9 4 -17 3 -17 -2 0 -14 101 -63 129 -63 20 0 21 -2 11 -15 -11 -13 -3
-15 62 -15 66 0 288 -25 313 -35 6 -2 -36 -1 -92 2 -65 4 -103 2 -103 -4 0 -9
230 -31 365 -35 42 -1 49 -3 23 -5 -49 -5 -49 -23 0 -23 74 1 319 36 390 56 7
2 11 8 7 13 -3 6 -39 9 -81 7 -41 -2 -77 0 -79 5 -9 14 38 39 73 39 22 0 35 6
39 18 4 9 17 27 30 39 13 12 23 30 23 39 0 16 -2 16 -16 -2 -14 -17 -15 -17
-10 -1 3 10 6 25 6 34 0 13 2 13 15 -1 9 -8 15 -33 15 -58 0 -59 24 -143 53
-187 13 -20 43 -71 66 -113 33 -60 51 -82 86 -102 24 -15 52 -40 62 -57 21
-36 129 -121 183 -145 47 -21 49 -26 56 -249 3 -93 11 -208 18 -255 13 -84 11
-156 -4 -165 -12 -7 11 -85 25 -85 6 0 19 -17 27 -38 16 -41 15 -64 -16 -236
-16 -89 -20 -142 -7 -97 10 36 28 37 27 2 0 -23 10 -39 52 -76 46 -42 136
-165 176 -242 8 -16 42 -51 76 -78 65 -52 90 -94 90 -151 0 -47 28 -161 51
-205 10 -21 19 -55 19 -75 0 -24 8 -46 25 -66 17 -21 25 -41 25 -69 0 -22 7
-50 16 -63 8 -14 31 -86 50 -161 19 -76 44 -155 54 -176 11 -21 20 -49 20 -63
0 -14 8 -33 18 -43 37 -37 44 -55 86 -205 24 -84 47 -162 53 -173 15 -30 25
-94 16 -108 -13 -20 -12 -117 1 -117 6 0 -5 -15 -26 -34 -34 -31 -37 -38 -43
-110 -6 -65 -4 -84 11 -119 20 -43 103 -137 122 -137 6 0 21 -13 34 -29 13
-15 35 -36 51 -46 17 -11 27 -26 27 -41 0 -15 6 -24 15 -24 19 0 19 -30 0 -66
-8 -16 -15 -52 -15 -79 0 -28 -12 -106 -26 -174 -25 -123 -26 -212 -3 -227 5
-3 9 -19 9 -36 0 -28 40 -105 94 -182 12 -17 80 -89 151 -160 124 -124 133
-137 184 -241 30 -60 76 -161 102 -224 27 -63 58 -123 69 -133 12 -11 20 -32
20 -51 0 -20 7 -36 18 -43 20 -13 71 -112 96 -187 17 -50 23 -276 9 -291 -5
-4 -14 9 -21 31 l-12 38 4 -52 c3 -55 27 -100 95 -178 44 -50 162 -109 203
-100 l27 6 -14 -48 c-20 -65 -18 -130 5 -178 11 -22 19 -49 20 -60 0 -11 7
-30 15 -41 18 -27 152 -93 202 -101 52 -8 201 -83 282 -141 65 -48 341 -212
356 -212 4 0 29 -16 55 -35 26 -19 52 -35 58 -35 6 0 39 -20 74 -43 35 -24 88
-53 118 -64 55 -21 183 -85 204 -102 6 -5 29 -12 51 -16 70 -13 75 -19 75 -85
0 -49 4 -64 27 -91 53 -62 118 -73 198 -34 42 21 65 25 140 25 90 0 170 18
282 64 38 16 113 94 113 118 0 13 -66 114 -79 123 -7 3 -34 33 -61 66 -49 59
-50 62 -50 127 -1 44 -9 91 -25 136 -31 91 -47 100 -147 85 -40 -6 -81 -15
-90 -20 -10 -5 -28 -9 -39 -9 -23 0 -203 102 -215 122 -5 7 -2 8 5 3 7 -4 -1
11 -17 34 -17 23 -102 107 -189 187 -307 281 -436 437 -451 547 -8 67 -54 171
-76 175 -11 3 -37 16 -58 29 -30 21 -38 32 -38 57 0 39 -23 180 -44 268 -13
56 -32 97 -73 157 -1 2 -31 3 -65 3 -54 -1 -67 3 -89 24 -17 16 -29 22 -33 15
-4 -6 -11 -11 -16 -11 -16 0 -87 144 -125 250 -20 58 -40 114 -45 125 -5 11
-14 49 -21 85 -6 36 -22 92 -36 125 -26 62 -133 415 -133 438 1 24 29 -40 53
-123 14 -47 30 -96 35 -110 20 -47 14 69 -7 140 -23 79 -79 230 -90 245 -12
14 -31 109 -31 151 0 19 -7 51 -16 72 -24 55 -27 122 -10 189 20 76 20 114 1
139 -8 10 -15 28 -15 38 0 29 -41 137 -64 171 -32 46 -76 82 -140 115 -66 34
-101 38 -114 14 -8 -14 -15 -9 -41 29 -17 25 -31 52 -31 59 0 7 -6 22 -14 33
-7 11 -23 52 -34 90 -11 39 -29 96 -41 127 -11 32 -21 70 -21 86 0 16 -4 42
-9 58 -6 16 -17 63 -26 106 -12 56 -21 77 -34 81 -19 5 -31 45 -31 101 0 17
-13 72 -29 123 -16 50 -32 118 -36 151 -9 83 -52 246 -65 250 -13 5 -13 90 0
145 14 64 17 227 4 227 -13 0 -24 46 -24 102 0 35 6 45 56 90 55 51 94 111 94
146 0 10 4 22 9 27 9 10 34 87 45 137 3 15 14 29 24 32 21 7 20 6 113 205 38
82 49 131 29 131 -5 0 -10 9 -10 20 0 13 5 18 15 14 13 -5 15 5 14 70 -1 52
-5 76 -14 76 -6 0 -17 11 -23 25 -15 33 2 33 66 1 82 -42 103 -73 112 -163 15
-136 35 -174 182 -329 93 -98 189 -146 292 -144 39 0 82 1 95 0 13 0 54 20 91
45 38 25 83 51 102 57 18 6 40 17 49 25 28 24 154 21 234 -6 195 -67 680 -294
1133 -531 154 -80 211 -103 137 -54 -59 39 -66 49 -17 25 23 -12 55 -33 70
-46 15 -14 92 -68 172 -121 80 -53 150 -101 155 -108 6 -7 34 -25 63 -41 29
-16 69 -43 90 -60 43 -38 154 -97 133 -71 -17 20 -3 20 38 0 32 -16 54 -12 35
5 -5 5 -58 35 -118 65 -59 31 -129 73 -155 95 -25 21 -75 56 -111 76 -36 21
-72 44 -81 52 -9 8 -48 29 -86 47 -39 19 -115 63 -169 98 -91 59 -148 93 -289
168 -107 56 -185 102 -191 111 -3 5 -18 9 -35 9 -19 0 -29 5 -29 15 0 19 -36
38 -60 30 -15 -5 -18 -3 -14 9 4 10 -5 22 -27 35 -31 19 -55 19 -44 0 9 -13 4
-12 -51 12 -60 27 -62 28 -44 39 12 7 11 10 -4 16 -10 4 -21 2 -25 -5 -5 -8
-12 -7 -27 4 -12 9 -14 14 -6 15 10 0 10 3 -2 15 -17 17 -36 20 -36 5 0 -5 -6
-7 -14 -4 -8 3 -12 12 -9 21 5 11 -1 13 -28 9 -24 -4 -66 6 -144 32 -101 35
-110 40 -113 65 -2 15 -7 27 -12 27 -11 0 0 43 13 52 14 8 -11 40 -25 32 -13
-8 -80 25 -73 36 3 5 12 7 20 3 8 -3 15 -1 15 4 0 5 33 15 74 22 96 17 122 34
39 25 -41 -4 -63 -3 -63 4 0 5 11 13 25 16 14 4 25 10 25 15 0 9 -48 0 -70
-14 -16 -10 -12 6 7 27 21 23 3 24 -40 2 -53 -28 -175 -114 -181 -129 -3 -8
-24 -24 -48 -36 -74 -37 -128 -73 -128 -87 0 -13 -86 -71 -136 -91 -39 -15
-167 -6 -203 15 -14 8 -49 32 -77 52 -29 20 -77 55 -107 77 -80 57 -139 183
-84 179 25 -2 21 8 -14 42 -36 34 -59 74 -59 103 0 32 57 38 111 12 50 -24 60
-27 34 -7 -17 12 -17 13 8 20 31 7 77 -2 77 -15 0 -5 -7 -9 -15 -9 -8 0 -15
-4 -15 -10 0 -5 4 -10 9 -10 10 0 46 -82 56 -128 8 -39 28 -37 36 4 3 19 -1
38 -12 54 -9 14 -19 49 -21 78 l-5 52 31 -1 c17 -1 42 -5 56 -9 25 -8 25 -8
-8 -15 -61 -14 -41 -21 34 -11 41 5 74 13 74 18 0 5 -10 6 -22 3 -13 -3 -59 9
-103 25 -55 21 -67 28 -40 24 62 -11 108 -6 130 16 20 20 19 20 -60 15 -44 -3
-74 -2 -66 1 10 5 4 11 -20 19 -22 7 -41 8 -53 2 -21 -10 -178 -3 -211 9 -19
8 -19 8 3 14 13 3 22 10 20 15 -4 13 -82 9 -86 -5 -2 -5 -14 -10 -27 -10 -13
0 -26 -4 -30 -10 -3 -5 -24 -1 -51 10 -25 11 -51 20 -57 20 -7 0 -17 15 -22
33 -10 31 -10 32 22 34 23 1 33 -3 33 -13 0 -8 -7 -14 -16 -14 -8 0 -12 -4 -9
-10 3 -5 19 -10 36 -10 16 0 29 -4 29 -10 0 -13 47 -13 55 1 4 6 -1 17 -11 25
-18 13 -17 14 11 9 26 -5 27 -4 7 4 -12 6 -28 8 -36 5 -19 -7 -56 13 -56 30 0
7 -18 32 -40 55 -42 44 -48 59 -28 79 9 9 4 12 -24 12 -20 0 -39 -6 -42 -12
-3 -9 -11 -6 -25 11 -21 23 -19 53 2 32 21 -21 38 -13 31 16 -6 22 -4 25 10
20 12 -5 16 -1 16 14 0 17 -5 20 -21 16 -22 -6 -40 20 -22 32 6 3 13 16 17 28
6 19 4 22 -11 16 -10 -3 -24 -10 -30 -16 -19 -14 -17 13 3 41 8 12 13 31 9 41
-3 11 0 29 7 41 9 15 10 23 2 28 -6 4 -14 21 -18 37 -14 55 -24 190 -15 199 5
5 23 8 41 7 80 -5 256 -3 286 4 25 6 32 4 30 -6 -2 -11 19 -14 107 -15 85 -1
95 0 45 5 l-65 6 105 8 c58 5 123 8 144 8 39 -1 67 12 99 44 12 11 43 17 113
21 53 2 101 7 105 10 5 3 22 -2 38 -11 35 -18 41 -18 41 -5 0 6 -16 18 -35 27
-19 9 -35 20 -35 25 0 9 48 -8 69 -25 7 -6 27 -12 42 -13 17 -1 53 -20 86 -45
31 -24 62 -47 67 -51 6 -4 7 -10 3 -14 -3 -4 -13 -1 -22 6 -8 7 -20 10 -27 7
-22 -8 -33 -7 -33 2 0 11 -60 61 -74 61 -16 0 -14 -5 21 -44 19 -22 44 -38 65
-42 18 -3 36 -10 38 -15 3 -4 12 -6 20 -2 16 5 45 -13 45 -28 0 -5 -11 -7 -25
-3 -15 4 -25 2 -25 -5 0 -6 8 -11 19 -11 22 0 76 -48 66 -58 -4 -4 -10 -1 -12
6 -3 6 -13 12 -24 12 -23 0 -15 -27 10 -35 10 -3 18 -11 18 -18 0 -6 4 -20 8
-29 5 -12 2 -18 -6 -19 -8 -1 0 -4 16 -8 27 -6 30 -10 30 -48 1 -55 19 -76 36
-40 8 19 9 34 1 56 -7 19 -7 31 -1 31 5 0 9 -4 9 -10 0 -5 7 -10 15 -10 8 0
15 -7 15 -15 0 -8 -4 -15 -8 -15 -5 0 -8 -21 -8 -47 1 -47 1 -48 -29 -45 -29
2 -29 2 -10 -13 16 -12 17 -19 8 -33 -6 -9 -19 -16 -29 -15 -12 1 -24 -8 -31
-24 -11 -23 -11 -25 12 -19 13 3 26 2 29 -3 9 -13 -19 -32 -38 -25 -12 5 -16
0 -18 -22 -3 -67 -9 -74 -68 -74 -27 0 -52 -4 -55 -10 -4 -6 10 -10 34 -10 39
0 61 -13 41 -25 -16 -10 -12 -23 10 -35 16 -9 18 -8 14 5 -7 17 49 45 90 45
29 0 44 18 22 26 -28 11 -17 24 22 25 34 0 35 1 15 11 -13 6 -23 14 -23 18 0
12 98 28 112 19 7 -5 25 -9 40 -9 17 0 34 -10 47 -27 12 -16 21 -23 20 -18 -5
37 1 44 34 39 17 -3 52 -14 77 -24 25 -10 73 -28 107 -40 34 -12 64 -27 66
-34 3 -7 46 -30 96 -51 50 -22 91 -43 91 -47 0 -10 90 -68 104 -68 6 0 3 5 -6
11 -9 5 -15 15 -12 23 7 18 -43 54 -154 111 -62 32 -97 56 -102 71 -7 17 -20
24 -55 30 -26 3 -49 13 -52 21 -3 8 -11 12 -18 9 -8 -2 -31 4 -52 15 -21 11
-64 27 -95 35 -32 9 -58 21 -58 25 0 13 12 11 54 -6 23 -10 36 -11 36 -4 0 6
15 1 34 -10 18 -12 41 -21 50 -21 61 0 817 -444 801 -470 -3 -5 39 -39 92 -76
54 -37 181 -129 283 -204 204 -151 275 -200 286 -200 25 0 154 -139 154 -166
0 -3 -14 -10 -31 -16 -20 -7 -27 -13 -19 -18 17 -10 3 -18 -73 -40 -34 -10
-53 -20 -42 -21 11 -1 27 -3 35 -5 8 -1 19 -2 24 -3 5 -1 1 -10 -9 -21 -30
-33 -8 -36 26 -4 29 27 31 27 25 7 -8 -25 5 -31 23 -10 7 9 7 17 1 23 -12 12
44 39 104 51 43 9 62 33 26 33 -12 0 -18 5 -15 10 3 6 16 10 27 10 12 0 29 7
38 15 23 21 115 35 223 35 64 0 86 3 81 11 -5 9 -53 10 -170 6 l-163 -6 -55
34 c-31 19 -92 61 -137 94 -44 34 -87 61 -95 61 -19 0 -145 88 -315 221 -75
58 -169 127 -210 153 -41 25 -150 95 -244 155 -93 59 -186 116 -205 126 -19
11 -73 42 -120 71 -47 28 -106 63 -132 78 -51 28 -164 133 -155 142 3 3 59 -6
124 -19 67 -15 154 -26 201 -26 46 -1 180 -15 299 -32 118 -16 217 -28 220
-26 2 3 -45 12 -106 21 -60 10 -122 21 -137 27 -52 16 154 2 256 -19 52 -11
123 -25 158 -31 106 -20 224 -58 400 -127 92 -36 179 -66 194 -66 34 1 189
-64 205 -85 7 -9 15 -14 19 -11 13 13 83 -28 143 -84 35 -33 127 -102 205
-153 78 -51 166 -119 196 -150 l55 -57 -32 4 c-18 3 -33 3 -33 1 0 -1 22 -14
49 -27 61 -32 138 -105 181 -175 28 -44 35 -50 40 -35 7 18 7 18 18 -2 6 -11
13 -39 16 -63 2 -23 13 -52 23 -63 10 -11 34 -46 53 -78 100 -164 143 -213
233 -266 28 -17 54 -38 55 -48 4 -21 -55 -146 -69 -146 -5 0 -12 0 -16 0 -5 0
-8 3 -8 8 -2 44 -167 195 -266 243 -33 16 -73 38 -87 49 -26 19 -108 30 -141
19 -16 -5 -74 89 -85 137 -17 72 -45 104 -92 104 -15 0 16 -58 62 -113 13 -15
35 -63 48 -107 36 -112 54 -152 66 -145 9 6 15 -8 11 -29 -3 -13 30 -120 40
-133 13 -15 49 -164 50 -206 1 -31 1 -31 9 -7 7 19 8 12 8 -30 -1 -30 -7 -71
-13 -90 -7 -19 -10 -50 -8 -68 5 -27 -1 -38 -36 -73 -22 -23 -41 -45 -41 -49
0 -13 -62 -55 -138 -95 -64 -33 -83 -38 -158 -41 -51 -2 -84 0 -84 6 0 6 7 10
16 10 8 0 12 5 8 11 -4 7 -20 9 -40 6 -27 -5 -37 -1 -51 19 -13 17 -24 23 -36
18 -19 -7 -17 -31 2 -26 6 1 11 -5 11 -14 0 -13 -9 -14 -56 -8 -54 6 -56 6
-49 -15 4 -12 2 -21 -4 -21 -6 0 -11 4 -11 10 0 5 -6 7 -14 4 -7 -3 -25 9 -39
26 -15 17 -30 32 -34 33 -4 1 -9 16 -11 32 -2 17 -11 37 -21 45 -9 8 -22 27
-29 43 -6 15 -18 27 -27 27 -8 0 -17 12 -21 28 -3 15 -10 44 -16 66 -5 21 -7
49 -4 62 4 13 0 29 -9 38 -12 11 -13 21 -5 42 12 31 9 37 -13 28 -9 -3 -19
-19 -22 -35 -6 -27 -10 -30 -37 -24 -28 7 -29 6 -19 -14 6 -11 20 -25 32 -31
11 -6 17 -15 14 -20 -3 -5 1 -23 10 -39 8 -17 15 -45 15 -64 0 -19 7 -40 15
-47 27 -22 76 -102 71 -115 -6 -16 86 -113 120 -125 14 -6 35 -8 47 -6 12 3
57 7 99 11 l77 6 11 -38 c15 -49 10 -139 -7 -135 -7 1 -13 -5 -13 -13 0 -8 4
-15 8 -15 4 0 25 -25 47 -56 38 -53 105 -101 125 -89 5 3 28 -2 52 -11 46 -17
107 -19 122 -4 17 17 27 11 16 -9 -5 -11 -9 -32 -9 -48 2 -23 2 -24 6 -5 6 29
19 28 27 -3 5 -21 0 -31 -31 -57 -21 -18 -74 -67 -118 -110 -92 -88 -309 -248
-338 -248 -10 0 -31 -7 -45 -15 -15 -8 -39 -19 -54 -25 -16 -5 -28 -16 -28
-24 0 -10 -16 -19 -42 -26 -51 -12 -110 -41 -157 -75 -37 -27 -66 -31 -120
-15 -28 8 -38 6 -52 -6 -12 -10 -32 -15 -63 -13 -29 2 -51 -2 -63 -12 -30 -26
-107 -50 -180 -56 -88 -7 -210 12 -232 36 -9 10 -32 24 -51 31 -19 7 -45 22
-57 33 -12 11 -29 17 -37 14 -9 -4 -18 -2 -20 2 -3 4 -37 11 -77 14 -76 6
-140 -8 -190 -44 -15 -10 -64 -32 -110 -49 -106 -39 -149 -68 -149 -98 0 -30
48 -112 65 -112 14 0 39 -34 68 -93 11 -20 31 -46 46 -58 68 -52 227 -152 260
-163 43 -15 160 -12 191 4 26 14 22 34 -8 38 -12 2 -22 8 -22 13 0 5 28 7 68
4 187 -16 262 -19 312 -13 30 3 96 6 147 7 73 1 94 -2 101 -14 4 -9 19 -17 32
-20 13 -2 33 -13 44 -24 37 -34 159 -80 143 -54 -3 4 12 7 34 5 21 -2 36 -8
33 -13 -14 -23 98 12 157 49 38 23 69 29 69 13 0 -6 -5 -13 -10 -16 -15 -9 -2
-25 21 -25 10 0 19 7 19 15 0 13 3 13 20 3 17 -11 34 -8 107 17 77 26 96 38
157 95 l69 66 2 59 c2 59 2 60 56 105 61 51 188 177 335 330 55 58 116 119
135 135 34 30 70 71 188 212 34 39 70 74 81 78 11 3 20 14 20 23 0 9 5 24 10
32 8 13 13 13 42 -1 18 -9 56 -25 83 -35 28 -9 77 -34 110 -54 55 -34 60 -39
57 -69 -2 -17 -26 -78 -54 -134 -28 -56 -57 -120 -64 -141 -8 -22 -19 -45 -25
-53 -16 -18 -32 -16 -25 3 3 8 -33 -18 -82 -59 -100 -85 -128 -114 -119 -124
4 -3 -8 -25 -26 -47 -38 -46 -79 -123 -96 -177 -10 -31 -9 -42 6 -69 17 -31
17 -32 -1 -43 -24 -15 -106 -96 -106 -106 0 -4 -16 -37 -36 -75 -32 -60 -36
-74 -31 -116 3 -27 1 -64 -4 -84 -6 -23 -7 -48 0 -70 7 -27 5 -41 -7 -64 -44
-78 -112 -212 -112 -219 1 -5 14 17 30 47 16 30 29 50 30 44 0 -22 -45 -120
-75 -159 -86 -114 -150 -188 -190 -222 -25 -20 -47 -45 -51 -55 -3 -9 -39 -38
-80 -63 -60 -36 -84 -45 -122 -45 -94 -1 -226 -46 -238 -82 -3 -10 -23 -27
-45 -38 -26 -14 -39 -27 -39 -41 0 -24 -61 -54 -218 -105 -105 -34 -223 -46
-237 -24 -3 5 -32 10 -64 10 -32 0 -74 3 -92 7 -33 7 -33 7 -9 14 21 6 18 7
-15 8 -45 1 -63 11 -148 84 -57 49 -58 50 -110 43 -73 -9 -167 -40 -211 -70
-21 -14 -46 -28 -56 -31 -11 -3 -21 -14 -25 -24 -6 -21 -68 -45 -110 -43 -33
2 -71 -21 -61 -37 4 -6 13 -8 21 -4 11 3 13 1 9 -10 -3 -9 -12 -18 -20 -21
-35 -14 -7 -139 47 -207 56 -70 59 -36 6 54 -16 26 -31 64 -34 86 -5 34 -2 40
25 60 18 12 32 17 34 10 2 -6 14 -5 33 5 17 9 51 16 78 16 34 0 47 4 47 14 0
23 108 54 168 48 28 -2 50 -8 47 -11 -2 -4 9 -5 25 -3 18 3 42 -4 63 -17 20
-12 51 -21 73 -21 28 0 35 3 24 10 -25 15 -3 23 33 11 20 -7 37 -20 40 -31 3
-11 10 -20 16 -20 14 0 14 17 1 25 -22 14 -8 21 38 20 62 -2 100 -14 81 -26
-19 -12 -6 -12 84 1 173 26 263 42 275 52 7 6 15 8 18 5 20 -19 -145 -86 -216
-87 -14 -1 -38 -7 -55 -15 l-30 -15 45 6 c97 11 227 49 282 82 32 19 67 32 80
30 17 -2 26 4 35 25 7 15 20 31 30 35 10 4 30 15 43 25 90 64 130 81 145 57 4
-6 -7 -10 -26 -10 -30 0 -31 -1 -16 -18 16 -17 15 -20 -8 -42 -32 -31 -59
-119 -52 -176 6 -58 56 -158 81 -162 17 -4 16 0 -7 27 -14 17 -34 56 -43 86
-15 47 -16 62 -6 107 11 47 66 137 85 138 9 0 -2 -51 -14 -64 -13 -15 -10 -96
6 -139 11 -33 11 -38 -1 -33 -15 6 -18 -3 -8 -28 3 -9 9 -14 13 -11 12 7 60
-46 101 -112 22 -35 48 -64 62 -68 13 -4 38 -21 56 -36 37 -32 71 -37 106 -13
42 27 38 -3 -4 -36 -25 -20 -47 -30 -57 -26 -9 4 -13 9 -10 13 11 10 -14 33
-34 33 -11 0 -19 -4 -19 -9 0 -5 -19 -12 -42 -16 -35 -6 -39 -8 -23 -15 15 -5
10 -8 -23 -11 -49 -5 -58 -2 -63 26 -3 11 -11 20 -19 20 -8 0 -19 10 -26 23
-18 37 -25 38 -18 3 7 -31 6 -33 -17 -26 -13 4 -31 15 -39 25 -50 62 -82 112
-94 146 l-15 39 0 -35 c-1 -54 15 -110 38 -134 12 -12 21 -25 21 -28 0 -13
-111 -21 -133 -10 -19 9 -15 11 28 12 l50 2 -40 9 c-22 4 -85 7 -140 7 -81 -1
-90 -2 -50 -8 l50 -7 -41 -1 c-22 -1 -55 -9 -73 -18 -28 -14 -62 -16 -234 -12
-119 3 -214 10 -230 16 -23 10 -31 9 -44 -3 -8 -8 -19 -12 -25 -9 -7 5 -5 11
5 19 21 15 22 34 3 41 -8 3 -16 14 -19 24 -5 18 -3 19 24 4 16 -8 29 -19 29
-24 0 -6 5 -10 10 -10 14 0 12 32 -3 51 -41 54 -78 88 -98 91 -19 2 -23 -1
-21 -16 2 -11 -1 -15 -7 -11 -6 3 -11 12 -11 18 0 7 -12 20 -28 29 -15 10 -35
23 -44 30 -25 18 -32 4 -13 -26 10 -14 15 -35 12 -46 -4 -15 0 -20 14 -20 10
0 19 -4 19 -10 0 -5 -7 -10 -15 -10 -23 0 -18 -14 21 -65 34 -45 34 -48 19
-71 -8 -13 -20 -24 -25 -24 -20 0 -140 48 -183 74 -64 37 -146 158 -86 126 28
-16 38 -3 12 15 -28 19 -67 95 -50 95 7 0 18 -5 25 -12 7 -7 12 -8 12 -2 -1
19 -57 64 -74 58 -9 -3 -16 -11 -16 -16 0 -6 -9 0 -20 13 l-21 24 17 -35 c9
-19 25 -46 35 -60 10 -14 21 -45 25 -70 l6 -45 -21 30 c-35 51 -25 3 19 -87
49 -99 74 -127 162 -180 l68 -40 66 28 c36 15 68 34 71 41 3 7 13 12 22 11 9
-2 15 3 13 11 -3 12 21 13 150 6 84 -5 257 -9 385 -9 171 -1 235 -4 244 -13 8
-8 40 -13 80 -13 37 0 83 -7 102 -15 43 -18 61 -19 51 -4 -3 6 4 4 17 -4 13
-8 49 -23 79 -32 30 -10 59 -21 63 -25 5 -4 45 4 90 17 64 20 91 34 125 66 23
23 48 56 54 74 9 25 16 32 30 27 48 -15 67 -13 102 11 20 14 41 25 45 25 5 0
19 28 31 63 13 34 27 66 32 71 4 6 8 21 8 35 1 41 40 96 143 202 52 54 54 59
31 59 -9 0 -14 6 -11 13 2 6 13 11 23 9 23 -3 42 25 101 154 23 51 53 110 67
133 14 22 26 45 26 51 0 10 153 315 189 375 15 26 25 31 72 35 30 3 71 13 91
23 21 9 43 17 50 17 24 0 138 59 144 75 3 8 13 15 20 15 17 0 33 36 44 100 l8
45 1 -47 c2 -87 18 -50 25 59 6 87 11 111 26 125 20 18 27 40 55 163 9 39 25
94 35 123 12 31 22 90 25 143 3 50 12 124 20 165 23 107 62 214 79 214 5 0 27
-15 50 -33 23 -19 51 -39 63 -46 27 -14 53 -63 84 -152 12 -35 29 -71 39 -79
34 -29 42 -58 31 -108 -29 -126 -51 -274 -50 -337 2 -71 -18 -135 -42 -135 -8
0 -8 4 -2 12 13 16 28 97 16 83 -38 -43 -83 -105 -83 -115 0 -6 -11 -26 -24
-43 -13 -18 -36 -57 -51 -87 -22 -45 -26 -64 -21 -102 6 -57 39 -135 67 -161
11 -10 16 -23 12 -30 -5 -8 -9 -7 -11 5 -5 24 -14 23 -31 -3 -10 -17 -10 -23
0 -29 9 -6 5 -14 -14 -32 -14 -12 -40 -56 -57 -96 -31 -74 -32 -74 -20 -165 6
-51 12 -108 14 -127 2 -19 20 -69 39 -110 30 -63 36 -70 36 -45 1 26 3 27 15
15 30 -30 20 -389 -13 -502 -10 -35 -30 -108 -45 -163 -15 -55 -33 -122 -41
-150 -7 -27 -16 -70 -20 -95 -6 -42 -6 -44 8 -25 25 33 30 10 8 -42 -11 -26
-22 -64 -25 -84 -9 -58 -15 -66 -84 -107 -67 -40 -202 -158 -169 -148 21 7 22
-10 2 -57 -17 -41 -20 -107 -5 -107 6 0 10 10 10 23 0 12 5 29 10 37 7 11 10
1 10 -35 1 -27 8 -68 16 -90 26 -67 24 -74 -31 -98 -126 -54 -156 -90 -136
-158 14 -46 14 -82 1 -74 -6 4 -10 -8 -10 -30 0 -53 -21 -91 -100 -183 -50
-59 -98 -101 -157 -139 -47 -31 -116 -79 -153 -107 -88 -66 -196 -122 -212
-110 -7 5 -48 8 -91 6 l-78 -4 -29 -51 c-16 -29 -30 -63 -30 -77 0 -40 -23
-74 -64 -95 -51 -27 -77 -91 -80 -197 -1 -102 8 -112 88 -97 l59 10 37 -36
c68 -66 278 -107 363 -71 20 8 42 30 57 57 14 24 43 61 65 82 29 29 33 35 12
22 -24 -15 -27 -15 -27 -2 0 9 9 21 20 27 27 15 149 106 185 140 68 62 449
279 545 310 25 8 61 29 81 47 20 18 40 33 44 33 4 0 44 33 90 73 45 40 123
104 173 142 51 37 92 74 92 81 0 6 7 14 15 18 9 3 15 0 15 -9 0 -22 114 39
160 86 37 38 39 43 45 125 7 82 3 151 -11 187 -5 13 2 21 27 33 66 31 79 39
83 51 6 14 -11 274 -21 333 -6 34 -6 34 -14 10 l-9 -25 4 25 c2 14 12 70 24
125 25 118 42 231 46 309 2 31 8 62 14 69 7 8 18 42 26 78 8 35 22 84 31 108
24 65 43 165 51 266 7 96 16 119 45 110 9 -3 32 0 51 8 28 12 37 25 61 90 26
71 28 85 26 214 -1 95 -6 147 -16 166 -16 32 -11 45 23 57 42 16 28 32 -23 26
l-48 -6 60 21 c57 19 116 59 86 59 -9 0 -6 11 9 36 19 30 22 46 18 107 -4 67
-27 133 -51 148 -5 4 -13 47 -17 95 -5 49 -11 97 -15 107 -4 10 -3 17 4 17 6
0 11 11 11 25 0 14 3 25 8 24 4 0 30 -18 57 -40 28 -22 70 -55 95 -73 25 -19
77 -70 116 -113 75 -83 103 -121 64 -88 l-23 20 11 -20 c19 -37 224 -329 263
-377 22 -26 56 -82 77 -125 39 -82 97 -176 134 -216 32 -34 79 -56 146 -68 78
-15 108 -35 136 -94 14 -27 40 -64 58 -82 56 -53 216 -130 193 -93 -9 14 26 5
132 -31 45 -16 87 -27 95 -24 17 7 138 -80 311 -224 169 -140 196 -169 243
-264 20 -40 47 -86 60 -103 13 -18 33 -70 45 -118 27 -107 56 -147 134 -186
73 -36 167 -49 293 -41 72 5 91 3 87 -6 -5 -16 11 -17 20 -2 4 6 13 8 19 6 8
-3 23 27 42 86 23 74 29 110 29 183 0 54 5 97 12 105 7 9 10 46 8 104 -3 105
-32 180 -105 278 -45 60 -46 61 -140 57 -30 -1 -66 3 -80 8 -14 6 -65 46 -113
91 -49 45 -95 81 -102 81 -8 0 -38 28 -67 62 -29 34 -68 76 -87 93 -123 110
-235 225 -250 255 -12 24 -18 63 -20 125 -2 68 -8 105 -26 149 -13 33 -22 63
-20 67 3 4 -7 18 -22 31 -16 13 -48 47 -71 76 -24 28 -48 50 -53 47 -4 -3 -11
7 -14 22 -14 61 -40 119 -67 147 -41 40 -46 25 -9 -26 17 -23 31 -47 31 -52 0
-12 -55 64 -82 113 -18 34 -72 71 -102 71 -11 0 -42 18 -70 39 -28 21 -82 58
-120 81 -146 88 -240 169 -514 442 -207 206 -285 279 -291 269 -7 -11 -11 -10
-18 5 -16 32 -35 112 -31 126 5 14 -47 118 -100 202 -17 27 -37 65 -43 85 -6
20 -32 59 -58 86 -25 28 -65 72 -88 98 -40 45 -63 58 -63 37 0 -5 7 -10 15
-10 8 0 15 -5 15 -10 0 -6 -13 -4 -30 5 -16 8 -33 14 -37 13 -11 -3 -20 46
-22 108 -1 32 -7 56 -16 64 -12 10 -15 10 -15 -4 0 -23 -20 -20 -21 4 -2 35
-4 38 -25 67 -14 19 -46 38 -97 58 -55 20 -77 34 -80 49 -3 12 -12 48 -20 81
-9 33 -23 107 -31 165 -9 58 -25 139 -36 180 -12 41 -19 82 -17 92 3 10 2 16
-3 13 -4 -2 -10 12 -14 33 -4 20 -13 51 -20 67 l-14 30 -9 -24 c-9 -22 -10
-21 -20 15 -6 22 -17 64 -23 94 -7 30 -46 146 -86 257 -41 110 -74 210 -74
220 0 33 -88 203 -105 203 -8 0 -15 -8 -15 -17 0 -14 -2 -15 -9 -4 -5 7 -14
10 -21 6 -9 -6 -10 3 -4 36 5 24 9 61 8 81 0 20 4 34 8 32 4 -3 8 11 8 32 0
22 -16 70 -41 123 -33 68 -58 103 -123 169 -44 45 -84 82 -89 82 -10 0 33 -61
56 -78 9 -7 17 -22 17 -32 0 -10 16 -31 35 -46 19 -14 44 -40 54 -58 25 -39
38 -111 22 -120 -7 -4 -11 0 -11 11 0 11 -7 28 -15 39 -12 16 -14 16 -15 3 0
-9 7 -33 15 -54 9 -20 13 -45 10 -55 -3 -11 0 -20 10 -24 11 -4 15 2 15 24 0
17 5 30 10 30 12 0 13 -57 1 -64 -4 -3 -11 -27 -15 -53 -3 -27 -13 -78 -22
-115 -15 -60 -22 -71 -66 -108 -36 -31 -47 -47 -43 -61 4 -11 -4 -33 -19 -56
-35 -51 -34 -65 4 -47 16 9 32 19 35 24 3 4 23 11 45 15 36 6 40 10 40 36 0
22 5 29 20 29 19 0 24 -10 32 -65 2 -11 12 -21 23 -23 16 -3 18 -1 8 9 -21 21
-15 34 7 14 11 -10 19 -23 18 -29 -4 -14 67 -150 100 -193 13 -18 28 -30 34
-27 5 3 19 -1 32 -9 35 -23 117 -281 162 -507 20 -101 42 -190 50 -197 8 -8
14 -27 14 -42 0 -16 7 -48 15 -71 8 -23 15 -49 15 -56 0 -16 -46 -19 -55 -4
-7 11 -113 14 -139 4 -35 -13 -13 -23 42 -18 l57 5 -40 -20 c-46 -23 -147 -28
-182 -8 -115 65 -184 92 -167 66 7 -12 -147 68 -201 104 -16 11 -53 44 -80 72
-28 29 -62 58 -75 65 l-25 13 25 -28 25 -29 -35 20 c-23 13 -35 28 -35 42 0
13 -19 39 -49 66 -53 49 -76 86 -76 122 0 27 15 32 24 9 4 -10 16 -15 33 -13
35 4 39 -24 4 -32 -19 -4 -21 -7 -10 -17 21 -16 56 1 61 31 6 30 -8 44 -39 41
-19 -1 -21 3 -20 37 l2 38 45 1 c42 0 43 1 20 12 -14 6 -31 17 -38 24 -7 7
-24 13 -37 13 -13 0 -27 5 -30 10 -4 6 -21 10 -38 10 -47 -1 -89 10 -112 30
-31 28 -122 70 -149 70 -14 0 -29 6 -33 14 -4 8 -20 17 -35 21 -20 5 -27 3
-31 -12 -3 -16 -5 -15 -14 6 -8 21 -4 29 39 69 26 24 48 51 48 58 0 7 6 17 14
21 18 11 29 50 17 58 -6 3 -32 -23 -57 -59 -42 -58 -75 -88 -74 -68 1 4 9 32
20 62 18 53 20 56 70 70 41 12 54 22 67 48 8 17 20 32 26 32 36 0 142 107 220
223 15 23 27 37 27 33 0 -5 7 -3 15 4 8 6 19 9 25 5 28 -17 136 125 146 191 4
28 3 49 -3 53 -11 6 -15 24 -32 146 -6 39 -18 103 -26 144 -18 89 -19 111 -2
111 23 0 122 -51 150 -78 15 -14 27 -21 27 -14 0 6 -5 14 -10 17 -6 4 -17 22
-25 41 -8 19 -19 34 -25 34 -6 0 -9 4 -6 9 7 10 -54 34 -63 25 -3 -3 3 -12 13
-20 25 -18 15 -18 -30 1 -37 15 -36 8 -15 100 6 25 6 55 2 121 -1 6 -19 39
-41 73 -22 34 -40 68 -40 75 0 7 -9 21 -20 31 -11 10 -20 26 -20 35 0 30 -41
139 -65 172 -65 90 -78 122 -85 206 -4 46 -12 88 -18 94 -8 8 -10 2 -5 -25 4
-24 2 -37 -6 -37 -7 0 -11 20 -11 50 0 45 -5 56 -44 105 -25 30 -56 74 -71 99
-14 25 -62 82 -107 126 -63 64 -79 86 -74 103 3 13 -3 32 -14 47 -17 21 -21
23 -30 10 -8 -13 -14 -13 -44 4 -20 10 -43 30 -52 44 -9 13 -11 21 -5 18 6 -4
11 -3 11 3 0 16 -37 36 -115 62 -38 13 -78 32 -89 43 -17 17 -29 18 -150 12
-72 -4 -133 -11 -136 -15 -11 -17 -56 -19 -131 -6 -44 8 -84 17 -89 20 -6 3
-10 2 -10 -4 0 -5 6 -12 13 -15 6 -3 3 -4 -8 -1 -11 2 -55 11 -99 20 -74 15
-136 38 -136 51 0 4 7 4 14 1 9 -4 13 -1 10 6 -2 7 -29 20 -58 29 -65 21 -190
81 -233 112 -37 27 -92 50 -328 140 -155 59 -215 84 -360 150 -69 31 -265 69
-315 61 -35 -6 -43 -3 -68 22 -15 15 -36 40 -47 55 -17 23 -36 30 -120 48 -55
11 -120 26 -145 32 -25 6 -68 11 -95 12 -33 1 -64 10 -90 25 -50 30 -140 61
-174 61 -39 0 -8 -17 57 -30 47 -10 54 -15 51 -37 0 -4 12 -14 28 -22 91 -50
216 -140 276 -202 59 -58 232 -199 246 -199 7 0 26 -10 44 -22 18 -13 34 -24
37 -26 2 -2 -2 -7 -10 -12 -11 -7 -8 -11 13 -19 16 -6 71 -34 124 -63 l96 -51
-23 -19 c-21 -17 -21 -18 -2 -18 23 0 114 -37 122 -49 11 -17 51 -31 72 -26
16 4 50 -9 113 -45 50 -27 97 -50 107 -50 31 0 220 -71 241 -90 22 -22 126
-64 135 -56 5 6 -76 45 -94 46 -6 0 -17 7 -24 15 -18 22 6 20 51 -4 20 -11 85
-34 145 -51 215 -63 529 -175 560 -201 8 -7 54 -18 102 -25 48 -7 139 -27 202
-44 63 -18 135 -37 160 -44 33 -8 45 -15 42 -27 -1 -9 4 -22 13 -29 8 -7 15
-18 15 -26 0 -7 12 -19 28 -26 21 -11 27 -20 25 -42 -1 -16 4 -38 12 -50 8
-11 15 -28 15 -38 0 -10 7 -18 15 -18 8 0 15 -5 15 -11 0 -5 8 -9 18 -7 19 3
123 -52 117 -62 -2 -4 1 -7 8 -7 24 0 85 -44 91 -65 8 -34 -4 -36 -29 -4 l-24
30 -11 -26 c-11 -22 -21 -27 -74 -33 -68 -7 -151 -27 -162 -38 -4 -4 -23 -7
-41 -7 -47 0 -32 -20 15 -21 20 0 31 -3 23 -6 -10 -4 -8 -9 10 -19 54 -30 -18
-13 -126 30 -123 48 -141 57 -242 116 -56 32 -63 35 -63 22 0 -5 15 -16 33
-25 l32 -17 -50 6 c-27 3 -59 8 -70 10 -49 12 18 -17 121 -51 146 -49 254
-100 254 -119 0 -35 110 -69 147 -45 29 18 189 -63 271 -137 34 -31 76 -64 94
-73 51 -26 200 -316 227 -442 13 -58 14 -96 4 -85 -4 4 -15 -30 -25 -75 -12
-58 -29 -99 -53 -136 -19 -29 -35 -60 -35 -68 0 -44 -82 -159 -177 -251 -13
-12 -23 -28 -23 -36 0 -23 -26 -41 -49 -33 -14 4 -27 -2 -47 -24 -16 -18 -37
-31 -51 -31 -24 0 -29 10 -13 26 6 6 6 27 1 54 l-8 45 -13 -32 c-7 -19 -17
-30 -22 -26 -7 4 -9 -3 -5 -18 9 -34 -2 -69 -22 -69 -14 0 -14 2 -1 10 13 9
13 11 0 19 -8 5 -17 8 -21 5 -4 -2 -11 1 -15 7 -4 6 1 16 10 21 23 13 20 27
-4 21 -19 -5 -20 -2 -14 65 6 62 4 72 -14 92 -22 24 -41 20 -43 -8 0 -9 -5 -3
-10 13 -5 17 -7 41 -3 55 3 14 10 50 15 80 4 30 11 66 15 79 l7 24 -26 -19
c-14 -10 -32 -32 -39 -49 -11 -28 -13 -25 -18 55 l-5 85 -11 -105 c-8 -79 -18
-122 -41 -173 -20 -46 -32 -63 -36 -53 -10 26 -25 18 -37 -19 -15 -44 -26 -45
-34 -2 -3 19 -13 42 -21 53 -13 18 -14 16 -15 -24 0 -26 -4 -41 -10 -37 -15 9
-12 -12 6 -46 19 -37 8 -54 -13 -21 -9 12 -23 22 -33 22 -10 0 -41 27 -70 59
-50 56 -95 86 -83 55 3 -8 0 -14 -5 -14 -17 0 -42 42 -42 72 0 15 -9 36 -21
47 -31 29 -83 106 -123 186 -39 75 -87 135 -109 135 -7 0 -51 34 -98 76 -46
43 -133 114 -194 160 -60 46 -146 115 -190 153 -44 39 -84 70 -90 71 -5 0 -23
12 -40 26 -26 22 -27 25 -7 19 34 -10 26 2 -15 24 -21 11 -60 43 -88 71 -49
51 -92 80 -116 80 -7 0 -4 -7 7 -15 23 -17 14 -19 -21 -3 -29 13 -32 24 -7 32
9 3 1 3 -18 1 -21 -3 -71 5 -120 19 -47 13 -116 27 -155 30 -92 8 -254 36
-279 47 -17 7 -14 9 13 6 31 -4 32 -3 16 10 -11 7 -22 13 -27 13 -4 0 -8 9 -8
20 0 25 -15 26 -24 3 -6 -14 -9 -15 -15 -4 -5 7 -48 19 -97 26 -49 7 -102 17
-118 21 -27 7 -28 6 -21 -25 4 -20 3 -31 -4 -31 -6 0 -12 5 -12 10 -2 12 -5
27 -9 38 -2 4 -4 13 -4 21 -1 8 -7 16 -14 19 -9 3 -11 -3 -6 -22 4 -16 2 -26
-5 -26 -6 0 -11 4 -11 9 0 5 -8 12 -17 14 -17 4 -17 5 0 6 24 1 11 21 -14 21
-12 0 -19 -7 -19 -20 0 -11 -7 -20 -15 -20 -8 0 -20 9 -27 20 -14 21 -38 27
-38 9 0 -7 -7 -8 -17 -4 -10 4 -31 8 -46 10 -16 1 -33 8 -39 16 -7 10 -11 10
-14 3 -3 -7 -14 -10 -24 -7 -11 3 -20 1 -20 -4 0 -9 -96 -8 -165 2 -22 3 -56
7 -75 9 -51 5 -138 24 -160 36 -25 13 -30 13 -30 -3 0 -17 66 -49 110 -53 67
-5 106 -13 144 -29 21 -9 35 -11 31 -6 -11 18 5 12 28 -10 l22 -21 -50 6 c-27
4 -59 9 -70 12 -20 5 -20 5 -1 -10 19 -15 18 -16 -15 -16 -43 0 -112 19 -121
33 -3 6 -55 11 -123 13 -126 3 -131 5 -199 68 -21 20 -41 36 -45 36 -3 0 -24
27 -45 61 -24 36 -42 56 -46 49 -4 -7 -15 2 -28 24 -22 37 -12 52 10 16 7 -11
20 -20 29 -20 8 0 37 -20 64 -45 47 -43 66 -52 48 -23 -4 8 -35 39 -69 69 -33
31 -58 61 -56 67 2 7 -6 12 -18 12 -24 0 -148 82 -200 132 -19 19 -44 50 -54
69 -15 26 -20 30 -23 17 -5 -20 -18 -24 -28 -8 -3 6 -18 10 -33 10 -26 0 -201
106 -202 123 -1 16 28 5 60 -23 37 -33 45 -36 56 -19 4 7 -2 19 -13 28 -11 9
-23 24 -26 34 -8 23 -79 24 -102 1 -13 -13 -19 -14 -28 -4 -9 10 -9 14 0 17
15 5 5 33 -11 33 -18 0 -93 90 -98 117 0 5 -14 16 -29 25 -43 26 -39 98 5 98
12 0 28 6 35 13 10 10 15 8 26 -7 13 -17 14 -17 20 10 4 16 11 40 18 54 6 14
12 33 13 42 0 10 7 25 15 34 13 16 12 16 -9 5 -17 -9 -22 -19 -19 -32 4 -14
-2 -23 -19 -31 -13 -6 -24 -20 -24 -30 0 -11 -11 -23 -26 -28 -39 -15 -44 -13
-34 16 18 46 78 110 132 139 29 16 67 38 83 50 17 12 62 40 100 61 39 21 95
62 127 91 31 28 71 59 90 69 18 9 47 33 64 53 28 31 33 34 48 22 14 -12 23
-12 57 -1 27 9 36 16 27 22 -10 6 -9 8 4 8 10 0 22 -9 28 -20 6 -11 16 -20 23
-20 7 0 28 -18 48 -41 19 -23 41 -40 48 -38 9 3 -3 23 -33 54 -25 28 -46 53
-46 57 0 9 54 1 93 -14 15 -6 31 -7 35 -4 14 14 -29 34 -88 40 -44 5 -58 10
-54 21 4 11 -7 12 -58 8 l-63 -6 20 23 c18 20 26 21 75 16 30 -4 63 -7 73 -7
9 0 17 -4 17 -10 0 -5 5 -9 12 -9 13 0 145 -76 168 -97 27 -25 84 -63 120 -79
19 -9 45 -25 59 -35 13 -10 30 -19 38 -19 8 0 34 -16 57 -35 32 -26 53 -35 80
-35 21 0 35 -4 31 -9 -3 -6 4 -15 15 -21 15 -8 20 -8 20 1 0 16 50 2 75 -21
26 -23 71 -45 120 -59 22 -6 70 -31 107 -55 37 -25 78 -48 90 -52 37 -11 109
-64 102 -75 -3 -6 17 -20 45 -32 32 -13 50 -26 47 -34 -3 -8 4 -12 22 -11 35
1 128 -36 125 -49 -1 -6 4 -14 12 -17 8 -3 15 -1 15 4 0 13 21 13 40 0 13 -9
13 -11 0 -20 -10 -6 -11 -10 -3 -10 7 0 12 -5 10 -12 -1 -7 45 -30 108 -55
132 -52 237 -100 281 -130 45 -30 213 -103 245 -107 25 -3 198 -86 226 -108 7
-6 11 -13 8 -17 -2 -4 19 -16 48 -25 29 -10 80 -34 114 -52 35 -18 69 -31 76
-29 14 6 107 -49 107 -63 0 -9 177 -95 220 -107 14 -3 -3 11 -38 32 -95 57
-52 51 82 -12 64 -30 115 -51 112 -47 -3 5 -23 17 -45 27 -22 10 -38 21 -36
25 2 4 -17 16 -43 27 -156 68 -354 163 -340 163 9 0 29 -5 44 -10 15 -6 29 -9
31 -6 2 2 -39 21 -91 41 -53 20 -99 41 -102 46 -3 6 -15 7 -25 4 -11 -4 -25
-2 -32 3 -7 6 -47 22 -90 37 -108 37 -195 77 -179 82 10 4 8 9 -5 20 -17 13
-17 14 0 9 30 -10 18 3 -24 24 -22 12 -48 18 -58 15 -26 -8 -51 4 -44 21 4 11
-4 14 -33 14 -42 0 -69 15 -130 72 -72 67 -92 80 -116 72 -22 -7 -22 -7 -3
-16 14 -6 8 -7 -21 -4 -25 2 -67 20 -110 46 -192 118 -274 166 -329 191 -33
15 -73 42 -90 60 l-30 32 79 -42 c134 -71 103 -28 -54 73 -52 34 -109 66 -125
72 -50 17 -164 89 -260 164 -49 39 -123 87 -165 107 -71 35 -73 37 -45 43 28
5 26 7 -35 31 -235 95 -458 171 -498 170 -42 -1 -116 34 -141 65 -23 29 -35
31 -26 4 9 -27 2 -25 -40 11 -37 33 -48 63 -17 52 15 -6 15 -5 3 10 -12 15
-10 17 18 17 20 0 30 4 26 10 -4 6 -26 8 -56 4 -45 -6 -79 5 -79 25 0 16 72
53 95 49 13 -3 26 -1 28 5 6 18 112 10 153 -12 l39 -20 -35 -2 c-19 0 -46 -4
-60 -8 -14 -4 56 -8 155 -8 123 0 193 -4 220 -13 52 -17 252 -125 388 -209 59
-36 126 -77 150 -90 23 -14 73 -49 111 -78 60 -47 86 -62 86 -49 0 11 -153
124 -285 211 -82 55 -154 103 -160 107 -16 13 -96 56 -145 78 -25 11 -63 30
-85 41 -22 11 -65 33 -95 48 -81 41 -185 70 -291 81 -52 5 -110 14 -129 21
-55 18 -119 52 -124 66 -9 21 -67 45 -173 69 -140 31 -230 63 -264 92 -16 13
-32 21 -37 18 -5 -3 -32 9 -60 27 -28 18 -88 52 -132 76 -45 25 -100 61 -123
82 -34 29 -60 41 -132 58 -126 31 -248 73 -234 82 7 4 -10 5 -37 3 -27 -2 -41
-1 -31 2 20 6 22 20 5 26 -7 3 -38 4 -68 2 -64 -3 -77 5 -122 84 -46 81 -142
172 -234 221 -43 23 -95 57 -114 75 -52 49 -174 77 -220 50z m-75 -94 c-7 -11
14 -13 99 -10 40 1 56 -1 52 -9 -4 -6 -16 -11 -27 -11 -10 0 -19 -4 -19 -10 0
-5 23 -10 51 -10 27 0 48 -4 45 -9 -3 -4 22 -19 55 -32 63 -25 114 -68 92 -76
-23 -8 5 -43 35 -43 28 0 99 -49 72 -50 -9 0 -26 7 -38 16 -44 30 -42 8 2 -39
41 -42 45 -50 34 -67 -7 -11 -16 -20 -20 -20 -5 0 -8 -13 -8 -30 0 -37 -18
-39 -75 -10 -23 12 -41 16 -43 10 -6 -16 -52 -12 -52 5 0 9 -9 15 -25 15 -14
0 -53 12 -88 26 -34 14 -91 31 -127 39 -36 7 -85 21 -110 30 -36 14 -64 16
-144 10 -54 -3 -117 -13 -140 -20 -56 -20 -61 -19 -122 17 -55 33 -67 48 -38
48 30 0 7 25 -35 37 -67 19 -95 51 -48 54 12 1 4 5 -18 8 -70 11 -50 32 65 69
l105 33 162 -5 c167 -5 263 0 263 16 0 4 -42 8 -94 7 -52 -1 -102 4 -113 10
-13 8 17 10 120 11 90 0 136 -4 132 -10z m-735 -178 c0 -5 11 -14 24 -22 13
-7 27 -21 29 -32 4 -15 11 -18 29 -13 20 5 21 5 5 -6 -18 -10 -17 -13 9 -40
15 -16 25 -32 21 -35 -3 -3 -46 -6 -95 -5 -91 0 -197 26 -197 46 0 6 18 16 41
23 23 7 59 30 80 52 39 39 54 47 54 32z m185 -117 c30 -20 55 -40 55 -45 0 -6
-10 -20 -22 -32 -13 -13 -22 -29 -20 -35 2 -7 -6 -13 -18 -13 -11 0 -20 -6
-20 -14 0 -24 -13 -25 -80 -6 -88 25 -100 30 -100 46 0 7 -18 18 -40 24 -21 6
-42 15 -46 21 -4 8 1 9 17 4 13 -5 71 -13 128 -20 87 -10 105 -9 117 3 13 12
10 18 -16 45 -30 30 -39 57 -20 57 5 0 34 -16 65 -35z m615 -75 c11 -7 5 -8
-20 -4 -33 5 -34 5 -16 -10 11 -9 27 -16 35 -16 10 -1 7 -6 -9 -15 l-25 -13
30 -7 c17 -3 45 -13 63 -21 18 -8 51 -14 72 -14 22 0 40 -4 40 -10 0 -5 -5
-10 -11 -10 -5 0 -7 -4 -4 -10 3 -5 22 -10 41 -10 33 0 104 -23 104 -34 0 -3
-38 -3 -85 -1 -58 3 -97 11 -125 25 -21 11 -42 20 -46 20 -14 0 29 -40 50 -46
11 -3 54 -22 94 -41 49 -24 71 -41 70 -51 -2 -10 5 -18 17 -20 42 -7 48 -11
35 -26 -6 -8 -25 -18 -41 -21 -16 -4 -29 -11 -29 -16 0 -5 -6 -9 -13 -9 -7 0
-28 -11 -47 -25 -18 -14 -50 -28 -69 -31 -20 -3 -47 -13 -59 -21 -13 -8 -25
-13 -28 -11 -2 2 -6 42 -10 89 -6 80 -16 111 -30 96 -4 -4 -8 -59 -8 -122 -1
-99 -3 -114 -16 -108 -44 21 -321 7 -360 -18 -10 -7 1 -8 35 -4 126 14 302 17
324 6 24 -13 22 -41 -7 -74 -13 -15 -14 -20 -3 -26 10 -6 6 -22 -18 -69 -35
-69 -41 -103 -11 -57 18 27 20 28 20 8 0 -12 -16 -56 -35 -99 -19 -42 -32 -80
-30 -85 3 -5 -1 -22 -10 -40 -9 -17 -14 -33 -12 -35 3 -3 15 17 28 43 l24 48
3 -37 c2 -20 -2 -46 -7 -57 -6 -11 -8 -26 -5 -35 4 -9 -5 -25 -22 -41 -23 -22
-30 -24 -39 -12 -5 7 -35 21 -65 31 -30 10 -93 37 -140 60 -47 24 -103 49
-125 56 -56 18 -149 65 -164 84 -8 9 -29 24 -47 32 -28 14 -33 20 -28 40 7 26
-4 31 -26 12 -8 -7 -4 -1 9 15 14 15 20 27 13 27 -21 0 -25 41 -5 63 37 41 61
92 67 142 6 46 5 48 -9 31 -14 -19 -15 -18 -14 15 1 19 4 48 8 64 7 29 7 29
16 -15 l9 -45 4 43 c2 24 -2 50 -8 57 -9 11 -7 29 10 79 31 94 56 125 132 165
38 20 70 44 74 54 4 12 17 17 47 18 72 1 90 15 27 22 -37 3 -64 1 -83 -8 -19
-10 -27 -10 -25 -3 8 22 80 37 175 37 52 0 98 2 101 5 9 10 196 6 212 -4z
m882 -56 c15 -8 34 -14 42 -14 8 0 20 -9 26 -20 8 -16 21 -20 58 -20 26 0 63
-5 83 -10 31 -9 36 -14 33 -35 -1 -18 7 -34 28 -54 l31 -29 -28 6 c-37 7 -25
-13 18 -33 30 -13 30 -14 5 -9 -17 4 -28 2 -28 -5 0 -14 34 -36 90 -56 25 -9
56 -22 69 -28 24 -12 23 -12 -15 -17 -24 -3 -38 -10 -36 -18 1 -6 -7 -12 -18
-12 -17 0 -19 -4 -14 -27 8 -36 22 -52 32 -37 7 11 82 29 82 20 0 -18 -39 -36
-90 -42 -64 -7 -71 -12 -40 -31 32 -21 210 3 210 28 0 5 -16 9 -35 9 -19 0
-35 -4 -35 -8 0 -5 -7 -9 -16 -9 -14 0 -14 2 2 14 10 7 33 13 51 13 20 0 36 6
39 15 8 20 42 29 60 14 8 -7 34 -11 57 -10 99 4 125 4 175 -4 53 -8 53 -8 34
-28 -13 -12 -25 -16 -33 -11 -23 14 -160 15 -157 1 4 -24 -13 -55 -35 -60 -58
-14 -238 -28 -292 -22 -61 6 -149 42 -197 81 -15 12 -24 24 -21 27 3 3 -12 14
-34 25 -37 19 -97 78 -119 117 -10 19 -55 45 -122 73 -18 8 -30 17 -27 21 2 5
-7 13 -20 19 -32 15 -31 24 3 64 29 33 55 92 45 101 -3 3 -12 3 -21 0 -10 -4
-13 -2 -8 6 5 8 19 10 37 6 19 -4 29 -3 29 5 0 13 63 4 102 -16z m-248 -290
c4 -9 9 -14 12 -11 10 10 78 -29 91 -52 16 -25 66 -52 113 -61 19 -3 34 -12
32 -18 -4 -20 55 -50 173 -88 84 -28 150 -41 275 -55 159 -19 294 -18 245 2
-11 4 -38 8 -60 8 -55 1 -33 20 33 28 42 5 55 2 78 -16 15 -11 33 -21 41 -21
17 0 103 -83 103 -99 0 -6 4 -11 10 -11 5 0 7 -7 4 -15 -4 -9 3 -19 20 -26 14
-7 23 -15 21 -20 -3 -4 11 -24 32 -44 l37 -36 -29 -25 -30 -25 30 3 c17 1 36
-1 43 -5 18 -12 15 -72 -5 -88 -38 -32 -112 -130 -107 -143 6 -15 -92 -130
-134 -158 -19 -12 -30 -14 -39 -6 -8 6 -13 7 -13 1 0 -6 -18 -22 -40 -37 -23
-15 -45 -37 -50 -50 -4 -13 -29 -36 -54 -52 -25 -16 -46 -33 -46 -38 0 -5 -18
-25 -40 -44 -33 -28 -38 -37 -29 -49 7 -7 18 -12 25 -9 10 4 11 -1 3 -21 -17
-45 -22 -47 -33 -12 -13 40 -50 55 -44 17 2 -14 -2 -23 -9 -22 -7 1 -26 2 -43
3 -20 0 -35 10 -46 26 -15 23 -15 27 -2 43 17 19 13 42 -6 42 -9 0 -13 -15
-14 -42 0 -61 0 -61 -18 -43 -15 15 -15 17 1 35 16 18 16 20 1 26 -9 3 -14 10
-11 14 3 4 -1 13 -9 19 -16 13 -15 57 1 54 6 -1 9 6 6 18 -5 19 -7 19 -32 3
-60 -38 -98 -85 -85 -105 4 -6 18 4 36 25 25 31 31 34 44 22 20 -21 17 -34 -8
-38 -26 -3 -36 -41 -18 -63 11 -13 2 -14 -56 -12 -50 2 -100 14 -184 44 -170
61 -248 85 -268 81 -26 -6 81 -53 171 -76 85 -22 104 -31 66 -33 -21 -1 -21
-2 6 -9 29 -7 29 -8 -10 -10 l-40 -2 40 -13 c22 -6 79 -11 127 -10 54 1 95 -3
110 -11 21 -12 20 -13 -17 -8 -34 5 -30 1 35 -26 41 -17 82 -38 90 -47 13 -14
13 -14 -7 -4 -25 13 -43 14 -43 3 0 -8 70 -32 94 -32 22 0 116 -83 116 -102 0
-13 -11 -20 -41 -24 -31 -5 -43 -13 -50 -32 -5 -14 -7 -33 -3 -41 4 -9 6 -20
5 -24 0 -4 3 -16 8 -26 17 -30 -30 -43 -174 -46 -71 -2 -146 -8 -165 -14 -19
-6 -57 -11 -85 -11 -60 0 -88 -14 -65 -31 11 -8 5 -9 -25 -4 -102 16 -121 16
-178 -4 -55 -19 -60 -19 -110 -4 -28 9 -59 22 -68 30 -8 7 -22 13 -30 13 -9 0
-4 -8 11 -20 l25 -20 -45 0 c-26 0 -51 5 -57 11 -13 13 -88 8 -183 -13 -61
-13 -63 -15 -42 -26 15 -9 38 -11 66 -7 33 5 44 3 49 -8 5 -12 13 -13 49 -5
75 16 209 14 243 -5 25 -13 26 -16 10 -17 -19 -1 -19 -1 -2 -14 9 -7 17 -22
17 -33 0 -11 7 -38 16 -59 11 -24 17 -70 18 -120 1 -67 -2 -85 -18 -103 -26
-29 -34 -112 -12 -130 9 -7 16 -17 16 -21 0 -7 -93 15 -197 46 -16 4 -25 1
-29 -10 -3 -9 -13 -16 -21 -16 -8 0 -12 4 -9 9 7 10 -52 26 -61 17 -3 -3 5
-10 18 -15 24 -10 24 -10 2 -10 -24 -1 -99 25 -121 42 -19 15 -7 20 18 7 11
-6 26 -9 33 -7 7 2 -1 10 -18 18 -16 7 -58 30 -93 51 -34 21 -68 38 -75 38
-19 0 -129 73 -166 110 -31 31 -32 32 -123 29 l-93 -3 -23 34 c-34 50 -35 50
-28 -5 5 -42 4 -47 -7 -31 -6 11 -30 40 -52 66 -23 25 -47 60 -54 78 -7 17
-17 30 -21 27 -4 -3 -12 1 -18 8 -13 17 -35 114 -29 131 7 18 115 100 167 126
23 12 48 19 55 16 7 -2 21 4 30 14 9 10 45 35 80 56 67 39 151 105 107 84 -49
-24 -28 -3 50 50 44 30 87 60 96 65 9 6 28 18 41 28 31 22 49 22 28 -1 -39
-43 -2 -44 38 -2 20 20 38 30 59 30 33 0 146 40 146 52 0 5 -8 8 -17 9 -10 1
-3 5 16 9 18 4 69 6 112 4 50 -2 79 1 79 7 0 6 10 10 23 9 53 -5 118 1 113 9
-4 5 -29 12 -56 16 -28 4 -48 10 -45 15 10 16 -27 19 -156 14 -79 -3 -142 -10
-158 -18 -14 -7 -41 -16 -59 -19 -29 -6 -34 -3 -43 20 -5 14 -8 34 -6 42 1 9
-7 36 -20 60 -13 24 -23 59 -23 77 0 18 -4 36 -10 39 -6 3 -8 38 -5 83 l5 77
-20 -40 c-11 -22 -20 -34 -20 -26 0 30 22 137 35 166 21 46 35 106 24 99 -6
-3 -14 -16 -19 -28 -9 -21 -9 -21 -9 0 -1 11 6 29 14 40 16 22 20 58 5 49 -19
-12 -10 20 26 95 24 51 55 95 97 138 62 62 62 90 0 30 -18 -18 -33 -27 -33
-21 0 33 150 124 260 159 46 14 118 43 159 65 82 42 125 49 135 23z m-1326
-543 c84 -46 244 -121 256 -121 8 0 20 -9 26 -20 6 -11 14 -19 18 -17 5 1 36
-26 70 -61 48 -49 62 -70 62 -93 0 -38 16 -69 35 -69 12 0 15 -14 15 -57 0
-87 -14 -126 -50 -140 -28 -11 -43 -43 -19 -43 7 0 5 -10 -5 -25 -33 -50 -10
-67 37 -27 15 13 17 13 17 0 0 -9 -7 -32 -15 -52 -12 -27 -23 -38 -45 -42 -16
-4 -37 -15 -47 -27 -18 -20 -17 -20 5 -15 12 4 22 5 22 3 0 -5 -153 -130 -183
-150 -35 -22 -46 -13 -21 17 l19 23 -26 -22 c-14 -13 -30 -23 -35 -23 -18 0
-85 -78 -72 -83 10 -4 10 -6 0 -6 -7 -1 -43 29 -79 67 -37 37 -64 61 -59 55 4
-8 2 -13 -8 -13 -8 0 -18 5 -21 10 -3 6 -13 10 -21 10 -24 0 -17 -61 12 -104
17 -25 29 -62 36 -108 10 -68 10 -73 -17 -126 -19 -38 -37 -58 -56 -66 -34
-12 -36 -26 -11 -50 13 -11 28 -14 50 -10 36 7 40 -1 16 -28 -23 -25 -8 -99
22 -112 25 -11 48 -68 39 -95 -3 -11 -36 -40 -73 -65 l-67 -45 -84 5 c-81 5
-86 7 -141 50 -31 24 -61 44 -66 44 -5 0 -27 21 -48 46 l-39 46 6 107 c6 98 4
111 -17 156 -13 28 -38 65 -55 84 -38 43 -40 82 -6 119 14 15 32 51 41 81 9
31 22 64 30 75 8 11 14 28 14 38 0 9 11 29 25 44 14 15 25 33 25 40 0 8 4 14
9 14 5 0 7 -10 5 -22 -5 -22 -4 -22 8 -4 7 11 32 39 56 62 23 23 42 47 42 52
0 6 18 30 40 53 22 23 38 45 35 47 -8 8 -110 -21 -127 -36 -12 -9 -18 -11 -18
-4 0 7 4 12 9 12 12 0 61 84 61 105 0 22 -23 14 -30 -11 -10 -38 -41 -85 -52
-78 -14 9 -3 101 14 121 7 9 13 39 13 68 1 61 38 131 85 165 37 26 56 58 42
72 -6 6 -17 6 -31 -1 -29 -16 -27 -9 13 46 65 89 154 141 244 142 29 1 60 -3
70 -8z m4062 -121 c19 -10 55 -24 80 -31 54 -15 100 -54 100 -85 0 -24 35 -73
45 -62 4 3 8 14 9 25 2 11 14 20 32 24 l29 6 -25 11 c-23 10 -21 11 23 11 84
1 191 -28 344 -93 81 -35 200 -81 263 -104 149 -53 293 -115 326 -141 15 -12
34 -21 44 -21 18 0 157 -73 175 -92 6 -5 -18 4 -52 21 -85 42 -114 39 -33 -4
75 -39 65 -43 -34 -15 -70 20 -83 20 -72 1 8 -13 158 -61 193 -61 31 -1 117
-21 178 -43 22 -8 86 -20 142 -27 56 -7 100 -17 97 -22 -9 -14 25 -21 41 -8
19 16 67 8 126 -18 50 -23 129 -45 135 -39 7 6 -61 37 -81 37 -9 0 -14 4 -10
9 3 5 -3 12 -12 14 -10 3 -3 5 16 6 48 1 34 10 -35 21 -57 9 -56 9 26 5 102
-5 195 -32 288 -84 37 -22 83 -46 102 -54 19 -8 55 -36 78 -63 24 -27 55 -61
68 -75 24 -26 32 -45 14 -34 -21 13 -9 -9 31 -57 23 -27 43 -47 46 -44 9 8 53
-42 48 -55 -2 -8 5 -25 16 -39 17 -21 19 -22 10 -3 -13 26 -14 36 -2 29 38
-24 77 -279 49 -328 -7 -13 -11 -27 -10 -31 6 -21 -61 36 -123 103 -27 30 -70
75 -95 100 -25 25 -57 60 -70 79 -24 34 -24 34 -2 29 30 -8 27 0 -17 51 -39
44 -76 60 -186 81 -22 4 -58 14 -80 22 -112 42 -131 45 -155 23 -15 -14 -28
-12 -121 15 -57 16 -113 30 -124 30 -11 0 -47 13 -80 29 -65 32 -230 85 -390
124 -98 25 -310 117 -286 125 7 2 40 -9 74 -26 34 -17 76 -33 92 -36 44 -9
-122 68 -176 82 -26 6 -54 14 -63 18 -9 3 -16 1 -16 -4 0 -6 9 -14 21 -17 11
-4 18 -9 15 -12 -2 -3 -34 5 -70 17 -67 22 -89 36 -38 24 20 -5 24 -4 16 5 -5
6 -64 29 -130 52 -65 22 -126 49 -134 58 -9 10 -36 31 -60 46 -25 15 -53 37
-62 49 -15 17 -20 18 -27 7 -7 -11 -14 -10 -40 8 -17 12 -31 28 -31 34 0 9 2
9 8 1 4 -6 17 -17 30 -23 22 -12 23 -11 12 9 -6 12 -19 24 -28 27 -76 24 -133
54 -169 88 -49 46 -48 45 -128 106 -135 102 -172 129 -179 129 -4 0 9 -16 30
-35 20 -19 34 -38 30 -42 -3 -4 -21 7 -39 24 -17 16 -49 42 -69 58 -21 15 -35
32 -32 37 3 5 -2 18 -11 28 -17 19 -16 19 21 14 22 -3 55 -14 74 -24z m-2765
-1367 c-9 -98 -18 -139 -33 -156 -14 -16 -14 -19 -2 -27 8 -6 21 -10 28 -10
15 0 15 -23 1 -73 -9 -33 -8 -42 7 -58 9 -11 14 -22 10 -26 -4 -4 -15 3 -25
16 -14 18 -20 20 -23 10 -5 -12 -8 -12 -19 -1 -12 11 -11 15 3 23 16 9 17 13
3 46 -34 80 -7 303 37 303 15 0 17 -7 13 -47z m-845 -118 c25 -25 44 -55 51
-80 12 -48 45 -119 73 -158 21 -30 93 -73 104 -63 3 3 3 7 1 9 -53 37 -79 61
-79 73 0 18 28 12 76 -17 33 -20 64 -25 64 -10 0 4 -24 23 -52 41 -29 18 -48
35 -42 37 19 6 166 -47 215 -78 51 -32 80 -39 59 -14 -10 13 -9 15 10 15 12 0
45 -6 73 -14 70 -19 139 -29 112 -16 -11 5 -33 15 -50 21 -27 9 -28 12 -12 20
21 12 119 5 160 -10 16 -6 32 -9 37 -6 11 7 40 -5 40 -16 0 -6 -10 -5 -22 2
-15 7 -9 -2 15 -25 20 -19 37 -39 37 -45 0 -5 -21 -13 -47 -17 -40 -6 -44 -8
-25 -15 23 -9 30 -45 10 -51 -9 -3 -8 -18 5 -57 21 -66 22 -117 2 -125 -20 -7
-19 -59 1 -99 9 -17 18 -51 20 -74 2 -34 -1 -43 -16 -48 -11 -3 -81 6 -157 20
-97 19 -153 25 -189 20 -45 -5 -59 -2 -125 31 -41 20 -105 59 -143 86 -66 46
-106 60 -106 38 0 -6 18 -23 39 -38 21 -15 44 -36 51 -46 11 -17 10 -18 -12
-12 -136 40 -168 44 -168 21 0 -11 -12 -15 -49 -15 -54 0 -73 13 -42 29 31 17
14 111 -20 111 -12 0 -12 -37 0 -58 12 -22 -6 -48 -43 -62 -48 -18 -56 -14
-56 31 0 44 -14 45 -23 1 -6 -28 -42 -82 -56 -82 -5 0 -6 12 -3 26 4 24 3 25
-17 15 -11 -7 -29 -24 -38 -39 -25 -41 -95 -112 -105 -106 -4 3 -5 22 -2 43 6
36 4 39 -27 52 -19 7 -38 13 -43 11 -4 -2 -6 28 -3 65 l6 68 -16 -64 c-17 -69
-28 -68 -39 5 -4 32 0 52 19 90 13 27 28 65 32 84 l7 35 -22 -20 -23 -20 7 40
c4 22 24 76 46 120 40 82 105 157 223 258 31 26 54 53 52 60 -13 35 53 68 128
64 51 -3 62 -7 97 -42z m4264 -305 c115 -30 246 -83 246 -100 0 -5 9 -12 21
-15 25 -8 86 -61 100 -87 10 -18 9 -19 -13 -8 -13 7 -34 23 -48 35 -14 13 -47
30 -73 39 -26 9 -58 22 -70 30 -29 18 -200 76 -225 76 -11 0 -62 16 -113 35
l-94 34 77 -5 c42 -2 129 -18 192 -34z m2387 -58 c37 -22 80 -77 97 -122 9
-22 17 -129 13 -167 -2 -28 -33 -10 -53 32 -14 28 -29 45 -42 47 -11 2 -26 13
-32 26 -6 12 -22 34 -34 47 -13 14 -19 25 -13 25 5 0 18 -9 28 -20 22 -24 35
-26 35 -4 0 9 -9 18 -19 21 -11 3 -21 15 -23 27 -2 13 -10 21 -23 21 -13 0
-26 12 -37 35 -10 19 -27 42 -38 50 -35 27 97 10 141 -18z m-6686 -411 c3 -6
-2 -14 -11 -19 -13 -7 -10 -10 17 -16 23 -4 37 -1 51 11 18 16 28 14 78 -16
62 -38 233 -80 325 -79 84 1 95 -1 95 -17 0 -8 9 -15 20 -15 11 0 23 -7 26
-15 4 -8 35 -31 70 -51 37 -21 66 -44 70 -57 3 -12 21 -51 39 -87 22 -44 30
-72 25 -85 -4 -11 -10 -45 -14 -75 -8 -64 -17 -78 -69 -108 -55 -32 -87 -27
-54 7 10 11 8 13 -13 7 -14 -3 -42 -6 -62 -6 -31 0 -38 -4 -38 -20 0 -28 -8
-25 -65 18 -84 63 -198 136 -255 163 -68 33 -178 60 -199 48 -9 -4 -28 -10
-43 -13 -19 -4 -26 -11 -22 -21 4 -8 1 -15 -5 -15 -6 0 -8 -6 -5 -14 3 -9 -5
-16 -23 -21 l-28 -8 35 -8 c19 -5 77 -11 128 -14 104 -5 141 -21 173 -71 27
-44 24 -47 -21 -24 -21 11 -42 20 -45 20 -9 0 11 -33 38 -62 27 -29 21 -44
-15 -32 -19 6 -18 1 14 -57 26 -48 35 -76 35 -114 0 -35 9 -66 27 -100 36 -66
94 -148 113 -159 50 -28 69 -68 38 -80 -17 -6 -20 -37 -6 -51 6 -6 13 -29 17
-52 5 -36 4 -43 -10 -43 -9 0 -16 -6 -16 -13 0 -20 37 -50 50 -42 6 3 19 -4
29 -16 l19 -23 8 34 c4 19 7 39 5 45 -1 5 -7 34 -12 65 -6 30 -16 60 -24 66
-17 13 -33 70 -16 60 6 -4 11 -3 11 2 0 6 -7 12 -15 16 -18 7 -20 53 -3 58 10
4 10 15 0 54 -6 27 -15 82 -19 123 -5 62 -4 73 8 66 20 -12 35 -35 77 -117 36
-70 37 -71 40 -40 2 23 -6 50 -27 87 -39 68 -39 80 -2 61 24 -13 29 -23 34
-63 4 -40 12 -54 45 -83 50 -44 62 -83 66 -232 2 -67 10 -131 19 -158 9 -25
19 -63 23 -85 9 -53 21 -75 38 -69 9 3 15 -4 18 -21 6 -32 -7 -41 -28 -21 -8
9 -20 16 -25 16 -20 0 -7 -43 46 -152 33 -67 58 -133 62 -163 6 -49 43 -118
43 -81 0 30 18 7 35 -45 16 -46 16 -52 1 -68 -15 -17 -15 -20 0 -48 17 -29 14
-83 -5 -83 -12 0 -105 149 -98 156 3 4 16 -1 29 -10 47 -33 35 -14 -32 53 -51
50 -80 89 -105 142 -20 41 -45 90 -55 109 -11 19 -30 59 -42 89 -29 72 -35 48
-8 -34 12 -35 19 -69 15 -75 -3 -6 5 -35 19 -66 33 -71 33 -84 1 -54 -14 13
-25 18 -25 12 0 -10 72 -121 114 -174 12 -14 37 -50 56 -78 19 -29 54 -76 78
-106 23 -29 42 -61 42 -71 0 -9 24 -48 53 -87 79 -104 87 -118 87 -145 0 -14
9 -44 21 -67 36 -75 82 -218 83 -256 0 -46 -27 -85 -77 -113 -20 -11 -41 -30
-46 -42 -6 -13 -19 -23 -28 -23 -32 0 -94 -21 -88 -30 7 -11 -28 -22 -63 -20
-44 3 -49 0 -18 -13 l29 -13 -35 -30 c-28 -25 -48 -33 -96 -38 -61 -7 -182 10
-182 25 0 4 -15 11 -32 14 -41 9 -94 40 -132 77 -15 15 -32 28 -37 28 -15 0
-10 29 7 38 22 12 14 45 -14 57 -14 6 -27 25 -34 48 -10 33 -9 45 11 90 54
122 58 186 21 342 -11 44 -24 107 -30 140 -19 100 -32 136 -47 131 -10 -4 -12
1 -7 18 3 13 1 27 -5 30 -6 4 -11 31 -11 59 0 54 -3 61 -56 140 -18 26 -35 68
-39 93 -8 56 -36 138 -69 205 -15 29 -26 68 -26 90 0 22 -7 56 -15 76 -8 19
-15 46 -15 60 0 13 -11 48 -24 77 -22 47 -24 63 -19 128 4 57 1 88 -12 127
-12 38 -15 67 -11 102 7 55 -6 66 -23 19 -13 -37 -26 -38 -45 -2 -8 15 -29 41
-46 57 -18 17 -46 59 -63 95 -16 36 -51 103 -77 150 -26 47 -50 101 -54 122
-4 20 -13 39 -21 42 -21 8 -19 52 5 128 11 34 20 76 20 91 0 36 16 67 35 67 7
0 17 9 20 20 4 11 17 32 29 48 13 15 25 36 27 47 2 11 32 38 69 63 35 23 60
42 55 42 -6 0 -1 7 9 15 22 17 101 20 111 6z m5473 -936 c12 -14 26 -25 31
-25 6 0 16 -12 23 -27 8 -16 21 -27 29 -25 25 4 134 -134 140 -178 3 -16 10
-25 22 -25 49 0 37 -80 -19 -125 -16 -13 -21 -20 -11 -17 11 4 17 1 17 -8 0
-20 36 -19 44 0 5 14 47 21 58 9 14 -13 -6 -44 -28 -44 l-24 0 20 -37 c11 -21
20 -47 21 -58 1 -22 27 -96 28 -80 1 6 -7 41 -16 78 -20 75 -17 81 40 94 31 6
33 12 12 39 -8 10 -15 30 -15 43 0 13 -14 41 -31 62 -37 47 -22 51 30 9 24
-20 82 -45 162 -71 136 -44 162 -59 109 -60 -29 0 -31 -2 -15 -9 11 -5 37 -9
58 -9 20 -1 37 -5 37 -11 0 -5 22 -10 48 -10 27 0 62 -6 78 -14 64 -32 93 -42
131 -44 12 -1 37 -15 55 -31 18 -16 71 -49 117 -75 76 -42 221 -142 221 -152
0 -3 -15 3 -32 12 -50 25 -20 0 37 -31 28 -15 65 -39 84 -53 94 -74 140 -104
182 -116 25 -8 70 -27 100 -44 30 -16 78 -37 106 -47 29 -9 55 -21 58 -26 10
-16 -46 -30 -94 -24 -45 6 -46 5 -23 -11 l24 -18 -24 -18 -23 -18 40 1 c42 1
111 16 85 18 -24 2 37 38 89 52 25 7 48 16 51 19 6 9 112 40 135 40 9 0 26
-11 37 -25 11 -14 26 -25 34 -25 8 0 17 -7 20 -15 7 -17 87 -49 106 -43 15 6
-43 38 -68 38 -13 0 -14 3 -5 14 10 12 5 17 -28 27 -23 7 -41 16 -41 21 0 11
35 9 97 -5 63 -15 84 -40 89 -103 4 -49 10 -64 25 -64 6 0 8 4 5 9 -10 15 -16
83 -8 79 5 -2 25 -22 46 -45 40 -45 52 -90 38 -138 -10 -33 -16 -25 -26 36 -4
19 -13 44 -22 55 -15 18 -15 18 -10 -6 2 -14 11 -50 20 -80 13 -47 13 -64 3
-104 l-12 -49 -85 -30 c-77 -28 -96 -31 -195 -30 -74 1 -103 -1 -87 -7 12 -5
22 -13 22 -19 0 -5 10 -11 22 -14 21 -6 19 -9 -26 -53 -48 -45 -50 -46 -97
-41 -27 3 -49 2 -49 -3 0 -11 64 -24 89 -17 34 9 46 -8 25 -36 -25 -33 -66
-57 -97 -57 -33 0 -43 -16 -14 -23 36 -9 142 -1 166 13 13 6 35 14 49 16 15 3
37 12 49 20 25 16 67 19 58 4 -9 -15 0 -12 63 20 33 17 67 30 76 30 9 0 16 5
16 10 0 6 10 14 23 19 89 36 87 35 87 66 -1 27 -2 28 -12 10 -14 -25 -49 -54
-66 -55 -11 0 33 75 58 100 6 6 25 36 45 73 16 27 13 47 -6 47 -5 0 -9 -8 -9
-18 0 -10 -7 -27 -16 -38 -15 -18 -15 -17 -10 15 3 18 6 48 6 65 0 17 5 38 10
46 9 13 12 13 21 -3 6 -9 14 -15 19 -12 21 13 184 -165 166 -182 -8 -8 -66 46
-66 61 -1 6 -11 24 -24 40 -21 25 -26 27 -39 15 -13 -12 -12 -18 8 -44 12 -16
27 -44 34 -62 11 -28 48 -50 73 -45 4 1 20 -17 35 -41 15 -23 34 -51 43 -62
26 -32 72 -144 64 -157 -12 -19 -11 -81 2 -115 12 -32 85 -93 110 -93 7 0 19
-10 25 -22 25 -48 101 -126 127 -132 15 -4 49 -30 75 -59 38 -41 47 -47 41
-27 -3 14 -26 46 -50 72 -24 26 -44 52 -44 59 0 11 100 -89 300 -302 157 -167
228 -226 305 -254 37 -13 86 -37 109 -52 l41 -28 -60 -5 c-46 -5 -54 -7 -35
-13 14 -4 50 -9 80 -10 62 -3 135 -44 135 -75 0 -10 8 -17 19 -17 11 0 21 -6
24 -13 2 -7 -2 -10 -12 -6 -11 4 -16 1 -16 -10 0 -10 9 -16 23 -17 12 0 16 -3
10 -6 -16 -6 -17 -45 -2 -60 8 -8 5 -13 -10 -18 -30 -9 -26 -26 6 -23 20 2 28
-2 31 -16 4 -17 0 -18 -36 -12 -36 5 -40 4 -46 -18 -5 -20 -14 -25 -63 -32
-32 -5 -75 -7 -95 -6 -22 2 -38 -1 -38 -7 0 -17 36 -31 79 -31 22 0 42 -4 45
-9 7 -10 -48 -26 -75 -23 -8 2 -29 -4 -45 -13 -19 -9 -57 -15 -106 -15 -73 0
-101 -12 -63 -26 12 -5 13 -10 4 -20 -13 -16 -6 -18 56 -14 22 1 36 -2 32 -6
-4 -5 -45 -11 -90 -14 -77 -5 -107 -20 -55 -29 22 -3 21 -4 -7 -16 -29 -13
-28 -13 20 -9 43 4 46 3 25 -6 -14 -6 -41 -10 -62 -8 -20 2 -34 0 -32 -4 3 -5
-3 -8 -13 -8 -23 0 -43 -19 -43 -40 0 -17 -45 -44 -59 -36 -4 3 -5 -8 -3 -24
4 -30 50 -59 71 -45 6 3 11 2 11 -4 0 -5 -6 -12 -12 -14 -7 -3 10 -6 37 -7 44
-1 47 -3 27 -12 -16 -8 -32 -8 -61 2 -21 7 -48 9 -60 5 -22 -7 -30 10 -8 18 6
3 2 6 -9 6 -12 1 -27 8 -34 16 -7 8 -18 15 -24 15 -16 0 -96 102 -126 161 -42
82 -221 360 -277 430 -29 36 -62 70 -72 75 -11 5 -62 55 -115 112 -70 75 -96
110 -96 129 0 14 -10 36 -22 48 -41 41 -50 56 -44 71 3 7 14 14 25 14 20 0 38
17 28 26 -3 3 -14 1 -24 -5 -15 -8 -23 -6 -36 9 -15 18 -14 21 11 52 15 17 39
43 53 57 28 28 46 75 26 68 -7 -2 -17 -14 -24 -27 -16 -32 -40 -44 -98 -47
-103 -6 -100 -5 -103 -45 -3 -33 -7 -38 -27 -38 -15 0 -29 9 -36 22 -11 20
-13 20 -24 5 -19 -26 -32 -20 -39 16 -5 22 -9 28 -15 19 -4 -7 -6 -24 -3 -38
3 -17 0 -24 -11 -24 -19 0 -29 25 -21 56 4 14 2 24 -5 24 -10 0 -18 -21 -23
-69 -3 -22 -5 -23 -18 -10 -9 8 -26 20 -39 27 -21 12 -22 11 -21 -10 4 -47 2
-50 -32 -43 -34 7 -62 25 -40 25 10 0 10 5 1 21 -6 12 -9 37 -6 56 5 29 3 34
-11 31 -10 -2 -16 -11 -14 -21 2 -9 -4 -20 -13 -23 -16 -6 -21 -44 -6 -44 5 0
11 -11 13 -25 6 -28 -3 -32 -22 -10 -7 8 -21 15 -31 15 -20 0 -64 38 -55 47 2
3 15 -2 28 -11 37 -26 55 -20 28 9 -19 21 -21 25 -7 25 9 0 17 5 17 10 0 6 0
13 0 18 0 4 -6 7 -12 7 -7 0 -13 11 -13 25 0 15 -7 26 -17 28 -13 3 -16 -1
-11 -14 6 -15 4 -15 -20 1 -16 10 -27 13 -27 6 0 -25 -19 -8 -35 31 -17 42
-17 43 6 58 101 65 157 133 180 214 6 23 18 40 29 43 11 3 16 11 13 18 -2 8
10 41 28 75 34 65 32 93 -5 47 -14 -18 -28 -26 -38 -22 -9 4 -19 2 -23 -4 -9
-16 -25 -13 -25 4 0 8 -4 15 -10 15 -5 0 -10 -10 -10 -22 0 -12 -6 -37 -12
-56 -10 -28 -10 -36 0 -39 42 -15 -23 -110 -91 -134 -37 -13 -71 -49 -47 -49
6 0 8 -4 5 -10 -3 -5 -15 -10 -25 -10 -10 0 -26 -7 -35 -16 -26 -27 -90 -2
-144 55 -41 44 -90 127 -106 181 -7 25 -7 25 25 -5 l32 -30 -16 33 c-10 18
-24 36 -32 39 -7 3 -14 11 -14 19 0 18 -173 188 -235 230 -27 19 -70 52 -95
74 -37 32 -41 38 -20 33 22 -6 24 -5 12 10 -19 23 -280 159 -292 152 -5 -3
-55 18 -110 46 -56 29 -141 63 -188 76 -215 59 -397 103 -469 111 -104 13
-362 7 -446 -9 -55 -11 -77 -11 -125 0 -31 7 -65 14 -74 14 -9 1 -14 5 -11 10
3 5 -3 7 -13 3 -13 -3 -25 3 -37 20 -22 30 -15 44 11 21 13 -12 36 -16 87 -15
l70 1 -34 14 c-45 19 -121 71 -121 83 0 6 11 10 25 10 31 0 31 3 -1 35 -21 21
-29 24 -35 14 -6 -10 -10 -7 -17 11 -8 22 -5 28 24 48 39 26 75 32 81 14 3 -7
1 -12 -4 -11 -21 4 -33 -2 -33 -17 0 -11 8 -14 27 -12 34 4 43 36 17 55 -25
19 -10 27 50 28 35 1 62 8 82 21 37 26 64 36 64 24 0 -6 -5 -10 -12 -10 -6 0
-9 -3 -6 -6 4 -3 16 0 28 6 15 8 19 15 11 19 -8 5 -5 13 10 27 22 20 90 157
104 209 4 17 10 24 12 18 10 -28 21 -10 16 27 -4 30 -2 41 10 46 22 8 33 95
15 125 -7 13 -17 27 -22 30 -4 4 -3 10 3 13 6 4 11 31 11 61 0 34 5 59 15 69
15 15 12 39 -10 66 -7 8 -15 23 -18 33 -6 16 -5 16 24 1 17 -8 33 -13 36 -10
9 9 -18 36 -36 36 -18 0 -53 35 -44 44 11 10 19 7 41 -19z m695 -90 c9 -20 24
-38 32 -41 10 -4 15 -20 15 -44 0 -26 8 -48 25 -68 14 -17 25 -36 25 -43 0
-12 2 -12 9 -1 7 11 12 12 29 1 17 -11 19 -17 10 -33 -10 -19 -11 -19 -24 -1
-20 27 -17 16 10 -37 23 -46 24 -46 35 -22 6 14 11 34 11 45 0 21 26 37 40 23
4 -5 -1 -34 -11 -64 -16 -50 -17 -56 -3 -67 9 -6 13 -16 10 -21 -5 -9 7 -16
69 -42 19 -8 25 -14 16 -18 -15 -5 -133 28 -142 40 -15 21 -75 58 -96 58 -13
0 -40 10 -61 23 -20 13 -45 27 -56 30 -14 6 -17 15 -14 47 2 22 -1 40 -6 40
-6 0 12 14 38 31 62 39 53 50 -11 13 -116 -67 -134 -74 -154 -61 -10 6 -19 19
-19 28 0 9 -7 19 -15 22 -8 4 -18 21 -23 38 -9 37 -32 51 -32 20 0 -12 -6 -21
-14 -21 -18 0 -30 30 -16 44 5 5 10 21 10 36 1 24 1 24 15 6 14 -18 35 -14 35
7 0 21 60 47 108 48 26 1 58 5 72 9 50 16 66 11 83 -25z m393 -335 c8 -25 14
-62 14 -82 0 -33 -3 -38 -22 -38 -23 0 -60 21 -107 58 -21 17 -23 25 -18 67
10 70 18 76 74 56 41 -14 47 -21 59 -61z m-791 -793 c108 -31 165 -54 165 -67
0 -13 -63 -70 -98 -89 -25 -13 -39 -16 -124 -27 -45 -6 -138 14 -110 23 6 3
12 11 12 18 0 8 9 15 20 17 12 2 21 8 20 13 -1 16 -52 26 -100 18 -71 -11
-156 -5 -191 12 l-31 17 31 28 c17 16 31 34 31 39 0 19 30 12 53 -13 19 -20
34 -24 117 -29 52 -4 108 -9 124 -13 21 -5 27 -3 24 6 -2 8 -38 22 -79 32 -41
10 -94 25 -119 33 -44 13 -42 14 60 10 73 -2 133 -11 195 -28z m-361 -148 c48
-10 55 -14 36 -21 -35 -13 -17 -32 36 -39 78 -10 154 -26 161 -32 9 -10 -45
-27 -62 -21 -18 7 -20 -7 -4 -23 8 -8 20 -7 44 3 37 15 45 11 46 -25 l1 -26
11 28 c9 23 16 27 51 27 l41 -1 -36 -32 c-75 -67 -160 -170 -154 -186 7 -18
-251 -276 -326 -326 -66 -44 -116 -90 -111 -103 2 -6 -1 -19 -6 -28 -8 -14
-11 -9 -18 27 -4 24 -7 48 -5 53 4 17 -9 56 -19 56 -15 0 -12 -67 5 -130 8
-30 15 -65 15 -78 0 -32 -27 -57 -64 -59 -66 -3 -117 -11 -129 -20 -42 -34
-54 -34 -92 1 -22 21 -32 35 -24 38 8 3 -2 23 -28 59 -47 64 -95 106 -139 125
-17 7 -39 23 -48 36 l-17 23 6 -27 c4 -23 2 -28 -14 -28 -28 0 -34 15 -39 87
-3 58 -2 63 17 63 13 0 21 6 21 16 0 11 -6 15 -20 11 -11 -3 -18 -1 -14 4 3 5
12 9 20 9 21 0 17 18 -7 31 l-21 11 23 24 c22 24 46 34 34 14 -16 -26 70 11
130 55 17 12 38 25 48 28 35 13 172 107 185 126 7 12 21 21 32 21 20 0 200
143 271 216 24 25 42 35 53 31 21 -8 21 -37 -1 -37 -22 -1 -59 -27 -50 -36 9
-9 116 6 122 17 4 5 -4 13 -17 18 -14 5 -24 18 -25 31 -1 15 1 19 10 12 7 -5
38 -16 71 -23z m958 -114 c14 -14 79 -50 144 -82 65 -31 121 -60 124 -64 3 -4
18 -12 33 -18 29 -11 36 -40 14 -63 -27 -29 -67 -105 -48 -94 5 3 14 19 21 36
9 22 17 29 31 25 12 -4 19 1 24 15 4 13 13 20 23 18 28 -5 36 -124 17 -233 -8
-49 -19 -135 -25 -190 -5 -55 -16 -120 -24 -145 -9 -25 -14 -34 -11 -20 4 23
3 24 -10 6 -8 -10 -17 -42 -20 -71 -6 -43 -12 -55 -31 -64 -26 -12 -66 -69
-58 -83 3 -5 -5 -25 -18 -43 -23 -35 -38 -44 -38 -25 0 16 -27 12 -34 -5 -4
-10 -18 -15 -48 -14 -34 2 -37 3 -13 6 32 5 55 19 55 35 0 6 -26 7 -65 3 -52
-6 -65 -5 -63 6 2 8 -16 17 -51 25 -30 7 -57 17 -61 23 -3 6 -17 10 -29 9 -19
-2 -29 7 -52 50 -30 55 -28 59 18 41 15 -6 48 -17 73 -24 l45 -13 -40 -2 c-33
-1 -36 -3 -18 -10 15 -6 20 -15 16 -28 -4 -17 3 -22 49 -31 29 -5 72 -11 94
-13 46 -2 119 26 129 50 4 12 3 12 -9 3 -8 -7 -25 -9 -40 -5 -15 3 -26 2 -26
-4 0 -13 -56 -23 -86 -16 -52 13 -12 72 42 61 36 -7 29 12 -11 29 -43 18 -49
18 -41 -1 3 -9 -3 -19 -14 -25 -16 -9 -20 -8 -20 5 0 8 -12 20 -27 26 -20 7
-24 12 -14 18 7 5 13 12 14 17 1 5 8 7 16 6 12 -3 12 0 -1 20 -8 12 -26 24
-39 25 -84 9 -209 34 -215 44 -7 12 12 11 77 -2 65 -13 149 -18 149 -8 0 11
-28 19 -68 19 -55 1 -147 26 -144 39 1 6 -11 11 -29 11 -27 0 -30 2 -19 15 10
12 10 15 -3 15 -8 0 -20 -7 -27 -15 -13 -16 -36 -20 -43 -7 -3 4 -1 18 4 31 8
19 12 21 24 11 10 -8 30 -10 61 -5 l47 7 -34 29 c-28 24 -31 31 -19 39 14 9
51 14 78 11 6 -1 12 7 12 18 0 11 3 26 6 34 3 10 -1 17 -13 19 -13 3 -8 9 20
21 38 16 60 48 39 55 -21 7 -13 23 31 65 23 22 32 32 19 22 -12 -10 -24 -16
-27 -14 -7 8 34 82 56 101 10 9 19 24 19 33 0 8 9 33 20 55 13 26 20 59 20
100 0 37 4 60 11 60 7 0 9 10 7 25 -7 32 12 32 44 0z m1613 -2 c-4 -10 -8 -22
-9 -28 -9 -33 -25 -49 -80 -79 -72 -41 -193 -79 -233 -74 l-28 3 30 28 c32 29
113 58 174 61 43 2 121 51 121 76 0 19 9 30 23 30 5 0 6 -8 2 -17z m-4466
-412 c24 -5 47 -15 51 -22 9 -13 33 -19 88 -22 17 -1 32 -5 32 -9 0 -5 10 -8
23 -9 20 0 20 -1 3 -8 -33 -13 -1 -23 82 -27 42 -2 95 -6 117 -9 29 -4 64 3
130 26 105 36 251 54 305 37 25 -8 35 -8 38 1 7 22 62 -28 62 -57 1 -57 54
-118 137 -157 35 -16 60 -44 27 -30 -10 4 -31 10 -46 13 -57 9 -27 -36 85
-131 31 -27 57 -55 57 -63 0 -17 -48 -19 -103 -3 -47 13 -55 7 -33 -25 21 -33
21 -33 -19 -46 -43 -14 -66 -7 -111 32 -48 42 -56 27 -9 -17 45 -40 38 -43
-36 -14 -78 30 -82 33 -86 60 -2 13 -11 43 -20 67 -21 57 -8 70 37 37 40 -30
56 -33 20 -4 -61 49 -100 85 -100 93 0 5 15 22 33 38 l32 28 -30 -6 c-16 -3
-40 -18 -52 -33 -25 -29 -24 -62 5 -134 8 -21 13 -40 10 -42 -2 -2 -62 0 -133
4 -72 5 -153 6 -182 4 -54 -6 -139 10 -186 34 -16 8 -34 12 -40 10 -20 -8 85
-50 135 -55 26 -2 45 -8 42 -13 -8 -13 -54 -11 -99 6 -22 8 -59 14 -82 15 -32
0 -45 5 -53 21 -17 31 -50 62 -50 46 0 -7 11 -23 25 -35 14 -12 25 -26 25 -32
0 -12 -100 -56 -120 -52 -8 2 -21 9 -28 17 -12 10 -9 12 14 7 30 -6 97 25 91
42 -5 17 -43 19 -58 3 -8 -7 -33 -16 -56 -19 -39 -6 -49 -2 -112 43 -38 26
-89 72 -114 101 -103 119 -99 116 -87 88 10 -23 9 -22 -15 5 -24 28 -42 72
-34 79 2 2 14 7 27 10 16 6 22 3 22 -8 0 -10 9 -16 21 -16 14 0 19 5 16 14 -4
10 5 19 30 26 19 7 47 18 61 26 15 8 48 14 74 14 26 0 50 5 53 10 3 6 19 10
35 10 16 0 32 5 36 12 5 8 -15 10 -79 5 -78 -6 -107 -1 -90 17 9 9 130 7 182
-3z m3829 -339 c5 2 9 1 9 -2 -1 -3 6 -16 16 -30 9 -13 17 -37 17 -52 0 -46
55 -141 109 -186 57 -48 84 -54 263 -56 71 -1 118 -5 119 -11 0 -5 -10 -13
-23 -16 -20 -5 -21 -7 -5 -14 25 -10 21 -26 -5 -20 -13 2 -39 1 -58 -4 -33 -8
-32 -9 21 -10 62 -1 69 -8 69 -78 0 -22 6 -36 20 -43 17 -9 19 -20 18 -80 -2
-107 9 -94 17 19 4 56 10 101 14 101 20 0 28 -24 21 -62 -9 -47 4 -156 19
-171 17 -17 13 -72 -7 -98 -10 -13 -19 -34 -20 -47 -2 -35 -18 -49 -51 -44
-20 3 -32 -2 -42 -16 -15 -21 -47 -31 -64 -21 -5 4 -22 9 -37 13 -30 7 -49
-11 -27 -25 8 -5 9 -9 3 -9 -6 0 -26 -3 -43 -6 -24 -5 -31 -3 -31 9 0 8 7 17
15 21 8 3 15 13 15 22 0 29 32 72 50 67 21 -6 32 9 24 31 -7 19 -35 21 -52 4
-8 -8 -15 -8 -26 1 -11 9 -24 10 -55 1 -52 -14 -55 -33 -3 -24 31 5 35 4 24
-7 -7 -8 -30 -19 -50 -25 -35 -11 -35 -12 -9 -13 15 -1 42 6 60 15 l32 16 -36
-37 c-25 -25 -47 -38 -70 -40 -19 -2 -54 -8 -79 -14 -105 -24 -116 -5 -18 31
34 12 56 24 50 26 -8 2 -3 11 10 23 18 14 20 18 7 19 -9 0 -22 -7 -29 -14 -6
-8 -28 -20 -48 -27 -20 -7 -40 -16 -43 -22 -4 -5 -12 -6 -19 -2 -9 6 -9 10 1
17 9 5 3 6 -16 2 -16 -4 -36 -12 -44 -20 -12 -11 -9 -14 20 -22 21 -7 26 -11
14 -11 -12 -1 -38 8 -60 19 -22 11 -45 20 -52 20 -7 0 -13 5 -13 11 0 7 -11 9
-29 6 -30 -6 -53 16 -28 27 7 2 -1 5 -18 5 -16 1 -43 8 -59 16 -15 8 -33 15
-40 15 -6 0 -17 9 -24 20 -7 11 -19 20 -27 20 -8 0 -15 5 -15 10 0 6 10 10 22
10 20 0 20 1 5 18 -21 23 -22 56 -1 87 11 16 12 25 5 25 -7 0 -20 -13 -29 -30
-20 -35 -32 -38 -32 -10 0 34 29 82 46 76 10 -4 18 4 24 22 6 15 20 45 31 67
13 25 16 41 10 43 -16 5 -13 42 4 76 9 16 18 56 20 88 5 64 26 112 59 139 11
10 22 16 24 15 5 -5 -30 -81 -46 -99 -8 -9 -12 -20 -8 -25 8 -7 76 65 96 103
10 18 9 29 -5 58 -18 38 -13 62 11 53 8 -3 14 1 14 10 0 8 7 26 16 40 12 18
20 22 29 14 7 -6 17 -9 23 -8z m-5991 -50 c19 -15 22 -28 24 -107 3 -118 -35
-250 -86 -293 -17 -15 -41 -48 -53 -75 -19 -39 -31 -52 -75 -73 -28 -13 -65
-36 -82 -50 l-30 -25 55 3 c32 2 59 9 66 17 6 8 19 11 32 7 15 -5 20 -15 20
-39 0 -18 5 -68 12 -112 6 -44 13 -113 14 -154 3 -64 6 -76 27 -91 21 -16 25
-17 46 -3 31 20 39 58 23 102 -9 24 -13 83 -12 174 1 128 3 140 27 181 14 23
25 52 25 62 0 21 18 44 33 44 5 0 7 -7 3 -15 -3 -8 -1 -15 3 -15 5 0 14 14 20
32 l11 32 21 -20 c11 -11 27 -46 35 -77 8 -31 30 -89 49 -129 19 -40 35 -79
35 -87 0 -8 8 -23 18 -34 14 -16 16 -35 14 -107 -2 -68 2 -101 17 -145 11 -31
34 -125 51 -209 17 -83 47 -201 66 -261 l35 -111 100 -104 c112 -118 134 -148
144 -203 6 -29 3 -42 -10 -57 -10 -11 -22 -20 -28 -20 -9 0 -75 -52 -161 -127
-52 -47 -182 -112 -260 -132 -52 -13 -84 -7 -159 31 -29 14 -44 32 -66 81 -34
70 -47 117 -35 117 5 0 31 -25 58 -56 48 -55 88 -80 108 -68 5 4 1 15 -11 28
l-21 22 61 -4 c49 -4 61 -2 57 9 -3 8 -20 18 -39 22 -58 15 -109 39 -109 53 0
7 -38 58 -85 113 -47 56 -97 125 -111 154 l-26 52 26 -24 c14 -14 29 -22 32
-18 12 12 -31 103 -83 179 -29 42 -66 107 -82 145 -61 149 -64 152 -324 416
-254 258 -263 273 -260 459 1 122 12 170 34 165 6 -1 21 25 33 58 29 78 38 95
73 127 40 39 78 50 140 42 39 -5 59 -2 75 8 13 8 46 17 75 20 28 3 76 17 106
31 32 16 71 27 96 27 23 0 56 7 74 17 69 35 103 39 134 15z m4656 -247 c44
-41 88 -75 97 -75 9 0 31 -11 50 -25 19 -14 40 -23 48 -20 7 2 16 -3 19 -13 9
-22 27 -36 81 -63 31 -15 40 -25 33 -32 -14 -14 -14 -37 0 -37 6 0 13 9 16 20
4 15 14 20 40 20 20 0 32 -4 28 -10 -3 -5 -15 -10 -26 -10 -11 0 -22 -6 -25
-14 -6 -15 -40 -31 -89 -40 -72 -15 -115 -31 -111 -42 8 -20 -17 -34 -63 -35
-38 0 -42 -2 -23 -9 12 -5 22 -12 22 -16 0 -4 -20 -24 -45 -46 -25 -22 -43
-44 -39 -49 3 -5 11 -6 17 -2 7 4 6 -1 -2 -11 -8 -9 -20 -15 -28 -12 -8 3 -13
-2 -13 -14 0 -10 -5 -22 -11 -25 -5 -4 -14 -17 -20 -28 -5 -12 -25 -44 -44
-71 -37 -51 -45 -86 -20 -86 19 0 32 15 64 80 16 30 32 54 37 53 20 -4 14 -37
-17 -86 -45 -71 -61 -90 -69 -77 -4 6 -21 -18 -38 -52 -17 -35 -60 -114 -96
-175 -35 -62 -66 -123 -69 -135 -6 -22 -6 -22 14 2 34 43 125 202 155 272 15
37 31 63 34 58 8 -13 39 22 73 82 15 26 33 50 39 54 14 9 -33 -78 -140 -259
-41 -71 -81 -131 -88 -134 -7 -2 -29 -33 -50 -69 -20 -35 -45 -71 -55 -80 -16
-15 -17 -14 -12 8 l6 23 -27 -25 c-16 -14 -37 -43 -47 -65 l-20 -40 21 24 c28
32 33 23 12 -23 -12 -26 -22 -36 -34 -33 -10 3 -23 -4 -33 -19 -27 -41 -67
-56 -122 -43 -77 17 -114 20 -131 9 -14 -7 -10 -9 16 -10 25 0 32 -4 32 -20 0
-23 36 -35 78 -26 24 6 20 1 -27 -44 -30 -27 -61 -50 -68 -50 -21 0 -56 21
-71 41 -6 9 -25 20 -42 24 -37 8 -46 22 -20 30 22 7 27 30 9 41 -8 4 -1 13 17
23 l29 16 -28 3 c-16 2 -35 -2 -43 -9 -18 -15 -18 2 1 27 31 42 8 47 -29 7
l-25 -27 -43 21 -43 21 46 -5 c29 -3 49 -1 53 6 13 21 -5 51 -40 66 -57 24
-43 38 32 30 51 -6 68 -4 75 6 12 20 11 29 -4 29 -7 0 -23 7 -36 16 l-23 17
41 19 c41 19 56 48 23 48 -9 0 -23 9 -30 20 -7 11 -19 20 -27 20 -21 0 -19 29
3 37 51 17 102 46 102 59 0 8 28 42 63 77 34 34 77 80 95 102 l32 40 -15 -39
c-8 -21 -31 -56 -50 -77 -19 -22 -35 -44 -35 -51 0 -20 89 73 118 124 15 26
72 99 126 163 66 77 107 135 123 173 24 59 31 122 13 122 -5 0 -10 -8 -10 -17
0 -47 -53 -165 -94 -210 -24 -27 -53 -59 -65 -73 -27 -33 -26 -21 1 27 l22 38
-22 -19 c-28 -24 -28 -12 -1 22 49 63 140 217 130 220 -15 5 32 94 58 109 11
7 18 19 15 27 -3 8 -1 17 4 20 5 3 26 -25 45 -62 35 -64 48 -73 27 -16 l-10
26 35 -31 c20 -17 38 -31 40 -31 3 0 -20 30 -50 68 -30 37 -55 74 -55 83 0 9
-7 22 -16 30 -8 7 -13 21 -11 30 3 10 -1 23 -9 30 -8 6 -14 17 -14 23 0 6 4 5
9 -3 10 -16 31 -6 31 14 0 8 4 25 10 40 l10 26 32 -24 c55 -41 176 -102 185
-94 4 5 -13 27 -39 50 -45 41 -88 97 -73 97 4 0 43 -34 88 -75z m1052 -648
c48 -18 106 -57 100 -67 -4 -6 -14 -6 -28 1 -20 10 -20 9 3 -12 13 -13 36 -25
50 -25 44 -3 95 -20 135 -47 22 -14 51 -28 65 -32 19 -4 16 0 -13 18 -55 35
-59 45 -5 14 32 -18 61 -27 92 -27 25 0 48 -5 52 -11 10 -16 144 -3 216 22 82
27 96 26 90 -10 -2 -16 1 -32 9 -36 9 -6 11 -2 6 15 -8 31 10 77 25 62 8 -8 8
-19 0 -39 -14 -37 -25 -123 -27 -203 -2 -85 -3 -92 -15 -85 -5 3 -10 0 -11 -7
0 -7 -4 -3 -9 10 -5 12 -14 22 -19 22 -5 0 -12 8 -14 18 -3 10 -5 6 -6 -11 0
-15 -7 -43 -15 -62 -23 -53 -40 -189 -28 -212 8 -14 7 -31 -3 -61 -21 -58 -29
-118 -20 -139 7 -15 10 -11 16 17 6 25 7 19 3 -24 -2 -32 -9 -66 -14 -76 -6
-10 -10 -33 -10 -50 0 -18 -9 -69 -19 -114 -10 -44 -24 -124 -31 -176 -7 -52
-21 -120 -32 -150 -11 -30 -22 -63 -25 -72 -3 -10 -9 -18 -14 -18 -10 0 -13
21 -10 65 2 22 0 27 -8 19 -9 -8 -9 -60 -1 -195 11 -182 6 -241 -22 -273 -11
-14 -10 -38 2 -31 5 3 15 24 21 45 7 22 16 40 21 40 15 0 8 -78 -9 -114 -17
-32 -66 -66 -96 -66 -17 0 -97 -43 -97 -52 0 -5 10 -8 21 -8 18 0 19 -2 9 -15
-7 -8 -19 -15 -26 -15 -18 0 -36 47 -28 72 4 15 2 19 -13 16 -10 -1 -32 7 -47
20 -16 12 -41 25 -55 28 -14 3 -45 14 -68 25 -34 16 -46 17 -66 8 -32 -15 -57
-6 -57 20 0 11 -5 23 -10 26 -7 4 -5 14 5 28 36 52 15 47 -85 -18 -70 -46 -85
-65 -52 -65 45 -1 45 -16 -5 -78 -45 -57 -51 -62 -89 -62 -52 0 -92 38 -91 89
0 19 -5 37 -11 39 -16 5 -16 63 0 60 6 -2 15 8 19 22 4 14 8 21 8 15 1 -5 11
6 21 25 11 21 17 45 14 60 -3 20 3 33 26 55 44 43 73 92 63 107 -12 20 -10 97
3 102 6 2 14 19 16 38 3 18 9 42 13 52 7 16 5 18 -9 13 -12 -5 -16 -3 -13 5 3
7 13 38 23 68 9 30 32 104 51 163 18 59 31 112 29 116 -3 4 3 41 13 82 25 102
35 236 19 242 -10 3 -10 11 0 38 8 19 18 52 23 74 12 48 57 143 81 166 9 10
24 19 34 21 9 1 19 8 21 15 3 7 -3 9 -16 6 -12 -3 -21 -1 -21 6 0 6 -13 11
-29 11 -16 0 -34 7 -41 15 -7 8 -23 15 -35 15 -31 0 -73 35 -90 77 -9 21 -15
67 -15 114 0 69 2 78 20 84 19 6 70 64 70 78 0 18 -31 4 -54 -24 -22 -26 -26
-28 -26 -10 0 11 7 26 15 35 17 17 20 46 5 46 -17 0 -11 28 8 39 18 11 69 6
117 -12z m2667 -179 c32 -15 45 -48 20 -48 -12 -1 -8 -9 16 -29 27 -23 31 -32
26 -57 -7 -37 29 -88 58 -81 24 7 68 -33 116 -106 35 -53 223 -234 335 -324
29 -22 66 -56 82 -74 17 -19 21 -27 10 -18 -43 34 -48 30 -11 -9 22 -23 43
-39 47 -36 4 2 16 -7 27 -21 11 -14 24 -25 29 -25 20 0 33 -23 21 -37 -9 -11
-5 -27 14 -71 14 -31 31 -69 37 -84 7 -19 18 -28 32 -28 20 0 21 3 15 53 -4
28 -7 62 -7 74 1 12 -7 26 -16 31 -20 12 -8 32 20 32 20 0 20 0 1 -15 -18 -13
-16 -14 26 -15 25 0 65 -10 90 -23 39 -19 50 -33 82 -97 38 -78 65 -202 53
-241 -5 -16 -9 -18 -15 -9 -15 24 -30 -1 -30 -50 0 -65 -7 -80 -39 -81 l-26
-1 25 -7 c19 -5 24 -13 22 -32 -7 -58 -11 -66 -44 -72 -57 -9 -128 1 -164 22
-39 24 -48 26 -39 10 4 -5 18 -14 32 -20 32 -12 20 -29 -20 -29 -24 0 -28 3
-17 10 19 12 7 23 -18 16 -14 -5 -18 -13 -15 -26 5 -18 0 -20 -51 -20 -43 0
-66 6 -96 25 -49 31 -64 55 -43 70 13 10 12 18 -10 67 -14 30 -31 75 -37 99
-6 24 -18 55 -27 67 -19 31 -11 37 26 18 33 -18 71 -21 71 -7 0 5 -11 22 -24
38 -12 15 -23 35 -23 43 0 15 -49 100 -58 100 -6 0 6 -32 18 -48 12 -16 -6
-32 -36 -32 -25 0 -16 -24 11 -28 22 -3 53 -32 34 -32 -18 0 -62 23 -62 32 0
4 -8 8 -18 8 -11 0 -45 28 -76 63 -32 34 -89 96 -127 137 -86 93 -114 137 -99
155 8 10 2 18 -25 34 -20 12 -40 19 -45 16 -4 -3 -6 3 -4 12 6 22 -62 53 -121
54 -33 1 -36 2 -15 8 18 5 5 10 -57 20 -55 10 -80 18 -76 26 5 14 -17 21 -102
31 -63 7 -70 -2 -13 -17 l33 -9 -35 4 c-19 2 -50 10 -69 18 l-34 14 33 16 33
16 -59 -1 c-32 0 -70 3 -84 7 -22 8 -21 5 10 -23 45 -41 18 -28 -37 18 -24 19
-43 40 -43 45 0 6 5 5 12 -2 20 -20 28 -14 16 13 -6 13 -15 22 -19 19 -4 -2
-13 5 -19 17 -11 19 -10 20 12 14 12 -4 33 -16 46 -25 13 -11 31 -16 44 -12
20 5 19 7 -12 32 -40 33 -36 50 15 64 21 6 40 17 43 25 5 14 -9 13 -51 -4 -16
-7 -17 -4 -11 21 4 16 16 38 27 48 13 13 16 21 9 24 -7 2 -10 8 -7 12 3 5 12
7 20 3 9 -3 15 1 15 10 0 40 95 115 128 102 18 -7 128 31 154 53 10 8 15 18
12 23 -5 9 25 27 65 40 36 10 34 10 63 -3z m-7763 -348 c20 -5 63 -10 96 -10
l60 0 22 -47 c35 -78 47 -123 34 -136 -8 -8 -17 -5 -34 11 -13 12 -27 22 -31
22 -5 0 -25 14 -46 30 -46 36 -62 39 -30 5 45 -48 13 -34 -48 20 -54 49 -132
143 -132 159 0 3 16 -6 36 -19 20 -14 53 -29 73 -35z m29 -204 c47 -24 152
-117 152 -134 0 -5 -8 -16 -17 -25 -16 -13 -22 -14 -49 -2 -51 21 -173 185
-139 185 3 0 27 -11 53 -24z m277 -376 c3 -5 17 -10 30 -10 37 0 54 -32 42
-78 -6 -21 -7 -51 -2 -68 l7 -29 12 34 c8 21 15 30 20 23 9 -15 -3 -59 -19
-65 -7 -3 -16 -23 -20 -44 -12 -65 -99 -183 -135 -183 -10 0 -44 -21 -75 -46
-32 -27 -74 -50 -96 -55 -52 -12 -149 -77 -142 -94 2 -8 -5 -20 -16 -27 -47
-29 -1 -75 49 -48 17 9 21 19 18 45 -4 32 -2 34 55 61 33 15 72 28 88 29 16 1
40 2 53 3 13 1 39 13 58 25 19 13 56 27 82 30 42 6 55 3 109 -27 97 -52 174
-98 155 -92 -10 3 -20 1 -23 -4 -3 -5 -49 13 -103 41 -146 75 -115 56 363
-233 44 -26 93 -56 109 -66 71 -44 244 -139 274 -151 29 -12 35 -12 42 0 5 7
12 10 16 6 4 -3 -6 -25 -21 -47 -15 -22 -25 -43 -22 -46 3 -3 28 1 55 10 27 9
81 17 120 17 74 1 107 15 96 43 -3 7 2 16 11 20 24 9 31 -22 12 -53 -15 -25
-15 -29 0 -44 15 -15 15 -20 -2 -64 -24 -64 -28 -68 -81 -83 -26 -8 -58 -26
-74 -43 -17 -19 -42 -32 -66 -36 -20 -3 -39 -12 -42 -20 -4 -11 9 -12 64 -8
38 3 80 8 93 12 18 6 23 5 19 -6 -9 -26 23 -38 57 -22 29 14 36 13 82 -7 52
-22 110 -90 97 -112 -5 -7 -37 -8 -94 -4 -68 5 -93 3 -116 -9 -16 -8 -34 -15
-41 -15 -12 0 -43 -38 -43 -52 0 -16 87 -8 123 11 30 15 51 18 93 14 35 -4 54
-10 54 -19 0 -12 -29 -27 -46 -23 -5 1 -16 0 -24 -4 -54 -20 -138 -33 -158
-24 -15 7 -26 7 -33 0 -6 -6 -46 -8 -103 -5 -60 3 -100 0 -114 -7 -18 -9 -22
-9 -22 2 0 8 -10 13 -22 13 -19 -1 -23 7 -36 77 -8 42 -17 75 -22 72 -4 -3
-13 2 -20 10 -7 8 -19 15 -26 15 -29 0 -173 64 -253 113 -46 27 -91 50 -100
50 -18 0 -135 65 -201 112 -25 18 -70 45 -100 60 -66 33 -173 110 -216 157
-64 68 -189 138 -306 170 -21 6 -73 40 -119 79 -79 68 -99 79 -99 59 0 -25
-18 -6 -28 29 -16 53 -15 69 6 67 14 -1 17 7 17 45 0 46 27 95 46 84 4 -3 10
-1 14 5 8 13 54 32 174 71 100 33 134 54 168 106 9 13 19 21 23 18 4 -2 40 32
81 78 40 45 77 87 82 92 5 6 2 -7 -7 -29 -23 -55 3 -32 50 45 34 56 55 71 69
49z m4841 -1043 c16 -8 38 -25 49 -37 32 -37 96 -80 118 -80 11 0 -3 11 -34
28 -60 31 -78 58 -33 48 16 -3 45 -7 64 -8 19 -1 42 -8 51 -15 18 -15 69 -2
69 17 0 5 11 12 25 16 14 3 29 14 34 23 5 8 12 13 16 10 9 -9 -43 -232 -58
-246 -23 -23 -179 -84 -250 -99 -40 -8 -94 -22 -122 -30 -28 -9 -109 -18 -182
-21 l-133 -6 -37 40 c-49 50 -133 185 -133 212 0 14 -5 19 -15 15 -32 -13 -13
25 31 61 31 26 42 40 34 45 -7 4 -9 13 -6 19 10 16 36 14 30 -2 -5 -15 17 -16
48 -2 12 5 31 -4 62 -29 33 -28 56 -38 96 -43 46 -5 52 -4 57 16 4 15 13 21
32 21 33 0 131 26 143 38 5 5 -13 6 -41 2 -44 -5 -49 -4 -41 10 11 20 84 19
126 -3z m-525 -373 c39 -41 85 -68 94 -55 3 5 -6 18 -20 29 -25 20 -33 42 -15
42 5 0 17 -12 27 -27 24 -39 43 -53 73 -53 14 0 34 -6 44 -13 17 -12 17 -14 3
-20 -9 -3 -19 -2 -22 3 -4 6 -19 10 -34 10 -15 0 -32 5 -38 11 -8 8 -29 -6
-74 -50 -35 -34 -68 -61 -72 -61 -5 0 -45 -35 -91 -77 -45 -43 -119 -107 -165
-142 -46 -36 -88 -70 -95 -76 -19 -20 -200 -141 -220 -149 -10 -3 -16 -9 -13
-12 12 -12 90 19 149 60 279 190 363 249 432 301 202 154 283 197 395 209 29
3 59 10 65 15 11 9 102 24 211 35 17 2 39 7 50 11 12 5 8 -1 -11 -18 -20 -17
-38 -24 -52 -21 -14 4 -47 -13 -114 -61 -125 -89 -147 -106 -125 -99 37 13 14
-16 -40 -50 -32 -20 -71 -46 -87 -58 -16 -12 -92 -58 -170 -101 -77 -44 -166
-96 -196 -116 -30 -21 -98 -63 -151 -94 -53 -31 -129 -87 -168 -123 -45 -42
-72 -61 -75 -52 -3 7 -6 20 -8 28 -3 8 -11 -14 -19 -50 -16 -72 -43 -119 -79
-137 -31 -16 -266 -18 -275 -3 -3 6 1 10 10 10 23 0 14 21 -14 31 -14 6 -20 5
-16 -1 10 -16 -31 -11 -45 5 -10 13 -9 15 12 15 13 0 28 4 34 9 5 6 29 11 54
13 37 2 45 6 45 23 -1 22 -4 22 -90 1 -33 -9 -76 -13 -95 -11 -19 3 -52 7 -73
8 -33 3 -77 33 -77 53 0 3 15 27 33 53 19 25 39 61 47 79 7 18 21 37 31 43 11
5 19 18 19 29 0 19 16 67 47 141 12 30 21 38 50 42 22 4 46 1 64 -9 16 -8 29
-11 29 -7 0 4 6 0 13 -9 12 -16 117 -35 117 -22 0 4 -7 15 -15 25 -15 15 -11
20 47 56 147 93 185 100 72 13 -50 -40 -66 -60 -45 -60 5 0 53 35 107 78 137
107 170 131 191 140 11 4 58 32 106 62 75 47 87 58 82 77 -4 17 6 32 42 67 27
25 53 46 59 46 5 0 26 -16 45 -36z"/>
<path d="M10000 2945 c-7 -8 -18 -15 -25 -15 -22 0 -63 -65 -70 -111 -4 -24
-16 -63 -27 -87 -28 -62 -17 -81 23 -42 37 34 80 43 57 12 -28 -40 -80 -94
-85 -89 -9 10 -63 -53 -63 -73 0 -15 7 -20 25 -20 14 0 25 4 25 10 0 5 -7 7
-15 4 -8 -4 -15 -2 -15 4 0 8 83 62 96 62 13 0 -24 -62 -60 -100 -41 -43 -64
-85 -53 -96 9 -9 96 35 106 55 18 33 12 48 -9 21 -10 -14 -21 -23 -23 -20 -3
3 20 43 49 90 30 47 50 86 44 88 -10 4 26 74 42 80 18 8 7 23 -12 17 -16 -5
-20 -2 -20 19 0 14 5 28 10 31 15 9 1 27 -16 21 -21 -8 -17 22 5 33 16 9 41
76 41 110 0 16 -16 13 -30 -4z"/>
<path d="M5510 9829 c-24 -16 -53 -29 -65 -29 -17 0 -18 -2 -5 -11 12 -9 11
-10 -7 -6 -27 6 -42 -11 -22 -24 9 -6 -1 -9 -31 -10 -28 0 -38 -3 -27 -7 9 -4
-15 -8 -55 -8 -40 0 -89 -5 -108 -11 l-35 -11 50 -2 c37 -1 45 -4 30 -10 -12
-5 50 -7 150 -6 137 2 176 0 200 -12 36 -19 67 -23 62 -9 -6 19 -130 58 -164
52 -17 -3 -34 -1 -38 5 -3 5 3 10 14 10 12 0 21 5 21 11 0 6 20 29 45 51 41
36 56 59 38 57 -5 0 -28 -14 -53 -30z"/>
<path d="M6675 9191 c61 -21 160 -57 220 -80 94 -35 417 -136 466 -146 25 -5
261 -113 294 -135 17 -11 41 -27 55 -37 24 -17 25 -17 10 1 -8 11 -13 22 -11
25 7 10 -98 68 -229 127 -93 42 -128 54 -140 46 -12 -7 -43 1 -115 28 -55 21
-174 63 -265 92 -91 30 -185 62 -210 70 -61 22 -108 35 -150 42 -19 4 15 -11
75 -33z"/>
<path d="M7745 8719 c39 -22 81 -51 95 -64 14 -12 38 -25 53 -29 19 -4 27 -12
24 -20 -4 -9 5 -16 24 -20 48 -9 24 -29 -27 -23 -57 6 -58 -9 -1 -18 46 -7
121 -31 146 -45 14 -8 13 -9 -3 -10 -14 0 -17 -3 -9 -11 13 -13 133 -41 150
-34 8 2 11 0 8 -5 -3 -6 1 -10 10 -10 17 0 116 -39 125 -49 15 -17 98 -78 113
-84 9 -4 23 -19 29 -34 7 -15 17 -35 23 -43 6 -8 17 -35 24 -59 7 -25 26 -61
43 -82 22 -27 29 -44 25 -61 -8 -32 6 -50 34 -46 13 2 29 -4 36 -12 9 -12 10
-8 3 20 -18 76 -51 168 -68 191 -10 13 -29 46 -41 72 -32 66 -139 180 -164
173 -11 -3 -36 6 -58 21 -46 30 -48 36 -11 27 l27 -7 -25 20 c-28 22 -189 111
-293 161 -44 22 -79 32 -100 30 -31 -3 -31 -3 18 -21 28 -10 68 -27 90 -38 35
-16 37 -18 10 -13 -25 4 -27 3 -12 -6 9 -6 26 -9 36 -5 19 6 201 -79 201 -95
0 -4 -6 -11 -12 -13 -9 -4 -5 -12 12 -25 l24 -20 -42 11 c-23 6 -42 15 -42 19
0 14 -43 58 -57 58 -30 0 -119 33 -134 50 -8 10 -34 27 -57 39 -22 11 -57 32
-77 46 -21 13 -61 36 -89 49 -29 14 -59 32 -66 41 -7 8 -24 15 -39 15 -21 0
-13 -8 44 -41z"/>
</g>
</svg>
