<?xml version="1.0" standalone="no"?>
<!DOCTYPE svg PUBLIC "-//W3C//DTD SVG 20010904//EN"
 "http://www.w3.org/TR/2001/REC-SVG-20010904/DTD/svg10.dtd">
<svg version="1.0" xmlns="http://www.w3.org/2000/svg"
 width="1024.000000pt" height="768.000000pt" viewBox="0 0 1024.000000 768.000000"
 preserveAspectRatio="xMidYMid meet">
<metadata>
Created by potrace 1.14, written by Peter Selinger 2001-2017
</metadata>
<g transform="translate(0.000000,768.000000) scale(0.100000,-0.100000)"
fill="#000000" stroke="none">
<path d="M2946 7672 c6 -4 17 -18 24 -31 9 -17 14 -20 20 -11 6 9 14 8 34 -5
31 -21 32 -25 6 -53 -11 -12 -20 -27 -20 -35 0 -15 -19 -37 -33 -37 -4 0 -5 5
-2 10 15 24 -12 6 -39 -26 -18 -22 -22 -32 -12 -28 18 7 18 6 -4 -76 -10 -39
-43 -48 -155 -41 -55 4 -108 5 -117 3 -29 -7 -10 -22 28 -22 29 0 33 -3 31
-21 -2 -12 -10 -27 -19 -33 -14 -11 -40 -94 -33 -106 2 -4 -2 -28 -10 -55 -19
-60 -18 -141 0 -180 l14 -30 -5 30 c-9 49 14 193 38 243 31 67 32 70 8 42
l-21 -25 12 24 c14 30 72 91 86 91 5 0 20 -9 33 -20 13 -11 34 -20 47 -20 14
0 31 -6 39 -14 12 -13 10 -17 -12 -35 -15 -12 -23 -21 -19 -21 4 0 2 -7 -5
-15 -8 -9 -9 -15 -2 -15 6 0 14 5 17 10 3 6 14 10 23 10 13 0 13 -2 -4 -15
-10 -8 -25 -15 -33 -15 -8 0 -26 -10 -39 -22 -14 -13 -22 -17 -17 -9 6 10 4
12 -4 7 -7 -5 -10 -14 -7 -21 3 -8 -7 -49 -20 -92 -14 -43 -28 -105 -31 -139
-4 -39 -12 -69 -25 -85 -11 -13 -17 -18 -13 -11 10 19 -9 14 -33 -8 -12 -11
-24 -20 -27 -20 -4 0 -27 -14 -52 -31 -31 -22 -41 -34 -33 -39 9 -6 6 -11 -10
-20 -12 -6 -24 -9 -27 -6 -4 3 -21 -4 -40 -15 -19 -12 -37 -18 -41 -15 -3 4 0
11 8 16 8 6 10 10 4 10 -5 0 -15 -5 -22 -12 -9 -9 -22 -8 -54 2 -24 7 -47 17
-52 21 -5 4 -22 5 -37 2 -19 -4 -29 -1 -29 7 0 7 -7 10 -15 7 -8 -4 -17 -2
-20 4 -4 5 -11 7 -16 4 -5 -3 -30 6 -56 21 l-48 26 40 -38 c22 -22 39 -42 38
-46 -4 -12 159 -68 200 -68 24 0 61 10 87 23 72 37 140 78 140 86 0 3 9 12 21
19 17 11 20 11 13 0 -4 -7 -7 -27 -5 -45 2 -27 -1 -33 -18 -33 -11 0 -23 -5
-27 -11 -5 -8 1 -10 18 -7 l25 5 -13 -46 c-20 -66 -52 -91 -118 -91 -29 0 -55
3 -59 6 -3 4 -68 7 -144 8 -76 1 -151 5 -168 10 -28 7 -29 6 -10 -8 11 -9 28
-16 38 -16 9 0 17 -4 17 -10 0 -6 28 -10 63 -11 45 0 57 -3 42 -10 -14 -6 -5
-7 30 -4 34 4 43 2 30 -4 -38 -16 183 -25 251 -10 l59 14 -43 3 c-43 3 -50 22
-7 22 22 0 40 23 36 48 -1 6 3 12 9 12 5 0 10 -14 10 -32 0 -17 12 -56 28 -86
29 -60 132 -171 181 -197 37 -18 39 -32 45 -222 4 -102 9 -148 20 -165 11 -18
12 -35 5 -82 -6 -33 -7 -67 -3 -75 4 -9 6 -19 6 -23 -1 -4 9 -15 23 -24 13 -8
36 -37 51 -62 15 -26 47 -67 70 -92 29 -31 44 -58 49 -85 7 -40 30 -123 46
-160 5 -11 20 -60 34 -110 35 -122 47 -156 65 -185 25 -40 64 -180 64 -235 1
-33 -5 -58 -16 -74 -38 -51 -15 -118 61 -181 22 -19 41 -40 41 -46 0 -7 5 -14
11 -16 9 -3 9 -13 1 -38 -22 -70 -34 -195 -24 -234 16 -56 68 -131 127 -182
41 -34 63 -65 93 -127 90 -185 104 -214 123 -247 12 -23 18 -46 14 -65 -4 -24
-3 -26 4 -10 7 15 10 1 10 -50 1 -49 -2 -65 -9 -55 -21 32 -10 -15 13 -55 25
-45 79 -85 113 -85 22 0 23 -3 18 -47 -10 -91 35 -146 136 -167 14 -3 50 -21
80 -40 215 -135 433 -255 503 -276 45 -14 22 5 -30 25 -26 10 -64 28 -84 41
-20 12 -52 29 -70 37 -55 23 -196 113 -248 158 -49 42 -121 76 -174 83 -16 2
-34 9 -40 16 -10 10 -8 11 8 6 17 -6 17 -4 -4 18 -14 15 -30 26 -37 26 -6 0
-15 7 -18 16 -9 23 -7 36 4 29 6 -3 10 5 10 19 0 30 34 55 112 80 42 14 70 32
109 72 29 29 57 50 63 47 6 -3 8 -3 5 1 -4 4 5 20 19 36 22 25 28 27 49 17 20
-9 24 -16 19 -40 -5 -23 -3 -28 9 -23 17 6 19 2 5 -22 -5 -9 -17 -34 -26 -55
-17 -39 -84 -90 -157 -120 -28 -12 -67 -54 -67 -72 0 -3 9 -5 20 -5 13 0 20 7
20 20 0 20 45 50 75 50 9 0 38 7 65 16 48 16 49 16 99 -11 28 -16 47 -33 45
-40 -4 -10 112 -87 211 -140 11 -6 41 -24 67 -39 26 -15 52 -24 59 -21 8 5 8
1 -1 -15 -15 -27 -8 -35 18 -21 12 6 39 11 61 11 30 0 41 4 41 15 0 8 4 15 9
15 10 0 6 -83 -4 -101 -4 -6 -22 -18 -39 -26 -90 -42 -104 -57 -43 -49 32 5
47 4 47 -4 0 -7 8 -9 21 -5 26 9 71 -10 87 -35 14 -22 14 -22 -56 -24 -51 -1
-90 -22 -73 -39 6 -6 20 -4 39 6 30 14 86 12 77 -3 -10 -17 -146 -28 -252 -21
-6 1 -14 13 -16 29 -4 26 -4 25 -6 -5 -2 -52 46 -76 106 -52 15 7 45 11 65 10
53 -3 143 28 174 60 24 25 25 28 11 55 -8 16 -29 42 -46 58 -22 21 -31 39 -31
61 0 39 -18 95 -36 114 -11 12 -22 12 -68 2 -53 -12 -57 -11 -101 14 -25 15
-51 37 -58 50 -6 12 -48 55 -92 94 -154 139 -202 200 -228 291 -12 41 -24 59
-45 71 -25 14 -29 24 -40 95 -17 105 -40 150 -78 147 -15 -1 -35 4 -44 12 -9
8 -19 13 -22 9 -17 -16 -56 82 -132 326 -46 149 -48 160 -42 160 3 0 11 -20
17 -45 14 -54 35 -75 24 -24 -4 19 -19 63 -32 99 -34 88 -45 148 -47 255 -1
67 -7 102 -23 136 -25 55 -82 102 -124 102 -26 0 -34 7 -54 46 -12 25 -35 95
-49 154 -15 60 -31 116 -35 125 -10 20 -26 80 -46 177 -8 39 -21 94 -29 124
-8 30 -13 57 -12 60 10 16 15 120 6 126 -22 14 -10 67 24 105 18 20 41 62 51
91 10 30 23 61 30 69 49 58 95 236 66 255 -27 16 -8 24 22 9 41 -22 56 -42 57
-77 0 -45 25 -93 77 -148 91 -98 161 -111 269 -52 92 50 124 46 319 -40 44
-19 134 -61 200 -93 66 -32 126 -58 132 -57 7 0 11 -2 9 -6 -5 -8 116 -72 123
-66 7 7 -21 35 -30 30 -4 -3 -28 9 -52 27 -24 18 -70 47 -103 63 -32 17 -60
33 -62 38 -2 4 -9 7 -17 7 -7 0 -18 7 -26 16 -7 8 -21 13 -31 11 -11 -3 -18 0
-18 9 0 8 -6 11 -15 8 -8 -4 -15 -1 -15 5 0 6 -6 11 -14 11 -8 0 -16 5 -18 11
-2 6 -16 12 -31 12 -17 1 -27 8 -27 17 0 11 -2 12 -8 2 -7 -9 -18 -9 -55 4
-45 15 -52 24 -49 65 1 8 -11 20 -26 26 l-27 11 31 7 c32 7 39 23 18 43 -10 9
-23 4 -61 -23 -26 -19 -61 -43 -77 -52 -15 -10 -49 -35 -74 -55 -40 -32 -54
-38 -96 -38 -42 0 -57 6 -112 45 -63 45 -74 59 -94 111 -10 25 -9 26 7 13 12
-9 10 -4 -5 15 -12 16 -22 34 -22 41 0 18 28 27 50 15 12 -6 21 -7 25 0 7 12
31 3 33 -13 0 -7 7 -29 15 -50 11 -29 16 -35 21 -22 3 9 1 25 -4 35 -19 36
-12 60 20 67 17 3 32 9 35 13 7 11 -71 23 -134 20 -47 -1 -53 1 -47 15 5 14 2
16 -16 10 -50 -15 -64 -16 -91 -6 -16 6 -27 16 -25 23 6 18 28 22 28 5 0 -17
19 -26 38 -20 18 7 14 23 -6 23 -10 0 -28 13 -40 30 -14 18 -28 27 -37 24 -8
-4 -15 -1 -15 5 0 6 5 10 11 8 6 -1 14 4 17 12 3 10 -2 12 -22 7 -30 -7 -33
-1 -11 20 17 17 20 34 5 34 -5 0 -6 8 -3 17 5 12 2 15 -10 10 -15 -6 -16 -4
-6 14 6 12 8 37 4 58 -3 20 -8 54 -11 76 l-6 40 144 1 c196 2 226 4 239 20 6
8 26 14 45 14 41 0 54 17 17 23 l-28 4 30 1 c17 1 38 -5 49 -13 11 -8 30 -12
46 -9 20 4 34 -1 56 -20 21 -18 25 -25 13 -26 -9 0 -22 7 -29 15 -7 8 -17 15
-23 15 -21 0 26 -39 54 -45 31 -7 61 -45 37 -45 -8 -1 -5 -8 8 -18 11 -10 19
-23 16 -30 -2 -6 1 -12 7 -12 6 0 11 -12 11 -26 0 -22 2 -25 15 -14 13 10 15
9 15 -10 0 -16 -4 -21 -16 -16 -14 6 -15 4 -4 -9 11 -14 10 -17 -9 -22 -17 -4
-19 -8 -9 -14 9 -6 10 -11 2 -16 -5 -5 -20 -24 -32 -44 -23 -38 -20 -58 5 -34
8 8 23 15 34 15 13 0 18 4 13 12 -5 8 0 9 17 5 22 -5 22 -5 6 7 -16 13 -16 14
4 19 29 8 79 -3 79 -17 0 -6 4 -5 9 3 7 11 15 11 47 1 43 -14 177 -81 212
-106 14 -11 22 -12 22 -5 0 7 -21 24 -46 39 -25 15 -58 37 -72 50 -25 22 -24
21 28 -4 70 -34 276 -171 405 -270 55 -42 130 -96 166 -120 36 -24 74 -55 83
-69 17 -25 17 -28 0 -46 -9 -10 -27 -19 -38 -19 -16 0 -18 -2 -7 -9 8 -5 10
-14 6 -22 -6 -11 -5 -11 5 -2 7 6 20 9 29 6 9 -4 13 -3 9 2 -11 12 23 34 52
35 14 1 19 4 12 7 -24 10 41 34 102 39 33 2 62 7 65 10 3 4 -33 4 -81 0 l-86
-6 -59 43 c-32 23 -70 49 -85 56 -14 7 -75 50 -135 96 -108 82 -145 106 -368
241 -66 40 -131 85 -145 100 l-25 27 25 -7 c45 -12 244 -28 278 -22 36 5 208
-23 282 -48 104 -34 298 -104 326 -119 17 -9 49 -31 71 -49 22 -18 75 -57 117
-86 42 -29 80 -60 83 -68 3 -8 34 -44 69 -80 35 -36 64 -71 64 -79 0 -40 113
-183 168 -214 15 -9 15 -12 -1 -45 -16 -35 -47 -50 -47 -22 0 39 -178 154
-221 143 -18 -5 -37 24 -62 96 -4 9 -13 17 -21 17 -12 0 -10 -8 9 -35 13 -20
27 -50 30 -67 4 -17 16 -45 26 -62 10 -17 19 -40 19 -51 0 -11 7 -31 16 -43 8
-12 13 -22 10 -22 -2 0 2 -22 9 -50 26 -100 -2 -169 -93 -222 -46 -27 -131
-40 -117 -18 3 6 -4 10 -17 10 -13 0 -30 6 -37 13 -11 10 -13 9 -8 -4 4 -13
-3 -18 -31 -22 -42 -7 -56 2 -79 52 -10 20 -23 41 -30 46 -12 9 -21 51 -22
108 -1 21 -21 23 -21 2 0 -8 -7 -15 -17 -15 -15 0 -15 -2 0 -17 8 -10 19 -31
23 -48 4 -16 15 -42 25 -57 11 -14 19 -30 19 -35 0 -5 13 -22 29 -37 26 -25
35 -28 88 -24 l58 3 3 -32 c2 -18 7 -33 13 -33 5 0 9 -8 8 -17 0 -10 -3 -13
-5 -6 -3 7 -12 9 -19 6 -11 -4 -9 -12 11 -38 18 -24 41 -39 80 -51 30 -9 57
-14 61 -11 3 4 13 -3 21 -15 15 -20 13 -24 -34 -65 -96 -86 -150 -126 -201
-149 -28 -13 -54 -28 -57 -33 -3 -5 -18 -12 -33 -16 -14 -3 -37 -15 -50 -25
-17 -13 -40 -18 -78 -18 -33 0 -69 -7 -92 -17 -21 -10 -61 -21 -90 -23 -43 -4
-63 1 -115 26 -100 48 -127 50 -211 12 -111 -49 -117 -52 -117 -66 0 -7 13
-28 28 -46 16 -18 31 -41 35 -50 7 -19 105 -94 142 -108 33 -13 102 -13 109
-1 4 5 0 12 -6 14 -7 3 55 6 138 6 107 1 154 -3 163 -11 11 -11 12 -4 6 37 -4
28 -12 56 -17 63 -7 8 -7 17 2 27 8 10 9 15 2 15 -21 0 -33 -37 -22 -66 6 -15
8 -29 6 -32 -3 -2 -49 -4 -102 -3 -65 2 -94 -1 -89 -8 8 -14 -5 -14 -25 -1 -8
5 -10 10 -5 10 6 0 2 5 -8 11 -10 6 -21 8 -24 5 -4 -3 0 -7 8 -7 8 -1 -4 -5
-26 -11 -46 -10 -110 -20 -80 -12 43 12 38 24 -8 18 l-47 -7 -75 78 c-41 42
-72 82 -69 87 6 10 33 21 74 32 14 3 8 -2 -14 -13 -25 -12 -34 -21 -26 -26 7
-4 15 -3 19 2 8 12 59 31 96 36 25 3 23 4 -9 6 -44 1 -40 12 13 30 22 7 39 7
50 1 13 -8 12 -10 -9 -10 l-25 -1 25 -11 c14 -5 39 -12 55 -15 17 -3 35 -8 40
-13 23 -17 125 -22 173 -7 111 36 181 30 193 -16 6 -23 62 -88 71 -83 2 1 20
-15 41 -36 22 -21 33 -38 25 -38 -8 0 -20 6 -28 13 -8 6 -6 2 4 -10 18 -22 18
-23 -5 -32 -13 -5 -18 -10 -11 -10 7 -1 10 -6 6 -12 -4 -7 -10 -7 -16 -1 -7 7
-18 7 -34 0 -18 -9 -29 -7 -51 7 -24 16 -26 16 -14 2 16 -20 12 -21 -23 -7
-32 12 -33 5 -3 -15 39 -25 116 -28 159 -5 32 16 38 17 38 5 0 -16 17 -15 88
7 50 15 102 65 102 97 0 22 32 60 163 192 89 90 183 188 209 217 38 44 49 52
64 44 11 -5 40 -19 67 -32 27 -13 47 -29 47 -39 0 -25 -68 -166 -80 -166 -20
0 -80 -56 -114 -107 -46 -69 -57 -99 -44 -121 7 -14 4 -22 -16 -38 -30 -24
-55 -67 -55 -95 0 -10 -4 -36 -9 -57 -6 -20 -8 -46 -5 -57 3 -10 -2 -29 -11
-42 -9 -13 -21 -41 -27 -62 -13 -46 -76 -132 -143 -194 -53 -49 -73 -58 -138
-67 -48 -6 -103 -39 -93 -56 4 -5 0 -6 -8 -3 -8 3 -17 -2 -20 -10 -7 -18 -60
-42 -138 -62 -50 -13 -64 -13 -125 1 -64 15 -134 50 -134 68 0 10 -48 9 -91
-3 -20 -6 -56 -24 -80 -40 -24 -16 -54 -30 -66 -30 -12 0 -25 -4 -28 -10 -3
-5 -1 -10 6 -10 8 0 8 -4 -1 -15 -16 -19 -5 -77 19 -99 17 -15 31 -13 31 6 0
5 -4 6 -10 3 -5 -3 -17 10 -27 30 -15 31 -15 37 -2 50 8 8 28 16 44 18 17 2
51 11 77 21 48 19 54 18 146 -9 16 -5 22 -3 22 7 0 37 -156 44 -208 10 -20
-13 -24 -14 -20 -2 14 42 198 50 238 10 10 -10 36 -20 57 -22 25 -2 37 -8 35
-16 -2 -9 3 -10 15 -4 10 5 43 12 73 15 30 4 66 9 80 12 l25 6 -25 -15 c-36
-22 -6 -19 39 4 21 10 41 16 45 13 3 -4 6 -2 6 4 0 12 84 73 102 73 8 0 9 -3
3 -8 -10 -6 -35 -56 -35 -68 0 -3 11 8 25 23 13 15 25 23 25 16 0 -6 -4 -15
-10 -18 -13 -8 -13 -51 0 -76 8 -14 7 -19 -2 -19 -7 0 -1 -10 15 -21 15 -11
27 -27 27 -34 0 -7 19 -30 43 -50 23 -20 36 -34 30 -30 -7 3 -13 2 -13 -3 0
-17 -60 -23 -76 -7 -8 8 -21 12 -28 9 -8 -3 -27 11 -45 33 -27 33 -31 35 -31
16 0 -12 5 -25 10 -28 21 -13 9 -25 -26 -25 -21 0 -33 4 -29 10 10 16 -50 12
-96 -6 -33 -14 -59 -16 -137 -10 -54 4 -104 7 -112 7 -9 1 -16 9 -16 20 0 12
5 18 13 15 18 -7 16 5 -7 33 -12 13 -26 21 -35 17 -8 -3 -15 -1 -15 4 0 6 -7
10 -15 10 -8 0 -15 5 -15 10 0 6 -4 10 -9 10 -4 0 -6 -11 -3 -25 2 -14 8 -25
13 -25 5 0 6 -6 3 -14 -3 -7 2 -21 11 -30 13 -13 14 -20 5 -31 -6 -7 -19 -11
-27 -8 -12 5 -14 3 -8 -7 6 -10 3 -12 -14 -7 -17 4 -21 2 -17 -9 3 -8 2 -14
-2 -14 -14 1 -69 55 -82 80 l-13 25 25 -22 c13 -13 30 -23 36 -23 7 0 -2 14
-20 31 -22 20 -29 32 -20 36 9 3 7 11 -7 31 -10 15 -16 32 -14 39 3 7 -4 11
-16 10 -19 -1 -19 -3 -6 -23 8 -13 14 -38 13 -58 -2 -44 34 -98 83 -125 l36
-21 46 24 c43 23 51 24 218 21 189 -4 290 -15 358 -39 57 -21 112 -6 150 41
17 21 35 33 51 33 14 0 32 6 40 13 16 13 50 80 50 100 0 7 20 35 45 63 24 28
41 54 38 58 -3 3 -1 6 5 6 13 0 184 339 176 351 -2 4 12 11 33 14 44 7 62 14
124 44 48 23 79 69 79 116 0 13 6 36 14 52 17 34 33 97 47 183 22 133 32 181
41 186 5 3 1 12 -9 20 -13 9 -14 13 -4 14 15 0 -118 100 -133 100 -5 0 -7 3
-4 6 4 3 21 -2 40 -12 41 -21 121 -84 114 -91 -3 -3 13 -19 36 -37 22 -17 46
-42 52 -56 7 -14 22 -44 34 -67 21 -40 21 -44 7 -120 -8 -43 -15 -97 -15 -120
0 -23 -5 -45 -11 -49 -8 -4 -9 1 -4 17 11 35 -7 15 -49 -55 -41 -68 -44 -96
-17 -148 10 -21 14 -36 8 -35 -6 1 -12 -2 -12 -8 -1 -5 -12 -32 -24 -59 -20
-41 -22 -58 -16 -110 6 -58 31 -124 48 -126 4 0 12 0 17 0 6 0 10 -5 10 -11 0
-5 -4 -7 -10 -4 -6 4 -10 -27 -10 -84 0 -68 -7 -117 -29 -198 -40 -153 -41
-154 -28 -146 7 4 8 0 3 -13 -4 -10 -10 -32 -13 -47 -3 -15 -17 -36 -30 -45
-52 -36 -87 -70 -89 -88 -2 -10 -6 -32 -9 -49 -4 -22 -3 -25 3 -10 8 18 10 17
15 -10 3 -17 8 -40 12 -52 6 -19 1 -25 -39 -44 -25 -11 -46 -24 -47 -28 0 -3
-2 -32 -4 -63 -5 -86 -40 -124 -244 -265 -20 -13 -48 -23 -69 -23 -25 0 -33
-3 -26 -10 16 -16 73 -30 79 -19 4 5 1 9 -6 9 -17 0 -4 11 46 40 l40 23 -30
-33 c-16 -19 -23 -29 -15 -23 8 6 45 33 81 59 36 27 87 62 114 77 26 15 45 31
41 34 -8 8 34 53 49 53 7 0 20 -9 30 -20 10 -11 23 -19 29 -17 6 2 25 -2 43
-9 24 -10 44 -11 80 -4 93 19 157 30 160 26 2 -2 -16 -13 -40 -25 -25 -12 -60
-37 -78 -57 -37 -37 -65 -56 -239 -159 -63 -37 -136 -85 -162 -106 -30 -25
-48 -34 -51 -26 -2 6 -7 -4 -12 -23 -12 -59 -29 -70 -107 -70 -44 0 -67 4 -63
10 3 6 -4 10 -17 11 -19 1 -16 4 14 17 48 22 49 33 1 20 -20 -5 -53 -8 -74 -6
-20 2 -35 0 -33 -4 2 -3 0 -9 -6 -13 -16 -10 -12 48 6 73 8 12 13 26 9 31 -3
5 4 12 15 16 11 3 20 13 20 20 0 31 33 95 49 96 10 0 12 2 3 6 -19 7 -39 -14
-53 -55 -6 -20 -22 -46 -36 -57 -27 -22 -43 -79 -35 -120 4 -24 8 -26 34 -21
20 4 37 0 56 -14 36 -27 134 -47 168 -35 16 6 35 27 48 51 27 54 156 148 308
226 67 34 143 83 185 119 40 34 83 69 95 77 13 9 26 21 30 26 4 6 8 8 8 3 0
-14 79 33 91 54 6 12 11 50 10 84 -1 57 2 64 25 80 28 18 28 20 13 190 -1 6 4
44 10 85 6 41 13 89 15 105 2 17 15 70 29 118 14 49 29 114 33 147 6 53 9 58
34 64 43 8 64 79 52 177 -8 63 -7 76 7 86 14 11 14 12 1 13 -9 1 -4 6 10 13
14 7 27 19 29 27 13 45 11 90 -4 119 -21 41 -31 126 -16 135 21 13 171 -122
171 -154 0 -4 33 -54 73 -111 40 -57 83 -125 96 -151 25 -53 82 -108 111 -108
35 0 65 -21 85 -57 19 -35 99 -88 117 -77 4 3 34 -3 65 -12 57 -17 147 -78
246 -164 48 -43 110 -144 122 -201 7 -35 36 -73 69 -91 10 -6 60 -13 111 -15
l91 -5 17 43 c8 24 19 87 22 139 6 87 4 99 -17 140 -18 35 -30 46 -53 50 -20
4 -26 8 -17 13 6 5 17 5 24 1 6 -4 8 -3 4 4 -3 6 -27 10 -52 10 -51 0 -53 2
-244 183 -107 100 -119 123 -120 211 0 20 -5 40 -10 43 -6 4 -8 10 -6 14 3 4
-15 27 -39 51 -25 24 -45 52 -45 61 0 9 -9 27 -21 40 -11 13 -17 17 -14 9 4
-8 -5 0 -20 18 -14 17 -32 32 -38 32 -7 0 -57 30 -112 67 -67 44 -145 111
-237 201 -75 74 -143 139 -152 144 -8 5 -18 25 -22 46 -17 91 -140 271 -182
268 -13 -1 -19 10 -23 44 -3 25 -7 41 -8 35 -1 -5 -9 2 -17 18 -8 16 -32 34
-54 43 -22 9 -37 20 -34 25 3 5 1 9 -4 9 -5 0 -15 30 -22 68 -36 202 -47 245
-61 237 -4 -3 -13 14 -19 37 -6 24 -27 86 -46 139 -19 53 -34 99 -34 103 0 4
-10 30 -21 57 -15 33 -27 48 -38 47 -13 -3 -15 6 -13 53 3 39 -2 67 -14 90
-22 45 -73 109 -86 109 -5 0 8 -23 30 -50 l41 -51 -3 -94 c-2 -88 -4 -97 -29
-123 -15 -16 -27 -35 -27 -44 0 -9 -4 -20 -10 -23 -5 -3 -10 -10 -10 -15 0 -6
16 -2 35 7 19 9 35 24 35 32 0 25 36 -17 69 -80 16 -30 38 -58 50 -64 26 -12
55 -87 83 -210 10 -49 28 -119 39 -155 10 -36 19 -69 19 -72 0 -4 -24 -5 -52
-3 -35 3 -44 2 -28 -3 22 -7 23 -9 7 -15 -30 -12 -69 -9 -61 5 5 8 2 9 -10 5
-10 -4 -34 2 -57 13 -21 11 -39 18 -39 15 0 -12 -121 59 -130 76 -5 9 -24 22
-41 28 -17 6 -28 14 -25 19 3 5 -11 23 -29 41 -42 39 -46 60 -10 53 22 -4 24
-7 13 -20 -11 -13 -10 -14 2 -10 21 7 25 38 6 38 -22 0 -21 40 2 41 26 1 -38
28 -69 29 -15 0 -32 7 -39 15 -7 8 -17 15 -22 15 -5 0 -27 9 -50 20 -22 11
-45 17 -49 14 -18 -10 -8 8 23 47 17 21 28 42 25 46 -4 3 -8 4 -10 2 -47 -62
-50 -65 -44 -39 4 14 7 28 7 32 0 4 10 10 23 14 12 4 32 16 43 28 12 12 32 30
45 41 13 12 40 39 60 60 20 22 49 48 64 59 44 30 58 75 41 138 -7 29 -17 77
-21 107 -7 52 -7 53 16 46 13 -4 35 -14 48 -22 18 -12 22 -12 16 -2 -20 34
-39 49 -57 43 -17 -5 -19 0 -17 43 2 65 1 75 -10 69 -5 -3 -8 2 -7 12 0 10 -5
16 -13 14 -8 -2 -11 3 -8 11 3 8 0 23 -7 33 -8 11 -17 33 -20 50 -4 18 -20 53
-37 78 -18 29 -29 60 -29 82 0 21 -4 33 -10 29 -5 -3 -10 3 -10 14 0 24 -49
98 -106 158 -23 24 -41 52 -40 61 0 9 -5 16 -12 14 -19 -4 -52 17 -52 32 0 8
-7 17 -16 20 -24 9 -28 7 -14 -9 7 -8 8 -15 3 -15 -15 0 -54 31 -49 39 12 19
-41 32 -104 26 -130 -13 -232 -4 -270 23 -38 28 -108 53 -115 42 -6 -9 8 -14
28 -11 4 0 7 -4 7 -10 0 -7 -13 -9 -37 -5 -25 4 -33 3 -23 -3 21 -13 221 -61
252 -61 15 0 29 -4 33 -10 3 -5 18 -9 33 -8 15 1 39 -2 55 -6 22 -7 26 -5 21
7 -3 9 -13 18 -22 21 -10 2 6 2 33 0 76 -8 192 -71 232 -125 17 -24 43 -56 58
-71 38 -39 65 -101 65 -150 0 -71 -11 -75 -61 -22 -24 26 -54 56 -67 67 -12
12 -21 26 -18 32 10 27 -31 55 -117 80 -49 14 -93 22 -99 19 -13 -8 -109 12
-168 36 -80 32 -124 47 -164 54 -53 10 -117 36 -111 46 3 4 -2 11 -11 14 -8 3
-12 2 -9 -4 9 -15 -2 -12 -19 5 -8 8 -27 17 -43 18 -45 6 -179 67 -212 98 -11
11 -24 18 -28 17 -4 -2 -9 1 -10 6 0 5 -18 18 -40 29 -21 11 -58 36 -83 57
-65 52 -115 86 -105 70 5 -7 -8 -1 -28 14 -58 44 -48 58 24 33 51 -17 62 -26
76 -56 12 -27 17 -31 20 -19 5 22 43 32 88 25 34 -6 354 -130 390 -151 11 -7
29 -16 40 -19 16 -6 15 -3 -5 12 -31 25 -356 154 -428 171 -29 7 -59 9 -68 6
-10 -4 -27 6 -46 25 -25 25 -46 33 -112 45 -78 14 -108 22 -151 40 -18 7 -18
6 -5 -7 8 -8 45 -36 83 -62 37 -27 67 -53 67 -59 0 -6 -7 -5 -19 3 -10 8 -55
39 -101 71 -56 39 -77 58 -66 61 13 4 13 5 -1 3 -10 -1 -56 18 -103 42 -108
56 -148 70 -235 83 -45 6 -83 19 -108 35 -21 14 -71 34 -112 44 -71 18 -219
90 -280 136 -16 12 -55 29 -85 38 -86 24 -130 40 -130 48 0 4 -13 5 -29 2 -26
-5 -32 -1 -56 35 l-28 41 -66 0 c-66 -1 -66 -1 -33 -15 17 -8 32 -17 32 -20 0
-3 -10 0 -22 6 -22 12 -22 11 -8 -7 8 -10 18 -22 22 -25 9 -6 -13 -59 -25 -59
-5 0 -5 -5 -1 -11 4 -7 1 -10 -7 -7 -8 3 -13 11 -11 17 2 10 -11 15 -30 12 -4
0 -31 8 -60 18 -126 46 -166 53 -239 42 -71 -12 -115 -1 -105 25 3 7 -5 15
-17 18 -31 8 -84 7 -71 -2z m343 -83 c17 -6 31 -14 31 -18 0 -11 47 -31 71
-31 11 0 17 -4 14 -10 -3 -6 4 -10 17 -10 13 0 30 -5 38 -11 11 -7 3 -9 -30
-6 -25 2 -54 7 -65 10 -11 4 -3 -1 17 -11 20 -10 51 -29 68 -42 l30 -23 -42
-25 c-89 -51 -108 -47 -108 21 0 23 -3 28 -11 20 -6 -6 -10 -32 -8 -57 3 -25
2 -46 -1 -46 -3 0 -5 -15 -4 -32 0 -18 -6 -46 -14 -62 -8 -16 -9 -25 -3 -22
15 10 14 5 -8 -48 -14 -31 -16 -46 -8 -49 8 -2 8 -13 1 -38 -13 -42 -30 -42
-113 0 -32 15 -74 34 -93 40 -48 16 -101 57 -105 81 -1 10 -4 23 -5 27 -1 4 6
20 16 35 13 20 16 37 12 62 -4 21 -2 37 4 41 6 4 9 13 6 21 -12 32 26 94 80
130 30 20 52 40 49 45 -3 4 25 10 62 12 37 2 68 4 69 5 1 1 15 -3 33 -9z m473
-30 c12 -6 42 -16 67 -23 43 -10 47 -14 55 -53 8 -37 15 -44 50 -59 38 -15 39
-17 19 -25 -32 -12 -31 -41 1 -33 16 4 25 1 30 -11 3 -9 2 -14 -4 -10 -15 9
-71 -5 -64 -16 8 -14 87 1 102 20 19 24 181 23 166 -1 -4 -6 -24 -8 -49 -5
-36 5 -44 3 -48 -12 -3 -13 -18 -20 -52 -24 -118 -17 -170 0 -254 82 -29 28
-65 58 -80 66 -37 18 -55 41 -41 50 6 3 7 11 4 17 -4 6 -2 8 3 5 12 -8 26 20
17 34 -8 13 53 11 78 -2z m-107 -154 c22 -13 51 -30 65 -37 14 -7 36 -21 50
-30 31 -21 102 -44 155 -52 73 -10 170 -15 145 -8 -22 7 -23 9 -7 15 10 4 25
7 34 7 25 0 87 -50 113 -91 14 -23 32 -39 43 -39 17 0 17 -2 -4 -21 -17 -14
-19 -19 -7 -15 31 10 31 -15 -1 -60 -17 -25 -31 -48 -31 -52 -1 -15 -67 -83
-82 -86 -24 -3 -155 -128 -140 -133 6 -3 12 -9 12 -15 0 -6 -9 -3 -20 7 -17
15 -20 16 -20 2 0 -13 -5 -13 -35 -4 -28 8 -33 13 -20 19 22 13 18 25 -7 22
-13 -1 -29 -3 -36 -3 -8 -1 -11 -8 -7 -20 5 -17 2 -19 -37 -14 -24 3 -52 10
-63 16 -26 14 -138 47 -142 43 -7 -6 65 -36 87 -36 13 0 24 -8 27 -20 5 -17
14 -20 59 -20 30 0 54 -4 54 -9 0 -5 9 -11 21 -14 12 -3 18 -10 15 -15 -3 -6
6 -13 22 -17 27 -7 72 -42 72 -57 0 -4 -9 -8 -19 -8 -24 0 -31 -18 -20 -47 10
-27 11 -26 -136 -42 -55 -6 -122 -14 -150 -17 -57 -6 -80 -7 -185 -4 -41 1
-86 -3 -100 -8 -24 -10 -23 -11 15 -13 22 -2 60 -2 84 0 76 4 89 -3 106 -61
17 -59 19 -104 5 -113 -5 -3 -10 -22 -10 -42 l0 -35 -37 8 c-21 4 -58 8 -83 9
-65 3 -72 4 -66 13 3 4 -16 19 -42 33 -26 13 -67 39 -91 57 -35 26 -53 32 -92
32 -37 0 -49 4 -49 15 0 8 -4 15 -9 15 -5 0 -7 -10 -4 -22 6 -22 -4 -11 -72
77 -9 11 -15 34 -13 50 3 26 12 34 77 67 41 20 90 52 110 70 51 47 113 88 123
82 5 -3 15 -1 22 6 8 6 24 13 36 15 40 8 60 16 60 26 0 5 19 9 43 10 23 0 62
4 87 8 l45 7 -45 9 c-56 11 -100 11 -166 1 l-51 -7 -17 74 c-10 42 -15 86 -11
99 5 18 4 20 -4 8 -9 -13 -11 -13 -11 1 0 9 6 36 13 60 7 24 12 57 10 73 -2
33 18 78 56 121 14 16 19 25 11 20 -9 -6 -4 0 10 13 14 12 45 29 70 38 25 8
65 26 90 39 25 14 47 24 50 25 3 0 23 -11 45 -25z m769 -150 c10 -10 35 -15
79 -15 57 0 75 -5 144 -41 96 -51 218 -125 256 -156 15 -12 33 -20 40 -17 7 2
35 -16 64 -41 28 -25 56 -45 62 -45 5 0 16 -8 23 -19 7 -10 37 -30 66 -45 30
-15 51 -30 48 -33 -8 -8 74 -55 88 -50 6 2 29 -6 51 -18 22 -13 65 -31 95 -40
30 -10 69 -26 86 -36 18 -11 39 -17 47 -13 8 3 79 -17 158 -44 79 -28 158 -55
174 -60 17 -6 53 -15 80 -22 117 -26 164 -44 174 -67 6 -13 15 -23 21 -23 6 0
9 -15 7 -35 -2 -19 -1 -33 2 -32 14 5 141 -68 141 -81 0 -11 -3 -12 -14 -3
-10 9 -16 8 -25 -3 -16 -19 -69 -37 -73 -25 -2 5 -18 6 -37 3 -33 -7 -33 -8
-11 -16 12 -5 20 -11 17 -14 -8 -9 -94 22 -155 55 -28 16 -50 25 -46 20 3 -5
-3 -9 -13 -9 -10 0 19 -15 65 -34 46 -19 89 -41 95 -50 8 -10 30 -18 57 -20
53 -3 100 -26 153 -72 20 -19 41 -34 47 -34 5 0 31 -44 57 -97 60 -124 61
-158 5 -274 -22 -46 -56 -100 -76 -118 -20 -19 -36 -41 -36 -48 0 -7 -9 -13
-19 -13 -11 0 -23 -4 -26 -10 -9 -14 -33 -12 -31 3 0 6 -3 12 -9 12 -5 0 -10
-4 -11 -10 -3 -25 -5 -27 -19 -15 -8 7 -12 16 -9 21 3 5 0 9 -5 9 -6 0 -11 -4
-11 -10 0 -5 -5 -10 -12 -10 -6 0 -4 7 5 18 24 26 22 73 -3 79 -15 4 -18 12
-15 42 2 20 6 45 10 56 6 18 4 17 -14 -4 l-21 -23 -1 43 c-2 35 -3 30 -9 -24
-6 -58 -11 -72 -38 -98 -29 -28 -32 -29 -32 -11 0 12 -4 23 -9 26 -12 8 -20
-39 -9 -58 14 -25 -38 6 -63 38 -12 15 -26 25 -33 23 -6 -2 -18 8 -26 23 -57
106 -95 161 -123 183 -18 13 -45 37 -60 51 -16 15 -54 45 -85 68 -32 23 -59
44 -62 47 -3 4 -21 18 -40 32 -19 15 -57 48 -83 73 -40 39 -62 52 -129 72 -45
13 -91 24 -102 23 -12 0 13 -10 54 -22 79 -24 134 -52 164 -86 13 -14 -4 -9
-57 18 -41 21 -106 45 -143 54 -38 10 -73 23 -79 31 -5 7 -27 16 -47 20 -21 4
-37 12 -35 19 1 7 -22 16 -63 22 -56 10 -66 9 -72 -5 -6 -13 -7 -13 -7 2 -1 9
-6 20 -13 24 -7 4 -8 3 -4 -4 4 -7 2 -12 -3 -12 -6 0 -11 4 -11 9 0 5 -10 9
-22 9 -81 0 -244 13 -275 21 -23 6 -52 6 -73 2 -19 -5 -27 -9 -18 -10 9 -1 24
-4 34 -8 12 -4 15 -3 10 5 -4 7 -3 12 3 12 5 0 12 -4 15 -9 3 -4 31 -11 62
-14 80 -8 95 -27 22 -27 -31 0 -59 4 -62 8 -3 5 -33 9 -68 9 l-63 1 -57 62
c-77 82 -76 90 2 25 16 -13 12 -6 -10 21 -19 22 -47 46 -61 52 -14 7 -46 31
-70 54 -24 23 -55 43 -67 45 -28 5 -105 53 -97 61 3 3 11 0 17 -6 19 -19 29
-14 16 8 -14 23 -38 26 -56 8 -9 -9 -12 -9 -12 1 0 7 -18 33 -40 58 -41 47
-52 82 -25 84 8 1 20 2 26 3 13 1 27 31 28 56 0 8 -9 0 -20 -17 -20 -31 -39
-43 -39 -25 0 21 38 55 108 98 42 25 92 58 110 73 98 79 93 77 169 76 39 0 66
3 60 7 -7 4 -22 8 -34 8 -12 0 -25 5 -29 11 -3 6 -17 8 -31 4 -16 -4 -22 -2
-18 5 3 5 23 10 43 10 28 0 59 -14 129 -60 50 -33 96 -60 101 -60 5 0 15 -7
22 -15 7 -8 33 -21 59 -29 42 -12 105 -41 201 -91 19 -10 53 -33 74 -52 22
-18 46 -33 53 -33 8 0 24 -5 35 -11 17 -9 18 -13 7 -20 -9 -6 -1 -7 20 -2 25
4 32 3 27 -5 -4 -7 4 -16 21 -23 15 -7 83 -38 151 -70 118 -57 162 -70 162
-49 0 10 -34 31 -47 29 -17 -4 -69 24 -106 58 -28 25 -42 32 -47 23 -6 -9 -45
8 -139 60 -72 40 -134 77 -137 82 -4 5 8 2 26 -7 17 -9 34 -14 36 -12 6 6 -85
65 -145 96 -25 12 -70 41 -100 65 -31 23 -69 47 -84 54 -15 7 -26 16 -23 21 3
5 -7 13 -22 19 -15 5 -64 24 -110 41 -87 32 -107 37 -98 22 3 -4 -7 -6 -22 -3
-24 5 -24 6 -7 13 18 7 17 8 -6 8 -15 1 -38 10 -51 21 -14 10 -28 17 -31 13
-10 -10 -36 17 -31 31 3 8 -4 16 -17 19 -18 5 -20 9 -10 21 12 14 37 21 88 25
12 0 28 -6 37 -14z m-1380 -131 c91 -42 156 -96 156 -130 0 -13 5 -24 10 -24
18 0 12 -88 -7 -98 -9 -5 -17 -22 -19 -36 -2 -23 0 -25 12 -15 11 9 14 8 14
-4 0 -17 -26 -47 -41 -47 -6 0 -8 -4 -5 -9 7 -11 -68 -71 -97 -76 -12 -3 -29
-14 -38 -25 -17 -19 -17 -19 -54 10 -21 17 -42 30 -46 30 -14 0 -10 -33 6 -54
28 -36 9 -136 -27 -148 -6 -2 -8 -10 -4 -16 5 -8 16 -10 29 -6 19 6 20 5 9 -8
-13 -17 -3 -60 17 -73 20 -12 11 -44 -18 -64 -19 -14 -45 -21 -74 -21 -38 0
-54 7 -96 40 l-51 40 0 64 c0 51 -5 70 -25 100 -14 20 -25 40 -25 44 0 23 83
170 102 181 13 7 33 28 46 48 l23 35 -26 -4 c-28 -6 -29 -4 -15 23 6 11 7 19
2 19 -6 0 -12 -9 -15 -20 -5 -21 -27 -28 -27 -8 0 6 4 25 10 42 5 17 12 44 15
59 3 16 17 39 30 51 24 23 35 54 15 41 -22 -14 -8 13 23 42 32 32 68 51 98 52
9 1 51 -15 93 -35z m159 -755 c15 -11 31 -38 37 -61 13 -44 70 -108 97 -108
19 1 23 -3 -42 46 l-20 15 20 -4 c11 -3 29 -8 40 -12 14 -5 11 0 -10 20 -22
19 -25 25 -10 20 11 -4 32 -11 46 -15 15 -4 39 -16 55 -26 18 -12 25 -14 20
-5 -9 14 -4 14 69 -5 15 -4 16 -3 6 4 -21 15 1 21 48 12 55 -10 80 -32 61 -55
-17 -20 -21 -138 -6 -182 15 -48 3 -54 -84 -37 -41 7 -82 11 -92 8 -17 -5 -82
25 -145 67 -40 26 -43 14 -5 -18 l27 -23 -30 7 c-16 4 -63 7 -102 7 -67 -1
-73 1 -74 20 0 17 -3 16 -11 -7 -7 -19 -15 -26 -25 -22 -10 3 -28 -8 -49 -32
-30 -34 -33 -36 -34 -16 0 15 -11 28 -30 38 -34 17 -37 36 -15 89 10 24 12 36
4 36 -36 0 46 138 111 185 22 17 40 35 40 41 1 37 63 45 103 13z m-13 -390 c0
-7 9 -9 21 -6 11 3 42 -3 67 -14 26 -11 76 -23 112 -26 123 -11 207 -97 190
-193 -7 -40 -32 -69 -58 -70 -7 0 -11 4 -8 8 3 5 -8 6 -25 4 -16 -2 -29 -9
-29 -14 0 -5 -17 4 -37 20 -57 44 -129 83 -170 92 -45 11 -83 -3 -83 -30 0
-17 6 -20 49 -20 39 0 56 -5 78 -26 28 -25 28 -25 3 -18 l-24 7 18 -28 c10
-15 13 -24 7 -21 -14 9 -14 -10 1 -37 6 -12 12 -34 13 -49 3 -32 37 -90 74
-124 19 -18 23 -26 14 -35 -8 -8 -9 -18 -2 -30 5 -10 7 -30 3 -44 -4 -14 -2
-25 4 -25 6 0 18 -3 27 -7 15 -5 16 -1 10 38 -4 24 -11 49 -15 54 -4 6 -8 26
-8 45 -1 19 -5 67 -10 105 -9 70 -8 94 3 59 16 -49 49 -108 52 -92 3 13 8 12
30 -10 21 -21 27 -39 34 -111 12 -119 19 -152 35 -158 8 -3 14 -10 14 -15 0
-6 -7 -8 -15 -4 -21 8 -19 -5 10 -70 14 -31 25 -64 25 -72 0 -9 8 -25 19 -36
25 -28 36 -66 20 -66 -10 0 -10 -3 -1 -12 14 -14 16 -48 3 -48 -8 0 -51 64
-51 76 0 3 6 2 13 -2 6 -4 0 6 -15 22 -16 17 -46 66 -69 110 -22 43 -38 66
-34 49 4 -16 9 -38 11 -48 2 -10 6 -28 10 -39 4 -15 3 -18 -6 -13 -17 10 -9
-1 68 -111 102 -145 119 -175 151 -262 40 -109 40 -134 -1 -164 -18 -13 -50
-31 -72 -41 -22 -10 -45 -26 -53 -36 -27 -39 -124 -28 -201 22 -25 17 -31 27
-27 44 3 14 -1 25 -11 31 -18 10 -17 32 6 113 12 42 11 56 -14 155 -44 180
-47 188 -59 203 -15 18 -63 157 -83 241 -9 36 -20 112 -26 169 -8 75 -13 99
-20 86 -9 -15 -12 -15 -35 7 -27 25 -123 213 -123 241 0 37 26 113 48 136 12
13 22 29 22 35 1 31 120 86 120 55z m2710 -481 c0 -4 5 -8 10 -8 14 0 58 -50
66 -75 4 -11 13 -24 20 -30 12 -8 12 -14 0 -37 -16 -31 -11 -41 15 -28 12 7
20 7 24 0 3 -6 -1 -13 -9 -16 -9 -3 -14 -10 -11 -14 3 -5 16 -3 28 3 21 10 23
14 13 39 -6 16 -13 23 -17 17 -4 -6 -6 1 -6 15 0 24 1 25 16 12 9 -8 41 -22
71 -31 30 -10 60 -24 66 -31 5 -7 34 -17 64 -22 l54 -10 -25 19 c-13 10 -30
19 -37 19 -21 0 -62 31 -62 47 0 11 -4 11 -21 3 -40 -22 -30 -2 10 21 23 12
39 25 36 27 -2 2 -19 -5 -38 -17 -45 -28 -51 -27 -76 12 -11 17 -21 25 -21 18
0 -11 -3 -12 -11 -4 -8 8 -8 16 0 30 6 10 11 15 11 11 0 -4 8 -1 19 8 10 9 40
18 68 20 45 4 50 2 66 -25 9 -16 17 -36 17 -45 0 -8 12 -23 26 -32 14 -10 21
-20 15 -23 -6 -4 -7 -12 0 -21 7 -12 10 -11 15 8 9 33 27 27 19 -7 -3 -17 -2
-39 4 -50 8 -14 8 -21 -2 -24 -6 -2 1 -8 17 -12 35 -10 115 -57 172 -101 119
-94 162 -124 181 -124 4 0 -7 9 -24 20 -47 29 -40 33 12 8 24 -12 42 -25 39
-30 -3 -5 18 -19 47 -32 41 -18 48 -24 34 -30 -10 -3 -27 -4 -39 -1 -12 3 -15
2 -8 -1 10 -5 10 -9 1 -20 -17 -21 3 -18 58 7 32 15 48 18 56 10 6 -6 22 -11
37 -10 25 1 25 1 -5 14 -21 9 -25 15 -15 18 8 3 23 8 33 11 11 4 31 -3 50 -18
18 -12 41 -26 52 -30 l20 -6 -20 15 c-11 9 -29 23 -40 31 -19 13 -18 14 15 8
46 -8 60 -21 61 -53 0 -22 2 -23 8 -7 7 17 9 17 29 -9 26 -33 26 -28 4 -88
-15 -42 -23 -51 -57 -63 -22 -7 -49 -14 -61 -14 -24 0 -79 -54 -79 -78 0 -9
-16 -25 -35 -34 l-35 -18 32 0 c32 0 32 0 31 -51 -1 -42 -6 -54 -27 -70 -14
-10 -31 -23 -38 -29 -8 -6 -21 -7 -38 0 -16 6 -25 6 -25 0 0 -6 10 -10 22 -10
17 0 19 -3 11 -11 -19 -19 -66 7 -96 53 -29 45 -36 74 -14 62 20 -12 -34 47
-83 91 -25 22 -64 59 -87 83 -57 59 -237 139 -408 182 -120 30 -136 31 -284
28 -133 -3 -159 -1 -180 14 -23 16 -23 16 20 11 l44 -5 -34 23 c-30 20 -32 24
-15 29 18 7 17 8 -4 21 -30 19 -28 25 18 49 32 16 40 18 40 6 0 -20 48 -56 74
-55 16 0 13 3 -11 12 -50 18 -61 34 -37 52 10 8 26 15 35 15 17 0 83 121 95
173 3 15 10 30 15 33 5 3 9 13 8 22 0 12 -2 13 -6 3 -11 -28 -20 10 -12 57 4
26 3 51 -2 57 -14 14 -11 21 11 21 11 0 20 -4 20 -8z m92 -559 c29 -6 66 -18
83 -27 l29 -15 -29 -23 c-36 -28 -111 -42 -128 -24 -9 10 -9 14 1 17 6 3 9 9
6 14 -3 6 -30 7 -62 4 -71 -7 -95 5 -68 34 12 13 23 18 30 12 6 -4 31 -11 56
-14 25 -3 54 -9 63 -13 10 -3 17 -1 17 5 0 6 -8 11 -17 12 -10 0 -36 6 -58 14
l-40 13 32 1 c18 1 56 -4 85 -10z m-148 -78 c11 -1 16 -6 13 -15 -4 -10 8 -15
46 -21 47 -6 50 -8 34 -20 -17 -12 -13 -13 28 -10 l47 3 -35 -37 c-19 -20 -42
-50 -50 -67 -9 -17 -51 -62 -93 -100 -42 -38 -89 -81 -104 -95 l-28 -26 -6 30
c-3 17 -9 27 -12 24 -4 -3 -1 -27 5 -53 14 -56 6 -70 -47 -77 -20 -3 -47 -8
-59 -12 -18 -6 -24 -1 -38 29 -15 31 -38 55 -102 107 -9 7 -13 5 -13 -6 0 -27
-17 -7 -22 25 -3 21 0 34 11 40 13 7 14 11 4 21 -18 18 -16 29 5 29 30 0 217
122 297 193 36 32 57 44 75 42 14 -1 33 -3 44 -4z m1343 -46 c25 -25 43 -48
39 -52 -7 -7 -26 12 -46 47 -5 8 -11 12 -14 9 -10 -10 26 -71 45 -76 29 -8 80
-104 75 -142 -4 -34 21 -75 52 -85 9 -4 27 -22 40 -41 12 -19 28 -35 34 -35 7
0 25 -12 41 -27 23 -23 27 -24 21 -8 -3 11 35 -24 86 -78 50 -53 96 -94 101
-91 13 7 41 -15 33 -27 -3 -5 3 -12 13 -16 10 -3 34 -13 53 -21 35 -15 35 -15
10 -22 -23 -6 -22 -8 15 -15 56 -11 75 -22 75 -45 0 -11 5 -20 11 -20 7 0 9
-11 5 -30 -3 -18 -2 -29 3 -25 5 3 12 1 16 -5 4 -6 -4 -10 -19 -10 -13 0 -26
-5 -28 -10 -2 -6 -23 -14 -48 -19 l-45 -9 34 -7 34 -8 -49 -13 c-27 -7 -59
-13 -71 -14 -13 0 -23 -6 -23 -15 0 -9 6 -12 17 -8 11 4 14 3 9 -6 -4 -6 -16
-9 -27 -6 -29 10 -43 -4 -22 -22 17 -14 17 -14 -5 -9 -31 6 -72 -31 -51 -46
10 -7 8 -8 -8 -5 -35 8 -28 -18 10 -37 l32 -17 -33 5 c-42 7 -79 36 -116 89
-16 23 -26 34 -23 24 4 -11 3 -16 -4 -12 -6 4 -8 13 -5 21 6 15 -103 199 -112
190 -3 -3 1 -12 8 -21 7 -9 10 -18 7 -21 -3 -3 -13 8 -22 25 -8 17 -12 31 -8
31 4 0 -20 28 -54 63 -33 34 -69 79 -78 100 -10 20 -21 37 -25 37 -15 0 -2 62
18 83 12 13 22 27 22 32 0 5 -6 1 -14 -10 -12 -16 -29 -22 -78 -24 -10 -1 -18
-7 -18 -15 0 -19 -20 -32 -29 -19 -7 12 -41 13 -41 1 0 -19 -20 -6 -21 15 l-2
22 -4 -23 c-3 -17 -9 -21 -24 -17 -11 4 -19 2 -19 -4 0 -17 -27 -13 -34 5 -3
9 -6 25 -7 37 l0 22 -9 -23 c-5 -12 -7 -28 -4 -36 4 -11 0 -13 -15 -9 -12 3
-24 9 -27 14 -3 5 1 6 9 3 9 -3 13 2 12 13 -2 29 -18 49 -40 48 -34 0 -30 35
8 66 19 15 40 43 48 61 7 18 15 35 18 38 14 12 40 80 31 80 -6 0 -10 -4 -10
-10 0 -5 -9 -10 -20 -10 -11 0 -20 4 -20 9 0 9 83 43 96 39 5 -2 24 3 42 11
33 14 103 106 101 134 0 6 -4 3 -9 -8 -7 -16 -9 -13 -9 18 -1 20 3 37 9 37 5
0 31 -20 57 -45z m-872 -15 c4 -6 40 -26 81 -46 69 -33 90 -56 62 -67 -8 -3
-6 -6 5 -6 9 -1 17 4 17 11 0 29 19 -10 21 -42 2 -57 -21 -218 -37 -248 -8
-15 -14 -32 -14 -38 0 -6 -9 -19 -20 -29 -11 -10 -20 -26 -20 -36 0 -10 -6
-21 -12 -25 -17 -11 -48 -12 -42 -2 3 4 -5 8 -18 8 -44 0 -101 22 -124 47 -13
15 -22 28 -20 30 10 11 44 -9 54 -31 8 -18 20 -25 51 -28 23 -2 51 2 64 9 19
11 16 12 -25 6 -35 -4 -48 -2 -48 7 0 6 9 14 20 17 11 3 20 9 20 14 0 14 -28
11 -33 -3 -3 -10 -7 -10 -20 1 -12 9 -14 17 -7 26 12 14 3 25 -22 25 -10 0
-18 6 -18 13 0 8 -3 8 -8 2 -4 -6 -20 -8 -37 -4 l-30 7 30 2 c24 2 26 3 10 8
-11 4 -29 13 -40 19 -16 10 -17 14 -6 22 9 6 10 11 2 15 -18 12 -12 23 15 30
19 5 25 12 21 26 -3 11 1 21 9 24 8 3 14 12 14 21 0 8 16 46 35 84 19 37 35
78 35 89 0 42 20 66 35 42z m497 -415 c10 -27 30 -62 46 -78 24 -23 38 -28 84
-30 33 -1 51 -5 44 -10 -12 -10 17 -4 48 8 15 7 17 5 11 -14 -4 -15 -1 -29 11
-42 10 -11 12 -19 6 -19 -7 0 -12 -4 -12 -10 0 -14 27 -12 33 3 3 6 6 -12 6
-41 1 -29 6 -60 12 -70 8 -13 6 -27 -6 -56 -9 -21 -19 -36 -22 -32 -3 3 -15 0
-27 -6 -11 -6 -33 -11 -48 -10 -16 1 -28 -2 -28 -8 0 -5 -7 -10 -15 -10 -12 0
-11 5 3 30 9 16 23 30 30 30 6 0 12 4 12 9 0 5 -19 9 -42 9 -23 1 -38 -2 -32
-6 12 -9 12 -28 -1 -41 -15 -15 -100 -27 -91 -13 4 7 13 12 20 12 8 0 19 7 26
15 11 13 9 13 -21 1 -41 -16 -131 -15 -137 2 -2 7 -11 12 -20 12 -9 0 -30 9
-47 20 -16 11 -24 20 -17 20 10 0 8 8 -5 31 -17 29 -17 31 -1 43 18 13 43 64
39 79 -4 21 23 128 35 138 17 14 18 5 3 -24 -8 -17 -5 -16 16 6 18 21 23 33
16 45 -11 20 17 63 39 59 8 -1 22 -24 32 -52z m-2951 -20 c10 -87 -29 -161
-126 -240 l-30 -24 40 9 c22 5 41 7 43 6 2 -2 6 -45 9 -94 4 -68 10 -92 21
-97 19 -7 33 7 31 31 -7 96 -3 163 13 199 10 22 22 39 28 38 5 -2 10 2 10 7 0
19 19 10 25 -12 6 -25 42 -112 56 -140 5 -10 9 -37 9 -60 0 -44 24 -157 62
-283 17 -59 30 -80 79 -132 67 -69 75 -100 33 -128 -14 -9 -42 -31 -62 -49
-20 -18 -63 -43 -94 -56 -50 -20 -62 -22 -96 -12 -29 9 -42 21 -55 47 -26 54
-21 62 16 27 35 -34 53 -41 44 -19 -4 10 2 13 19 9 13 -2 24 0 24 6 0 12 -47
25 -60 17 -6 -4 -10 2 -10 11 0 10 -17 38 -38 63 -44 52 -72 98 -52 86 19 -12
2 34 -29 80 -15 22 -40 67 -55 100 -20 46 -53 86 -136 170 -62 62 -116 126
-125 147 -19 47 -20 142 -2 160 8 7 20 30 26 51 15 44 44 67 86 67 29 0 67 10
200 50 84 25 89 23 96 -35z m2293 -78 c4 5 6 2 4 -6 -2 -8 14 -23 37 -35 22
-12 49 -29 59 -38 11 -10 26 -18 33 -18 7 0 10 -6 6 -16 -5 -14 -3 -14 16 -3
11 8 21 17 21 21 0 5 5 8 11 8 6 0 9 -7 6 -14 -4 -11 -1 -13 10 -9 11 4 14 2
9 -5 -4 -7 -2 -12 4 -12 6 0 8 -5 4 -11 -5 -8 -8 -8 -14 0 -4 7 -15 9 -25 5
-13 -5 -16 -4 -11 4 10 16 -5 14 -28 -3 -11 -8 -30 -15 -42 -15 -45 0 -181
-164 -172 -207 3 -14 8 -11 21 14 19 35 60 83 72 83 4 0 -4 -16 -19 -35 -14
-19 -25 -38 -24 -43 4 -13 -93 -182 -104 -182 -10 0 51 112 66 122 6 4 7 10 3
14 -10 11 -18 0 -67 -91 -26 -49 -36 -74 -25 -65 18 15 18 14 1 -16 -10 -16
-28 -34 -40 -40 -11 -5 -21 -16 -22 -24 -2 -32 -5 -36 -35 -54 -24 -14 -41
-16 -76 -11 -42 6 -45 5 -30 -9 8 -9 25 -16 38 -16 19 0 17 -4 -17 -35 -21
-19 -39 -35 -40 -35 -18 0 -54 23 -54 35 0 14 3 14 25 -1 14 -9 28 -14 31 -11
4 3 -9 15 -27 26 -19 12 -29 21 -23 21 7 0 14 9 17 20 3 13 0 20 -10 20 -8 0
-11 5 -8 10 9 14 -7 12 -27 -4 -10 -7 -15 -16 -11 -19 3 -4 2 -7 -4 -7 -6 0
-16 6 -22 14 -9 11 -6 15 14 20 29 7 32 23 8 42 -16 12 -13 13 22 14 37 1 39
2 21 15 -19 15 -19 15 -1 28 17 13 17 15 -6 31 -20 14 -22 18 -9 26 8 5 20 10
25 10 6 0 32 27 59 60 54 65 74 74 31 13 l-28 -38 29 31 c16 17 49 57 74 89
25 31 53 67 62 79 9 11 20 35 23 51 5 27 3 26 -14 -10 -22 -46 -70 -106 -71
-88 0 7 16 39 35 72 19 32 35 66 35 73 0 8 11 25 24 37 23 22 25 22 35 4 6
-10 11 -14 11 -9 0 5 8 2 17 -5 9 -8 5 2 -9 21 -34 46 -41 71 -28 104 l10 26
47 -29 c56 -35 67 -32 30 7 -36 37 -35 53 1 19 16 -15 32 -24 36 -20z m517
-325 c14 -9 24 -23 22 -29 -3 -8 4 -13 19 -13 30 -1 108 -36 108 -50 0 -5 12
-10 27 -10 24 0 25 1 10 13 -15 10 -7 12 45 13 35 0 80 5 101 11 30 9 37 8 37
-3 0 -8 -3 -14 -7 -14 -5 0 -7 -28 -6 -62 2 -71 -3 -84 -22 -68 -19 16 -32
-38 -40 -165 -3 -55 -12 -131 -20 -170 -7 -38 -16 -89 -19 -112 -3 -23 -11
-54 -17 -70 -10 -24 -12 -26 -18 -10 -4 10 -7 -31 -6 -91 0 -60 3 -105 7 -98
5 6 8 0 8 -14 0 -35 -9 -46 -57 -65 -28 -11 -40 -21 -36 -31 3 -8 1 -14 -5
-14 -13 0 -24 29 -15 43 3 7 3 9 -2 5 -4 -4 -22 0 -39 9 -60 31 -65 33 -82 26
-20 -7 -36 15 -28 41 6 18 5 18 -26 0 -42 -25 -58 -44 -36 -44 9 0 16 -4 16
-8 0 -14 -55 -62 -72 -62 -38 0 -58 68 -33 107 8 12 15 31 15 41 0 10 8 27 19
36 11 10 21 37 25 69 12 101 15 113 34 177 27 88 41 157 39 205 -1 56 21 130
48 159 l22 24 -43 17 c-54 20 -74 47 -74 98 0 30 6 44 26 59 14 11 23 23 20
26 -3 2 -12 0 -20 -7 -11 -9 -15 -8 -20 4 -4 11 -2 14 6 9 7 -5 9 -2 5 8 -3 9
-3 19 0 22 12 12 59 5 84 -12z m1287 -81 c7 -4 12 -12 10 -17 -2 -5 7 -20 20
-34 23 -25 30 -46 10 -34 -7 4 -8 3 -4 -4 4 -7 14 -12 22 -12 7 0 26 -17 41
-37 16 -21 64 -71 108 -112 97 -91 165 -161 165 -173 0 -5 10 -28 22 -51 23
-45 33 -38 26 19 -4 31 -2 33 17 28 52 -16 74 -35 88 -76 26 -71 29 -98 13
-104 -8 -3 -16 -28 -20 -65 l-7 -59 -47 -2 c-26 -1 -57 -1 -70 0 -12 0 -20 -3
-17 -9 10 -15 -49 -10 -73 7 -13 9 -21 22 -18 29 2 7 -5 27 -15 45 -11 18 -18
39 -15 46 3 7 1 16 -4 19 -20 12 -10 26 11 15 30 -16 31 -9 9 38 -20 40 -36
59 -24 27 4 -10 0 -15 -12 -15 -18 -1 -18 -1 0 -15 11 -9 14 -15 7 -15 -14 0
-170 154 -172 170 -1 6 -2 14 -3 20 -2 19 -70 59 -112 66 -24 3 -49 12 -55 20
-14 17 -33 19 -23 2 5 -7 3 -8 -6 -3 -7 4 -22 9 -34 10 -36 4 -37 5 -31 15 4
6 -8 10 -29 10 -25 0 -36 5 -36 15 0 7 -8 19 -17 24 -10 6 -13 10 -8 11 6 0
17 -4 25 -9 21 -14 34 -1 14 14 -16 11 -14 14 20 30 20 10 34 20 32 23 -3 3
-12 -1 -20 -8 -31 -25 -36 -4 -10 37 29 44 44 54 112 72 24 7 42 18 42 26 0
20 45 31 68 16z m-1282 -966 c10 -8 35 -15 55 -15 19 0 40 -5 46 -11 9 -9 20
-6 43 11 30 21 32 21 27 4 -3 -10 -9 -38 -12 -61 -6 -39 -11 -45 -53 -64 -50
-22 -208 -59 -255 -59 -43 0 -62 15 -102 80 -34 57 -36 62 -21 79 9 10 16 23
16 29 0 13 36 10 65 -5 11 -6 25 -8 32 -6 7 2 21 0 31 -6 11 -6 23 -7 27 -3 3
4 23 13 43 19 20 7 27 11 14 9 -12 -2 -20 0 -16 5 8 14 38 11 60 -6z"/>
<path d="M5652 6107 c26 -17 48 -38 48 -44 0 -7 9 -13 20 -13 10 0 23 -6 27
-14 4 -8 27 -19 50 -24 84 -19 173 -90 185 -147 2 -11 9 -19 15 -18 6 1 10 -3
10 -10 -1 -43 4 -57 23 -57 11 0 20 1 20 3 -1 10 -30 80 -49 116 -24 46 -79
103 -92 95 -4 -2 -14 4 -21 13 -7 10 -21 24 -30 31 -14 11 -16 11 -11 -7 6
-24 -12 -29 -20 -7 -3 8 -24 20 -46 26 -22 6 -43 15 -47 21 -3 6 -17 15 -31
20 -14 5 -23 12 -20 15 3 3 20 -1 39 -9 44 -20 68 -27 68 -22 0 10 -93 46
-107 41 -8 -3 -24 1 -36 9 -12 8 -26 15 -32 15 -5 0 11 -15 37 -33z"/>
<path d="M3810 1070 l0 -360 173 0 c200 0 257 12 316 65 82 74 117 184 109
343 -6 118 -33 187 -98 246 -61 55 -115 66 -322 66 l-178 0 0 -360z m377 210
c55 -33 68 -70 68 -195 0 -95 -3 -116 -23 -157 -13 -27 -38 -56 -56 -67 -35
-22 -155 -38 -200 -27 l-26 6 0 230 0 230 103 0 c84 0 108 -4 134 -20z"/>
<path d="M4673 1249 c-77 -14 -131 -56 -169 -129 -22 -44 -31 -197 -14 -258
15 -58 79 -126 138 -149 68 -26 169 -22 229 8 51 27 98 79 108 122 l7 27 -67
0 c-62 0 -69 -2 -95 -30 -22 -24 -36 -30 -70 -30 -73 0 -120 41 -120 105 l0
25 180 0 180 0 0 43 c0 60 -24 136 -59 184 -48 67 -151 101 -248 82z m100
-120 c31 -16 57 -50 57 -76 0 -22 -3 -23 -105 -23 -58 0 -105 2 -105 5 0 20
32 75 51 89 27 19 71 21 102 5z"/>
<path d="M6102 1242 c-99 -36 -161 -125 -170 -243 -14 -205 140 -342 339 -300
118 25 189 116 197 250 5 92 -8 143 -51 207 -61 90 -199 127 -315 86z m158
-117 c45 -23 64 -69 64 -150 0 -47 -5 -80 -17 -102 -31 -58 -106 -79 -166 -48
-84 43 -86 255 -2 300 34 19 85 19 121 0z"/>
<path d="M5285 1238 c-11 -6 -32 -22 -47 -36 l-28 -26 0 32 0 32 -70 0 -70 0
0 -265 0 -265 69 0 70 0 3 191 c3 187 4 191 27 210 28 23 89 25 117 5 17 -13
19 -30 22 -210 l3 -196 70 0 69 0 0 170 c0 225 12 255 105 252 59 -2 65 -22
65 -233 l0 -189 70 0 70 0 0 211 c0 174 -3 217 -16 245 -45 94 -189 114 -274
38 -38 -35 -39 -35 -50 -14 -20 37 -70 60 -130 60 -30 0 -64 -6 -75 -12z"/>
</g>
</svg>
