<?xml version="1.0" standalone="no"?>
<!DOCTYPE svg PUBLIC "-//W3C//DTD SVG 20010904//EN"
 "http://www.w3.org/TR/2001/REC-SVG-20010904/DTD/svg10.dtd">
<svg version="1.0" xmlns="http://www.w3.org/2000/svg"
 width="1024.000000pt" height="768.000000pt" viewBox="0 0 1024.000000 768.000000"
 preserveAspectRatio="xMidYMid meet">
<metadata>
Created by potrace 1.14, written by Peter Selinger 2001-2017
</metadata>
<g transform="translate(0.000000,768.000000) scale(0.100000,-0.100000)"
fill="#000000" stroke="none">
<path d="M5540 7501 c0 -24 -4 -25 -30 -11 -15 8 -58 -9 -211 -85 -105 -52
-205 -107 -221 -122 -80 -76 -91 -173 -44 -378 42 -184 44 -234 11 -330 -73
-212 -277 -669 -575 -1290 -161 -335 -390 -823 -390 -830 0 -2 -23 -43 -52
-91 -28 -49 -93 -176 -143 -284 -169 -359 -221 -452 -329 -587 -112 -138 -284
-266 -452 -334 -232 -94 -267 -132 -304 -329 -18 -90 -21 -140 -18 -235 3
-108 7 -126 34 -185 35 -75 126 -172 189 -201 51 -24 106 -24 240 1 60 11 117
20 126 20 10 0 28 -19 42 -42 30 -51 91 -124 193 -231 l75 -77 59 0 c121 0
199 44 388 218 71 66 147 131 169 146 33 22 42 35 51 77 16 67 15 90 -3 116
-12 17 -15 45 -13 119 2 90 1 98 -21 115 -13 11 -27 19 -32 19 -18 0 -20 -74
-5 -177 17 -117 12 -167 -21 -212 -32 -42 -66 -61 -147 -82 -43 -11 -123 -38
-179 -60 -128 -51 -197 -69 -268 -69 -56 0 -59 1 -91 43 -49 61 -64 86 -108
188 -22 51 -59 117 -82 148 -58 77 -159 182 -169 175 -15 -9 -10 -68 9 -96 9
-15 36 -51 59 -81 24 -29 46 -68 49 -86 6 -30 5 -32 -18 -26 -36 9 -83 10
-198 1 -98 -7 -108 -6 -150 16 l-45 23 -8 115 c-15 211 -13 270 12 327 25 56
58 88 321 308 212 178 328 292 387 377 200 290 620 1064 827 1523 38 83 131
268 208 413 174 327 230 446 303 642 32 85 87 225 123 310 63 150 65 158 69
255 4 83 -1 127 -26 255 l-31 154 24 26 c13 14 35 46 50 71 14 25 37 51 50 57
14 6 60 42 103 79 235 205 248 207 331 45 59 -113 86 -141 193 -196 100 -50
166 -56 305 -27 91 18 106 19 153 7 28 -7 58 -22 66 -32 25 -33 52 -116 64
-194 19 -126 32 -370 20 -391 -12 -23 -51 -44 -99 -54 -19 -4 -45 -13 -57 -21
-12 -8 -33 -14 -46 -14 -71 0 -252 -72 -355 -141 -191 -129 -216 -153 -310
-297 -121 -186 -190 -304 -387 -662 -92 -168 -191 -345 -220 -395 -29 -49 -90
-160 -135 -245 -46 -85 -125 -229 -175 -320 -329 -590 -435 -878 -466 -1256
-11 -146 -3 -314 17 -321 6 -2 25 76 48 199 98 517 159 669 544 1361 175 312
351 655 371 718 7 21 24 50 40 66 30 32 109 172 256 456 82 158 106 196 152
240 31 29 81 86 113 127 32 41 77 95 101 118 44 44 125 92 154 92 9 0 26 12
39 27 25 29 53 33 143 19 48 -8 53 -7 80 20 15 16 32 28 36 26 4 -1 20 4 35
12 15 7 41 11 58 9 20 -3 46 3 70 15 51 27 124 90 124 108 0 8 10 24 23 37 21
21 22 27 19 195 -3 156 -5 175 -23 193 -15 15 -19 33 -19 82 0 56 -5 73 -52
160 -117 222 -274 293 -523 236 -55 -12 -124 -23 -152 -23 -61 -1 -75 10 -158
121 -50 67 -86 96 -137 108 -24 6 -28 4 -28 -14z"/>
<path d="M5840 6966 c0 -14 -11 -71 -25 -128 -14 -57 -25 -117 -25 -134 0 -54
12 -94 28 -94 11 0 13 8 8 39 -4 26 -2 42 7 49 10 9 20 -1 42 -46 l29 -57 6
41 c3 23 25 73 49 113 76 125 87 177 42 194 -16 6 -32 19 -34 29 -4 15 -16 18
-66 18 -58 0 -61 -1 -61 -24z"/>
<path d="M6234 6857 c-13 -6 -27 -28 -34 -51 -7 -23 -25 -67 -41 -98 -19 -37
-29 -73 -29 -100 0 -47 12 -74 28 -64 6 3 15 -2 21 -11 8 -15 13 -10 31 32 34
80 60 186 60 247 0 61 -1 62 -36 45z"/>
<path d="M5182 5619 c-45 -52 -82 -102 -82 -113 0 -11 -27 -47 -60 -82 -63
-65 -75 -99 -44 -125 20 -17 49 0 49 29 0 12 14 36 31 54 29 31 142 179 158
205 3 7 1 22 -6 33 -12 19 -10 24 16 45 16 12 27 28 24 35 -2 7 -41 -30 -86
-81z"/>
<path d="M3942 2498 c-7 -7 -12 -18 -12 -24 0 -22 -22 -28 -35 -10 -11 15 -16
15 -48 1 -46 -19 -50 -19 -43 3 9 25 -80 -76 -110 -125 -38 -64 -27 -85 15
-29 19 25 38 46 42 46 4 0 10 -12 14 -27 l7 -28 17 25 c28 42 63 81 68 76 3
-3 8 -19 12 -37 l6 -32 43 55 c23 30 45 69 48 86 7 33 -3 41 -24 20z"/>
<path d="M3230 820 l0 -360 275 0 275 0 0 65 0 65 -200 0 -200 0 0 90 0 90
173 2 172 3 3 63 3 62 -176 0 -175 0 0 75 0 75 190 0 190 0 0 65 0 65 -265 0
-265 0 0 -360z"/>
<path d="M4460 1066 l0 -75 -37 -3 c-38 -3 -38 -3 -41 -50 l-3 -48 40 0 41 0
0 -188 c0 -174 1 -190 20 -210 25 -26 79 -42 148 -42 l52 0 0 54 0 55 -37 3
-38 3 -3 163 -2 162 40 0 40 0 0 50 0 50 -40 0 -39 0 -3 73 -3 72 -67 3 -68 3
0 -75z"/>
<path d="M5860 1001 c-121 -26 -191 -138 -146 -233 22 -45 68 -70 191 -102 57
-15 105 -34 113 -44 31 -41 -14 -75 -95 -69 -57 4 -93 27 -93 59 0 16 -9 18
-74 18 l-74 0 9 -42 c14 -58 41 -93 97 -119 66 -33 217 -33 277 -2 124 65 141
197 35 274 -14 10 -70 30 -125 45 -119 31 -135 39 -135 64 0 63 150 68 166 5
6 -24 10 -25 76 -25 l71 0 -6 35 c-8 50 -44 95 -93 116 -48 22 -143 31 -194
20z"/>
<path d="M4985 989 c-11 -6 -35 -27 -52 -47 l-33 -37 0 43 0 42 -65 0 -65 0 0
-265 0 -265 69 0 70 0 3 171 3 171 33 29 c26 24 41 29 82 29 l50 0 0 70 0 70
-37 0 c-21 0 -47 -5 -58 -11z"/>
<path d="M5257 986 c-20 -8 -44 -19 -52 -26 -23 -19 -52 -72 -58 -107 l-6 -33
69 0 c56 0 70 3 70 15 0 31 38 55 88 55 61 0 85 -16 80 -55 -3 -34 -29 -44
-151 -63 -115 -18 -169 -73 -169 -173 0 -95 61 -153 162 -152 58 1 107 19 146
55 21 19 21 19 27 -12 l7 -30 75 0 c58 0 75 3 75 14 0 8 -6 16 -12 18 -10 4
-14 58 -18 209 -6 234 -9 243 -90 278 -57 25 -182 28 -243 7z m193 -322 c0
-56 -12 -79 -50 -99 -38 -20 -104 -19 -120 1 -18 21 -17 72 3 91 12 13 119 47
160 52 4 1 7 -20 7 -45z"/>
<path d="M3846 978 c4 -7 43 -66 86 -130 l78 -118 -90 -135 -90 -135 84 0 84
0 44 75 c23 41 46 75 50 75 4 0 25 -34 48 -75 l41 -75 85 0 c46 0 84 2 84 5 0
3 -36 60 -80 126 -45 66 -83 126 -86 134 -3 7 31 68 75 134 45 66 81 123 81
126 0 3 -36 5 -79 5 l-79 0 -42 -76 c-47 -86 -39 -87 -99 19 l-32 57 -85 0
c-65 0 -83 -3 -78 -12z"/>
</g>
</svg>
