<?xml version="1.0" standalone="no"?>
<!DOCTYPE svg PUBLIC "-//W3C//DTD SVG 20010904//EN"
 "http://www.w3.org/TR/2001/REC-SVG-20010904/DTD/svg10.dtd">
<svg version="1.0" xmlns="http://www.w3.org/2000/svg"
 width="1024.000000pt" height="768.000000pt" viewBox="0 0 1024.000000 768.000000"
 preserveAspectRatio="xMidYMid meet">
<metadata>
Created by potrace 1.14, written by Peter Selinger 2001-2017
</metadata>
<g transform="translate(0.000000,768.000000) scale(0.100000,-0.100000)"
fill="#000000" stroke="none">
<path d="M6228 7669 c6 -7 12 -21 12 -31 0 -10 9 -27 19 -37 13 -13 16 -22 9
-29 -6 -6 -6 -17 2 -32 6 -12 9 -28 6 -36 -3 -8 1 -14 10 -14 11 0 12 -4 4
-19 -5 -11 -10 -31 -10 -45 0 -21 5 -26 25 -26 18 0 25 -5 25 -20 0 -27 31
-26 58 3 15 15 22 36 22 61 0 33 -3 37 -22 34 -15 -2 -23 -10 -23 -22 0 -11
-6 -21 -12 -23 -9 -3 -13 6 -13 25 0 17 -3 32 -7 34 -13 5 -47 78 -40 84 3 3
1 11 -4 18 -6 6 -18 26 -27 45 -9 19 -24 37 -32 39 -12 4 -13 2 -2 -9z"/>
<path d="M4100 7358 c-16 -22 -30 -47 -30 -55 0 -7 -4 -13 -9 -13 -5 0 -13
-10 -16 -22 -4 -13 -18 -34 -30 -48 -13 -14 -25 -38 -28 -55 l-4 -30 -14 33
c-8 19 -21 32 -31 32 -30 0 -24 -74 7 -106 21 -21 29 -23 40 -14 8 7 13 16 10
20 -3 5 7 10 22 12 29 3 31 10 19 70 -4 21 -2 26 9 21 10 -3 15 1 15 13 0 9
20 55 45 101 48 88 45 111 -5 41z"/>
<path d="M6398 7363 c-8 -15 -2 -98 9 -123 20 -47 34 -173 42 -368 4 -105 11
-195 14 -199 18 -17 22 23 22 200 0 185 -13 294 -53 461 -7 29 -26 45 -34 29z"/>
<path d="M6270 7351 c0 -6 11 -22 24 -36 27 -29 28 -36 46 -310 6 -88 15 -198
21 -243 7 -60 7 -88 -1 -97 -8 -10 -3 -25 24 -62 53 -72 64 -83 86 -83 10 0
24 9 30 19 8 17 6 22 -17 34 -16 7 -26 20 -24 28 2 8 6 22 8 32 4 13 0 17 -18
15 -20 -3 -25 3 -35 44 -19 73 -36 285 -39 468 l-3 165 -38 17 c-44 20 -64 22
-64 9z"/>
<path d="M5114 7321 c-32 -14 -37 -40 -15 -85 11 -22 18 -42 15 -45 -3 -4 -26
16 -51 44 l-45 49 -29 -34 c-42 -51 -69 -111 -69 -153 0 -20 3 -37 8 -37 4 0
19 14 34 32 l27 33 1 -25 c0 -15 -17 -49 -40 -79 -59 -79 -52 -133 19 -145 38
-6 40 -7 31 -32 -7 -17 -7 -32 0 -45 12 -21 30 -26 30 -6 1 7 6 4 15 -7 7 -10
18 -15 24 -11 6 3 11 1 11 -5 0 -7 7 -10 15 -7 8 4 17 2 20 -3 11 -18 71 -11
90 10 23 26 116 30 95 5 -7 -8 -22 -15 -34 -15 -12 0 -35 -13 -51 -30 -28 -29
-55 -39 -55 -21 0 15 -30 21 -51 11 -14 -8 -19 -7 -19 1 0 6 -7 9 -15 6 -8 -4
-17 -2 -21 4 -3 6 -12 8 -20 5 -7 -3 -16 -1 -19 5 -4 5 -14 8 -23 7 -11 -2
-20 11 -31 48 -9 28 -30 66 -48 84 -28 30 -33 32 -39 16 -4 -11 8 -49 35 -104
22 -48 41 -96 41 -107 1 -46 43 -73 128 -81 68 -7 85 0 151 62 25 24 66 61 91
83 35 31 42 42 33 52 -8 8 -9 18 -3 29 5 9 9 43 9 76 -1 35 8 83 20 118 31 86
28 134 -11 192 -24 36 -48 56 -88 76 -61 30 -134 42 -166 29z"/>
<path d="M3892 7073 c-18 -36 -85 -261 -103 -348 -23 -111 -37 -315 -21 -315
12 0 21 41 57 252 29 178 51 265 73 298 9 14 17 39 18 55 1 17 4 40 8 53 9 27
-18 32 -32 5z"/>
<path d="M3975 7057 l-40 -13 -7 -94 c-7 -106 -69 -441 -96 -523 -14 -44 -21
-52 -40 -50 -19 2 -22 -2 -22 -32 0 -28 -4 -35 -19 -35 -29 0 -34 -17 -12 -39
10 -10 22 -29 26 -41 7 -21 10 -21 128 -15 102 6 213 22 503 72 27 4 33 2 39
-17 6 -20 8 -21 26 -4 10 9 19 23 19 30 0 7 11 26 25 42 14 17 25 42 25 56 0
33 -29 47 -44 21 -32 -55 -88 -73 -376 -120 -192 -31 -190 -31 -190 0 0 30 -4
31 -40 5 -16 -11 -45 -27 -66 -36 l-36 -15 37 46 c21 25 45 50 54 55 11 6 16
24 17 57 1 51 90 540 106 584 5 15 21 32 34 38 26 12 28 35 3 38 -8 1 -32 -4
-54 -10z"/>
<path d="M5617 6584 c-3 -4 1 -20 9 -37 16 -29 15 -31 -7 -48 -21 -16 -22 -21
-11 -39 8 -14 9 -20 1 -20 -6 0 -13 9 -16 20 -7 26 -33 26 -33 1 0 -16 -17
-25 -87 -46 -49 -14 -107 -32 -131 -40 -38 -13 -46 -12 -88 6 -45 20 -74 20
-74 -1 0 -6 5 -8 10 -5 14 9 70 -4 70 -16 0 -5 -13 -9 -29 -9 -32 0 -51 -27
-26 -37 9 -3 64 10 123 30 132 43 208 61 227 53 8 -3 15 -17 15 -31 0 -35 23
-41 71 -20 59 27 69 44 30 51 -43 9 -39 24 8 24 32 0 46 -7 83 -45 49 -49 68
-56 68 -25 0 23 6 24 220 45 153 16 207 23 325 45 92 18 110 24 113 41 2 13
-8 18 -45 24 -26 4 -63 13 -82 21 -39 16 -55 10 -41 -16 8 -15 6 -20 -8 -24
-51 -16 -285 -39 -406 -40 -133 -1 -139 0 -153 22 -9 12 -21 22 -28 22 -15 0
-28 -27 -19 -41 3 -5 1 -9 -5 -9 -5 0 -13 10 -16 21 -7 22 7 39 33 39 22 0 13
19 -18 35 -16 8 -34 24 -40 35 -11 20 -31 26 -43 14z"/>
<path d="M4895 6336 c-19 -16 -17 -16 35 -11 50 6 58 4 83 -20 19 -18 27 -36
27 -60 0 -18 5 -46 11 -62 6 -15 16 -114 24 -220 12 -177 15 -196 41 -242 15
-28 31 -51 35 -51 16 0 22 95 23 337 1 185 -2 257 -11 269 -7 10 -10 27 -7 39
5 21 3 22 -63 21 -37 0 -93 3 -123 7 -44 7 -59 6 -75 -7z"/>
<path d="M5442 6224 c-20 -27 -47 -51 -70 -61 -43 -18 -122 -29 -122 -17 0 5
23 32 52 61 60 60 48 67 -32 19 l-55 -33 0 -74 c1 -41 4 -132 8 -202 7 -128 8
-129 40 -161 17 -17 63 -69 101 -114 39 -45 72 -82 76 -82 3 0 27 -18 54 -40
46 -38 49 -39 77 -25 29 15 63 67 57 87 -2 6 -16 -6 -31 -26 -28 -36 -57 -48
-57 -22 0 7 10 25 21 40 23 29 59 116 59 142 0 27 -19 5 -30 -35 -10 -36 -54
-90 -66 -79 -3 3 14 42 37 86 49 93 48 129 -1 56 -49 -72 -71 -94 -96 -94 -41
0 -37 21 15 72 58 57 104 129 99 155 -3 14 -11 7 -35 -28 -57 -83 -127 -131
-168 -115 -29 11 -14 36 53 89 83 68 118 104 131 140 15 39 1 33 -42 -17 -53
-64 -180 -120 -217 -97 -12 9 -12 12 3 29 9 10 38 29 64 41 93 46 143 83 169
127 14 24 24 54 22 66 -3 20 -8 16 -36 -29 -37 -58 -73 -84 -158 -113 -67 -23
-94 -25 -94 -7 0 15 10 21 108 63 69 30 142 101 142 138 0 17 -8 12 -43 -26
-46 -51 -112 -86 -168 -90 -28 -3 -34 0 -34 16 0 14 14 26 50 40 79 33 119 62
143 104 41 74 22 86 -26 16z"/>
<path d="M4874 6231 c9 -10 37 -29 62 -42 45 -24 58 -48 27 -50 -92 -5 -135 9
-190 64 -38 36 -43 39 -43 19 0 -38 61 -87 146 -117 114 -41 137 -70 56 -69
-71 0 -108 14 -162 60 -55 47 -72 50 -50 9 21 -39 84 -76 173 -102 88 -25 110
-39 89 -52 -14 -8 -106 3 -162 20 -19 6 -59 34 -87 62 -55 54 -74 58 -50 10
33 -62 82 -94 215 -138 64 -21 82 -31 80 -44 -4 -22 -75 -26 -141 -7 -37 11
-65 28 -97 61 -51 52 -67 58 -46 17 22 -43 85 -95 165 -137 81 -43 91 -68 29
-73 -48 -4 -92 19 -145 76 -26 27 -43 39 -43 29 0 -26 63 -100 115 -135 59
-39 63 -47 36 -62 -30 -16 -70 8 -117 70 -37 48 -62 66 -50 35 3 -8 28 -49 57
-91 28 -41 48 -78 45 -82 -8 -8 -53 36 -77 75 -12 18 -25 33 -30 33 -13 0 32
-87 70 -134 33 -42 37 -51 21 -61 -6 -4 -25 10 -42 29 -17 20 -35 36 -40 36
-16 0 -7 -19 26 -54 35 -38 66 -45 88 -22 7 8 34 37 61 64 26 28 47 57 47 65
0 7 12 24 26 38 14 13 34 40 44 59 10 19 32 53 49 74 21 26 29 45 25 55 -4 9
-8 34 -9 56 -11 202 -24 312 -39 324 -11 9 -128 51 -142 51 -4 0 1 -9 10 -19z"/>
<path d="M4789 5191 c-32 -32 -39 -84 -16 -113 14 -19 201 -164 249 -193 67
-42 75 -106 14 -113 -37 -5 -72 20 -79 56 -8 39 -68 116 -94 120 -29 4 -53
-24 -53 -62 0 -37 21 -60 68 -77 17 -6 52 -35 77 -65 60 -70 85 -72 144 -9 23
25 46 45 51 45 5 0 21 -16 36 -36 15 -19 41 -42 58 -51 l30 -16 56 60 c30 33
76 72 102 87 55 31 69 63 44 101 -33 50 -81 24 -127 -69 l-34 -71 -51 -3 -51
-3 7 43 c5 23 13 44 19 46 6 2 39 23 72 45 33 23 72 48 85 55 14 8 28 20 31
28 3 7 27 29 54 49 46 33 49 38 49 79 0 33 -6 49 -26 70 -38 37 -87 35 -183
-9 -155 -69 -199 -69 -347 0 -96 45 -144 46 -185 6z"/>
<path d="M5418 4702 c-41 -24 -44 -43 -11 -70 59 -48 72 -64 82 -95 6 -18 45
-201 86 -407 82 -404 83 -416 28 -422 -22 -2 -29 -9 -31 -30 -5 -41 28 -68 82
-68 41 0 45 -2 51 -30 10 -45 37 -55 65 -25 l23 24 -22 50 c-12 28 -30 110
-42 183 -27 181 -85 529 -110 662 l-20 108 26 38 c22 32 25 42 15 59 -13 26
-16 26 -66 -1 -46 -24 -37 -26 -109 26 -18 13 -23 13 -47 -2z"/>
<path d="M4677 4683 c-12 -11 -8 -48 8 -69 8 -10 15 -30 15 -43 0 -13 -29
-135 -65 -270 -35 -135 -83 -322 -105 -416 -43 -180 -55 -221 -77 -246 -26
-31 -10 -79 28 -79 10 0 28 15 40 33 12 17 24 33 25 35 1 2 12 -1 24 -8 27
-14 56 -5 76 25 21 32 10 61 -26 69 -23 4 -30 11 -30 29 0 25 187 680 217 763
13 34 29 55 53 71 79 50 76 47 57 77 -21 32 -59 34 -102 6 -39 -26 -47 -25
-83 5 -31 26 -44 30 -55 18z"/>
<path d="M4455 3508 c-2 -7 -6 -267 -7 -578 -3 -528 -4 -568 -21 -594 -30 -45
-16 -60 48 -52 36 4 55 3 55 -4 0 -17 -65 -40 -110 -40 -22 0 -40 -2 -40 -4 0
-2 9 -24 20 -50 27 -60 57 -64 62 -8 2 30 7 38 26 40 22 3 30 -12 12 -23 -5
-3 -10 -22 -10 -41 0 -34 0 -35 -41 -32 -34 2 -44 -3 -64 -28 -13 -16 -24 -32
-25 -36 0 -15 27 -8 54 13 18 14 24 16 20 5 -3 -8 -21 -27 -40 -41 -33 -25
-44 -45 -25 -45 5 0 28 12 50 27 28 18 41 34 41 49 0 17 14 32 53 57 28 18 61
37 72 41 18 6 17 9 -13 37 -18 17 -32 33 -32 36 0 12 53 83 61 83 14 0 10 28
-4 37 -8 4 -16 18 -20 31 -6 27 8 495 23 742 11 169 12 176 40 216 16 23 27
44 24 47 -3 3 -21 3 -39 0 -29 -5 -39 0 -65 25 -16 17 -30 38 -30 47 0 31 -20
55 -46 55 -13 0 -27 -6 -29 -12z"/>
<path d="M5716 3504 c-9 -8 -16 -26 -16 -38 0 -15 -9 -27 -25 -34 -32 -15 -31
-23 1 -51 l27 -23 -7 -142 c-21 -439 -66 -844 -97 -882 -6 -8 -20 -14 -31 -14
-14 0 -19 -6 -16 -22 3 -20 9 -23 48 -24 25 0 60 -4 78 -8 39 -9 52 11 32 49
-15 29 -13 97 24 600 25 337 43 525 52 556 5 19 -20 49 -41 49 -7 0 -21 -7
-29 -16z"/>
<path d="M5560 3398 c0 -7 9 -26 20 -43 24 -36 25 -125 10 -515 -16 -424 -19
-450 -46 -477 -27 -27 -31 -43 -10 -43 23 0 64 39 70 68 8 38 26 389 35 692 5
140 12 264 16 276 6 18 0 24 -34 38 -50 19 -61 20 -61 4z"/>
<path d="M5580 2240 c0 -11 -11 -27 -25 -36 -25 -16 -35 -54 -14 -54 6 0 22
-9 36 -20 36 -28 57 -10 49 42 -4 21 -3 38 1 38 22 -1 33 -20 31 -51 -3 -28 0
-34 16 -34 20 0 51 43 58 78 2 15 -4 20 -32 22 -19 2 -52 11 -72 19 -47 20
-48 20 -48 -4z"/>
<path d="M2260 1070 l0 -360 75 0 75 0 0 360 0 360 -75 0 -75 0 0 -360z"/>
<path d="M4830 1304 l0 -127 -27 28 c-36 35 -63 45 -125 45 -139 0 -219 -102
-221 -280 0 -68 4 -96 23 -138 60 -138 227 -182 324 -85 l36 36 0 -36 0 -37
65 0 65 0 0 360 0 360 -70 0 -70 0 0 -126z m-46 -199 c35 -33 46 -65 46 -136
0 -120 -76 -188 -165 -147 -80 36 -89 239 -13 292 35 25 100 21 132 -9z"/>
<path d="M6600 1370 l0 -60 70 0 70 0 0 60 0 60 -70 0 -70 0 0 -60z"/>
<path d="M3177 1383 c-4 -3 -7 -37 -7 -75 l0 -68 -35 0 -35 0 0 -50 0 -50 35
0 35 0 0 -162 c0 -249 12 -270 148 -272 l77 -1 3 53 3 52 -39 0 c-27 0 -42 5
-46 16 -3 9 -6 83 -6 165 l0 149 45 0 45 0 0 50 0 50 -45 0 -45 0 0 75 0 75
-63 0 c-35 0 -67 -3 -70 -7z"/>
<path d="M6287 1383 c-4 -3 -7 -37 -7 -75 l0 -68 -35 0 -35 0 0 -50 0 -50 35
0 35 0 0 -162 c0 -249 12 -270 148 -272 l77 -1 3 53 3 52 -39 0 c-27 0 -42 5
-46 16 -3 9 -6 83 -6 165 l0 149 45 0 45 0 0 50 0 50 -45 0 -45 0 0 75 0 75
-63 0 c-35 0 -67 -3 -70 -7z"/>
<path d="M4010 1240 c-101 -34 -164 -137 -163 -265 0 -122 48 -210 138 -255
41 -20 65 -25 130 -25 65 0 89 5 130 25 90 45 138 133 138 255 1 211 -172 335
-373 265z m179 -126 c33 -28 51 -76 51 -139 0 -103 -47 -165 -124 -165 -80 0
-126 61 -126 165 0 104 46 165 126 165 31 0 51 -7 73 -26z"/>
<path d="M7012 1241 c-87 -30 -140 -97 -162 -203 -28 -139 38 -282 148 -325
62 -24 172 -24 234 0 162 63 205 336 74 472 -68 71 -185 94 -294 56z m183
-131 c28 -27 45 -77 45 -135 0 -103 -47 -165 -124 -165 -80 0 -126 61 -126
165 0 68 18 114 56 144 38 30 113 25 149 -9z"/>
<path d="M2744 1231 c-18 -11 -39 -30 -48 -42 -16 -23 -16 -23 -16 14 l0 37
-70 0 -70 0 0 -265 0 -265 69 0 69 0 4 178 c3 150 6 181 21 203 24 35 68 53
112 45 61 -12 65 -28 65 -238 l0 -188 76 0 76 0 -4 208 c-4 239 -12 270 -83
309 -53 30 -155 32 -201 4z"/>
<path d="M3664 1206 l-44 -43 0 38 0 39 -65 0 -65 0 0 -265 0 -265 70 0 70 0
0 160 c0 176 7 206 55 228 14 7 44 12 65 12 l40 0 0 70 0 70 -41 0 c-36 0 -48
-6 -85 -44z"/>
<path d="M5837 1240 c-46 -14 -91 -54 -121 -110 -22 -41 -29 -69 -33 -135 -10
-157 45 -256 161 -290 141 -41 273 23 312 151 l13 44 -74 0 c-69 0 -75 -2 -75
-20 0 -34 -44 -70 -85 -70 -78 0 -108 45 -108 160 0 106 25 151 90 164 42 10
88 -15 101 -54 11 -30 12 -30 81 -30 l71 0 -7 33 c-14 79 -58 131 -132 156
-39 13 -152 13 -194 1z"/>
<path d="M7695 1235 c-16 -8 -40 -28 -52 -43 l-23 -27 0 38 0 37 -65 0 -65 0
0 -265 0 -265 69 0 70 0 3 186 3 186 33 29 c41 37 89 39 129 5 l28 -24 3 -191
4 -191 69 0 69 0 0 203 c0 191 -1 205 -22 247 -34 66 -66 84 -151 88 -51 2
-81 -2 -102 -13z"/>
<path d="M5092 1038 c3 -188 5 -207 26 -250 17 -35 34 -52 66 -67 77 -38 178
-23 231 35 l25 27 0 -37 0 -36 65 0 65 0 0 265 0 265 -69 0 -70 0 -3 -185 -3
-185 -27 -26 c-37 -37 -111 -40 -139 -5 -17 21 -19 41 -19 212 l0 189 -76 0
-76 0 4 -202z"/>
<path d="M6600 975 l0 -265 70 0 70 0 0 265 0 265 -70 0 -70 0 0 -265z"/>
</g>
</svg>
