<?xml version="1.0" standalone="no"?>
<!DOCTYPE svg PUBLIC "-//W3C//DTD SVG 20010904//EN"
 "http://www.w3.org/TR/2001/REC-SVG-20010904/DTD/svg10.dtd">
<svg version="1.0" xmlns="http://www.w3.org/2000/svg"
 width="800.000000pt" height="495.000000pt" viewBox="0 0 800.000000 495.000000"
 preserveAspectRatio="xMidYMid meet">

<g transform="translate(0.000000,495.000000) scale(0.100000,-0.100000)"
fill="#000000" stroke="none">
<path d="M5920 4787 c-99 -28 -170 -94 -196 -183 -20 -69 -12 -131 25 -211 15
-32 28 -78 30 -102 2 -45 23 -97 41 -103 6 -2 16 -48 23 -103 15 -113 24 -134
70 -168 73 -55 171 -60 252 -13 61 36 77 66 87 170 8 77 13 94 37 122 30 34
47 98 36 134 -4 12 1 30 13 48 46 65 56 184 23 257 -22 50 -89 111 -150 138
-58 26 -223 34 -291 14z m300 -59 c50 -26 71 -43 94 -81 34 -55 45 -134 26
-191 -14 -42 -34 -50 -23 -8 13 46 10 127 -5 127 -17 0 -25 -76 -22 -218 1
-91 -1 -111 -16 -128 -9 -10 -25 -19 -35 -19 -17 0 -73 -56 -81 -82 -3 -9 -31
-14 -100 -16 -101 -4 -97 -6 -139 51 -12 15 -38 36 -59 47 -21 11 -41 28 -45
39 -3 11 -6 66 -6 123 1 177 -2 209 -19 206 -17 -4 -20 -77 -6 -135 13 -51 -9
-40 -24 12 -19 68 -9 156 23 202 76 110 290 145 437 71z m-2 -678 c-3 -40 -10
-66 -24 -81 -78 -86 -255 -76 -299 17 -8 17 -14 52 -14 76 l1 43 7 -37 c14
-70 58 -98 157 -98 53 0 76 5 109 25 38 21 43 30 49 70 10 65 19 55 14 -15z"/>
<path d="M6133 4440 c-35 -14 -56 -55 -49 -92 18 -91 133 -122 171 -47 23 44
20 106 -7 123 -31 19 -88 28 -115 16z"/>
<path d="M5858 4424 c-25 -13 -28 -21 -28 -63 0 -83 54 -126 123 -97 35 14 67
65 67 105 0 12 -11 33 -25 46 -28 29 -93 33 -137 9z"/>
<path d="M6012 4295 c-35 -39 -52 -115 -32 -140 14 -17 46 -20 55 -5 5 8 11 7
20 0 8 -6 24 -10 37 -8 49 7 30 129 -26 170 -24 17 -25 17 -54 -17z"/>
<path d="M2105 3935 c-89 -29 -137 -50 -188 -82 -23 -14 -50 -29 -62 -32 -11
-3 -80 -37 -153 -76 -132 -69 -134 -70 -128 -100 13 -72 18 -771 7 -1144 -6
-222 -10 -406 -8 -407 1 -2 61 27 132 64 l130 67 -2 303 c-1 166 0 302 4 302
27 0 217 -146 294 -227 65 -66 160 -194 186 -247 9 -20 20 -36 25 -36 4 0 64
33 132 74 l124 74 49 -50 c80 -83 158 -111 346 -128 100 -9 249 -2 343 16 18
3 75 41 135 89 65 52 106 79 110 72 6 -11 22 -129 35 -259 7 -72 20 -74 89
-14 33 28 69 49 106 59 82 24 85 29 71 150 -14 121 -16 497 -3 497 10 0 70
-79 90 -118 16 -31 81 -288 81 -320 0 -14 17 -54 37 -88 l37 -63 30 18 c17 10
75 44 129 76 53 32 97 61 97 66 0 5 -13 35 -30 66 -16 31 -30 64 -30 75 0 35
-50 222 -77 287 -53 128 -177 249 -256 251 -15 0 -50 -11 -77 -25 -27 -14 -55
-25 -61 -25 -8 0 -10 106 -7 414 l4 415 -131 -69 -130 -69 4 -318 c2 -175 0
-465 -4 -644 l-8 -326 -51 -13 c-73 -18 -307 -25 -393 -11 -147 23 -246 82
-296 176 -19 34 -22 55 -21 150 0 70 6 125 15 150 14 40 15 40 63 37 26 -2 58
-7 71 -12 19 -7 43 5 150 77 70 46 123 88 119 93 -13 11 -72 28 -126 35 -64
10 -143 -15 -253 -80 -49 -29 -111 -64 -136 -78 -75 -43 -134 -106 -154 -168
-20 -59 -27 -239 -12 -294 6 -21 -11 -4 -59 60 -115 153 -267 289 -446 396
l-77 47 87 57 c101 67 214 172 247 230 35 59 49 150 42 268 -7 125 -22 197
-53 259 -42 83 -72 92 -189 53z m-85 -187 c39 -42 55 -121 55 -278 0 -142 -1
-146 -29 -198 -30 -54 -126 -146 -183 -176 l-33 -17 1 268 c1 148 4 293 7 323
l7 54 70 23 c87 27 80 27 105 1z"/>
<path d="M5843 3776 c-89 -28 -153 -86 -153 -137 0 -39 53 -96 130 -139 l62
-35 -7 -545 -7 -544 -63 -61 c-96 -92 -109 -166 -39 -211 36 -24 141 -22 217
4 l58 19 30 -28 c64 -60 167 -62 271 -7 70 37 102 78 93 123 -7 40 -42 73
-134 128 l-78 47 -32 110 c-95 323 -92 573 11 864 29 81 36 92 86 131 72 57
112 116 112 167 0 92 -112 120 -267 67 -51 -17 -52 -17 -70 3 -46 52 -136 70
-220 44z m136 -105 c12 -12 17 -27 14 -40 -6 -23 36 -71 62 -71 27 0 55 20 65
45 7 17 23 28 61 39 54 16 109 21 109 9 0 -17 -55 -74 -103 -106 -29 -20 -54
-42 -55 -49 0 -7 -17 -57 -36 -111 -60 -164 -79 -279 -79 -457 -1 -175 13
-264 70 -466 l37 -132 65 -37 c79 -45 131 -83 131 -95 0 -17 -78 -50 -116 -50
-45 0 -74 24 -74 61 0 32 -21 56 -57 65 -21 6 -31 1 -49 -19 -12 -14 -24 -31
-26 -37 -3 -11 -99 -40 -135 -40 -13 0 -23 4 -23 10 0 17 60 78 103 105 l42
27 -3 146 c-1 81 1 347 6 592 7 396 6 446 -7 458 -9 7 -52 34 -95 60 -44 26
-81 52 -83 58 -6 17 77 54 120 54 23 0 44 -7 56 -19z"/>
<path d="M6875 3195 c-68 -18 -319 -164 -377 -219 -63 -59 -81 -121 -82 -271
0 -131 16 -176 91 -256 84 -90 159 -120 350 -139 117 -12 328 2 374 24 36 18
219 165 219 176 0 13 -2 13 -85 -5 -90 -19 -308 -19 -397 0 -130 27 -213 81
-261 170 -19 35 -22 55 -21 150 1 72 6 124 16 150 15 40 16 40 63 37 26 -2 57
-7 70 -12 19 -7 43 5 149 76 70 47 124 89 121 94 -17 27 -164 44 -230 25z"/>
<path d="M810 3119 c-248 -21 -454 -122 -550 -271 -100 -154 -88 -332 30 -442
103 -97 190 -121 435 -119 217 1 269 15 333 89 l38 44 54 -29 c95 -51 127 -55
266 -35 104 14 124 20 124 34 0 13 -11 19 -43 24 -24 4 -70 19 -103 35 -159
75 -194 162 -194 480 0 139 3 167 16 183 16 17 11 18 -152 16 -93 -1 -207 -5
-254 -9z m84 -276 c-17 -230 -35 -331 -69 -388 -27 -47 -79 -85 -116 -85 -37
0 -122 44 -169 87 -55 49 -80 103 -80 175 0 143 98 272 268 350 51 23 171 59
179 54 1 -1 -5 -88 -13 -193z"/>
<path d="M5055 3069 c-186 -14 -312 -52 -432 -131 -252 -163 -287 -483 -69
-623 108 -69 157 -79 381 -80 190 0 203 1 253 24 47 21 104 71 113 100 3 8 24
1 59 -18 95 -51 135 -57 276 -36 85 12 124 22 124 31 0 13 -11 18 -70 29 -19
4 -53 16 -75 28 -162 81 -195 160 -195 469 0 150 3 184 15 199 15 16 7 17
-132 16 -81 0 -193 -4 -248 -8z m71 -115 c-4 -14 -11 -97 -16 -185 -16 -260
-52 -384 -123 -428 -43 -26 -79 -26 -136 0 -67 30 -126 83 -151 135 -19 38
-22 57 -18 122 7 121 56 201 167 277 66 45 213 105 260 105 20 0 22 -4 17 -26z"/>
<path d="M1937 1300 c-19 -41 -37 -85 -41 -97 -4 -11 -13 -27 -21 -33 -23 -19
-18 -30 16 -30 26 0 29 2 19 15 -6 8 -9 23 -5 35 10 31 82 29 94 -2 5 -14 5
-28 -1 -35 -8 -10 0 -13 37 -13 25 0 45 3 43 8 -12 23 -73 153 -88 187 l-18
40 -35 -75z m26 -27 c2 -10 8 -26 12 -35 6 -15 2 -18 -25 -18 -27 0 -31 3 -25
18 4 9 10 25 12 35 3 9 9 17 13 17 4 0 10 -8 13 -17z"/>
<path d="M2506 1348 c-9 -12 -16 -28 -16 -34 0 -7 -6 -15 -12 -17 -10 -4 -10
-8 1 -15 10 -7 12 -27 9 -76 l-4 -66 31 0 31 0 -4 66 c-3 49 -1 69 9 76 11 7
11 11 2 15 -15 6 -18 63 -3 63 6 0 10 -7 10 -15 0 -8 7 -15 15 -15 8 0 15 9
15 20 0 30 -63 28 -84 -2z"/>
<path d="M3518 1359 c-10 -5 -18 -19 -18 -29 0 -10 -8 -24 -17 -29 -15 -9 -15
-12 -5 -19 10 -7 13 -28 10 -76 l-3 -66 30 0 31 0 -4 66 c-3 49 -1 69 9 76 11
7 11 11 2 15 -15 6 -18 63 -3 63 6 0 10 -7 10 -16 0 -9 7 -14 18 -12 9 2 17
10 17 18 0 18 -52 25 -77 9z"/>
<path d="M4125 1255 l0 -115 34 0 c26 0 32 3 27 16 -3 9 -6 60 -6 115 l0 99
-27 0 -28 0 0 -115z"/>
<path d="M4950 1351 c0 -26 17 -36 35 -21 18 15 8 40 -16 40 -12 0 -19 -7 -19
-19z"/>
<path d="M5908 1358 c7 -7 12 -24 12 -38 0 -24 -3 -26 -34 -22 -26 3 -37 -1
-50 -19 -23 -33 -21 -94 4 -119 22 -22 55 -26 66 -9 5 8 9 8 14 -1 4 -7 17 -9
33 -5 22 6 25 10 17 25 -6 10 -10 59 -10 109 l0 91 -32 0 c-25 0 -29 -3 -20
-12z m12 -132 c0 -44 -19 -74 -40 -61 -11 7 -14 107 -4 118 4 3 15 2 25 -4 14
-7 19 -21 19 -53z"/>
<path d="M2597 1315 c-15 -19 -23 -35 -17 -35 6 0 10 -24 10 -58 0 -77 23
-101 66 -66 15 12 15 15 2 10 -20 -6 -28 13 -28 70 0 37 3 44 20 44 25 0 26
16 1 23 -11 2 -21 14 -23 26 -3 19 -5 18 -31 -14z"/>
<path d="M4557 1317 c-16 -17 -24 -33 -18 -35 6 -2 11 -29 11 -62 0 -63 15
-86 50 -75 21 7 28 27 8 23 -9 -2 -14 15 -16 55 -3 52 -1 57 18 57 11 0 20 5
20 10 0 6 -9 10 -19 10 -13 0 -21 8 -23 24 l-3 24 -28 -31z"/>
<path d="M2178 1275 c-10 -23 -8 -29 27 -65 28 -29 36 -43 28 -51 -8 -8 -17
-5 -32 10 -27 27 -29 26 -24 -3 4 -19 11 -23 41 -22 29 1 39 7 52 29 15 28 14
29 -22 61 -21 18 -38 38 -38 45 0 19 28 12 44 -11 l16 -22 0 27 c0 25 -3 27
-40 27 -34 0 -42 -4 -52 -25z"/>
<path d="M2327 1283 c-25 -29 -30 -68 -13 -101 30 -57 97 -55 122 4 25 59 -5
114 -61 114 -18 0 -39 -8 -48 -17z m67 -9 c10 -25 7 -83 -5 -105 -18 -34 -39
-5 -39 56 0 28 3 55 7 58 11 12 31 7 37 -9z"/>
<path d="M2714 1220 c17 -44 33 -80 37 -80 3 0 13 23 23 51 20 55 27 54 46 -3
17 -55 26 -54 46 4 9 29 23 65 31 81 11 23 11 27 0 27 -9 0 -17 -15 -21 -40
-3 -22 -10 -40 -14 -40 -10 0 -33 61 -26 71 3 5 -11 9 -32 9 -32 0 -35 -2 -24
-15 10 -13 10 -21 1 -43 l-13 -27 -14 34 c-8 18 -11 37 -8 42 3 5 -10 9 -29 9
l-34 0 31 -80z"/>
<path d="M2958 1289 c-25 -14 -23 -49 3 -49 15 0 19 5 17 22 -2 15 3 24 14 26
14 3 16 -6 17 -57 0 -47 -3 -61 -15 -61 -17 0 -19 31 -2 48 9 9 9 12 0 12 -15
0 -62 -45 -62 -58 0 -22 27 -32 55 -22 19 7 31 7 40 0 7 -6 19 -8 27 -5 11 4
13 20 10 68 -2 34 -9 68 -14 75 -12 14 -66 15 -90 1z"/>
<path d="M3108 1288 c15 -15 16 -102 2 -129 -10 -17 -7 -19 32 -19 33 0 39 3
30 12 -14 14 -16 77 -2 98 5 8 19 15 31 15 27 0 37 23 14 31 -9 4 -24 -1 -35
-11 -18 -16 -20 -17 -20 -2 0 12 -9 17 -32 17 -25 0 -29 -3 -20 -12z"/>
<path d="M3261 1274 c-12 -15 -21 -39 -21 -54 0 -36 35 -80 64 -80 21 0 66 32
66 47 0 4 -5 2 -12 -5 -17 -17 -55 -15 -62 4 -14 35 -7 44 35 44 37 0 40 2 33
23 -10 35 -24 47 -54 47 -19 0 -36 -9 -49 -26z m63 0 c10 -27 7 -34 -19 -34
-14 0 -25 4 -25 9 0 20 13 41 25 41 7 0 16 -7 19 -16z"/>
<path d="M3600 1280 c-44 -44 -11 -140 49 -140 32 0 71 43 71 78 0 68 -75 107
-120 62z m68 -55 c3 -61 -9 -88 -30 -67 -13 13 -15 102 -3 122 15 25 30 1 33
-55z"/>
<path d="M3755 1220 l0 -80 30 0 30 0 -2 67 c-1 38 -2 74 -2 81 -1 6 -13 12
-28 12 l-28 0 0 -80z"/>
<path d="M3830 1290 c-13 -9 -13 -11 0 -20 21 -14 37 -12 43 4 10 25 -15 34
-43 16z"/>
<path d="M3994 1279 c-11 -13 -19 -35 -19 -59 0 -70 56 -102 106 -60 l24 20
-32 -6 c-38 -7 -56 18 -51 73 3 41 23 55 31 23 5 -20 31 -27 42 -11 9 15 -25
41 -54 41 -16 0 -36 -9 -47 -21z"/>
<path d="M4228 1233 c2 -37 9 -74 14 -80 13 -16 44 -17 54 -2 4 8 9 8 17 0 6
-6 22 -11 35 -11 18 0 23 4 18 16 -3 9 -6 45 -6 80 0 61 -1 64 -24 64 -22 0
-23 -3 -23 -60 1 -52 -13 -93 -27 -79 -2 2 -6 33 -8 69 -3 61 -4 65 -29 68
-25 3 -25 3 -21 -65z"/>
<path d="M4408 1275 c-10 -23 -8 -29 27 -65 28 -29 36 -43 28 -51 -8 -8 -17
-5 -32 10 l-21 21 0 -24 c0 -20 5 -23 37 -22 30 1 40 6 53 29 15 28 14 29 -22
61 -21 18 -38 38 -38 45 0 19 28 12 44 -11 l16 -22 0 27 c0 25 -3 27 -40 27
-34 0 -42 -4 -52 -25z"/>
<path d="M4660 1280 c-42 -42 -15 -140 39 -140 10 0 29 9 42 19 l24 19 -29 -5
c-21 -4 -33 -1 -43 12 -23 33 -16 45 27 45 32 0 40 4 40 18 0 25 -31 52 -58
52 -12 0 -31 -9 -42 -20z m62 -15 c4 -21 1 -25 -18 -25 -25 0 -28 7 -18 34 9
24 31 19 36 -9z"/>
<path d="M4795 1220 l0 -80 30 0 30 0 -2 67 c-1 38 -2 74 -2 81 -1 6 -13 12
-28 12 l-28 0 0 -80z"/>
<path d="M4870 1290 c-13 -9 -13 -11 0 -20 20 -14 45 -8 45 10 0 18 -25 24
-45 10z"/>
<path d="M4945 1220 l0 -80 32 0 c25 0 31 4 27 15 -4 8 -7 43 -8 78 -1 58 -2
62 -26 65 -25 3 -25 2 -25 -78z"/>
<path d="M5038 1283 c10 -21 9 -114 -2 -131 -5 -8 3 -12 26 -12 l33 0 0 67 c0
58 3 68 19 71 17 4 18 -2 14 -67 l-4 -71 31 0 31 0 -4 63 c-2 34 -9 70 -14 80
-10 20 -48 23 -66 5 -9 -9 -12 -9 -12 0 0 7 -13 12 -30 12 -26 0 -29 -3 -22
-17z"/>
<path d="M5236 1284 c-20 -20 -21 -58 -1 -74 14 -12 14 -15 -1 -31 -12 -13
-13 -22 -5 -37 8 -15 8 -21 -1 -24 -23 -8 2 -37 37 -44 60 -11 114 22 99 61
-6 15 -26 22 -77 27 -37 4 -36 21 2 29 45 9 63 28 59 61 -3 19 0 28 9 28 8 0
11 5 8 10 -10 17 -111 12 -129 -6z m72 -29 c3 -42 -11 -63 -32 -46 -27 23 -17
84 13 79 10 -2 17 -15 19 -33z m27 -144 c9 -15 -32 -32 -60 -25 -41 10 -31 34
14 34 22 0 42 -4 46 -9z"/>
<path d="M5488 1289 c-25 -14 -23 -49 3 -49 15 0 19 5 17 22 -2 15 3 24 14 26
14 3 16 -6 17 -57 0 -34 -4 -61 -10 -61 -16 0 -22 29 -9 45 22 26 -8 18 -36
-10 -20 -20 -23 -28 -14 -45 12 -23 11 -23 45 -10 15 6 33 6 43 1 9 -4 22 -7
28 -4 13 4 6 123 -8 141 -12 14 -66 15 -90 1z"/>
<path d="M5635 1220 l0 -80 30 0 30 0 0 67 c0 58 3 68 19 71 17 4 18 -2 14
-67 l-4 -71 31 0 31 0 -4 63 c-2 34 -9 70 -14 80 -10 20 -48 23 -66 5 -9 -9
-12 -9 -12 0 0 7 -12 12 -27 12 l-28 0 0 -80z"/>
<path d="M1641 1011 c-17 -11 -7 -41 13 -41 22 0 30 20 15 36 -9 8 -19 10 -28
5z"/>
<path d="M2551 1011 c-17 -11 -7 -41 13 -41 22 0 30 20 15 36 -9 8 -19 10 -28
5z"/>
<path d="M3571 1006 c-14 -17 -7 -36 14 -36 22 0 29 20 13 36 -13 13 -16 13
-27 0z"/>
<path d="M2195 900 l0 -110 30 0 30 0 -3 110 -3 110 -27 0 -27 0 0 -110z"/>
<path d="M2300 990 c0 -13 7 -20 20 -20 13 0 20 7 20 20 0 13 -7 20 -20 20
-13 0 -20 -7 -20 -20z"/>
<path d="M4178 1003 c8 -3 12 -34 12 -103 0 -85 -2 -99 -17 -103 -10 -3 12 -5
48 -6 115 -2 159 29 159 109 0 81 -40 110 -147 109 -37 0 -62 -3 -55 -6z m116
-16 c21 -15 33 -97 22 -142 -8 -33 -53 -56 -67 -34 -10 16 -12 172 -2 182 10
11 27 8 47 -6z"/>
<path d="M4424 994 c12 -11 16 -36 16 -94 0 -58 -4 -83 -16 -94 -14 -15 -12
-16 22 -16 33 0 36 2 20 13 -14 10 -16 25 -14 86 l3 73 70 -87 70 -88 7 54 c3
30 6 77 7 106 1 31 6 53 14 56 6 3 -4 5 -23 5 -19 0 -29 -2 -22 -5 8 -3 12
-26 12 -65 l0 -61 -52 66 c-49 62 -56 67 -91 67 -35 0 -37 -1 -23 -16z"/>
<path d="M4731 945 c-17 -37 -31 -71 -31 -75 0 -4 -11 -24 -25 -44 l-24 -36
37 1 c20 1 29 3 20 6 -19 5 -22 12 -12 37 10 26 80 21 95 -5 9 -17 8 -23 -2
-30 -9 -5 7 -9 41 -9 30 0 49 4 43 8 -7 4 -32 52 -56 105 -25 54 -47 100 -50
103 -3 4 -20 -24 -36 -61z m39 -71 c0 -11 -25 -15 -48 -8 -10 3 -9 11 4 36
l16 32 14 -25 c7 -13 13 -29 14 -35z"/>
<path d="M5100 990 c0 -23 35 -28 43 -6 7 18 -1 26 -25 26 -11 0 -18 -7 -18
-20z"/>
<path d="M4011 969 c-20 -27 -24 -43 -22 -88 2 -31 7 -63 12 -73 10 -19 54
-25 64 -8 3 6 -1 10 -9 10 -13 0 -16 12 -16 59 0 54 2 60 23 64 22 4 22 4 0 6
-17 1 -22 8 -25 32 l-3 31 -24 -33z"/>
<path d="M5715 960 c-16 -16 -23 -30 -17 -30 8 0 12 -19 12 -54 0 -30 3 -61 6
-70 8 -20 48 -21 64 -1 11 13 10 14 -4 9 -14 -5 -16 2 -16 54 0 49 3 61 18 65
16 4 16 5 0 6 -12 1 -18 9 -18 26 0 33 -10 32 -45 -5z"/>
<path d="M1725 927 c-19 -30 -9 -57 30 -83 14 -9 25 -23 25 -30 0 -20 -37 -17
-49 4 -9 15 -10 15 -11 -5 0 -17 6 -23 23 -24 38 -2 52 2 65 19 19 25 14 42
-23 75 -19 17 -35 34 -35 39 0 13 22 9 42 -9 17 -15 18 -15 18 5 0 12 -6 22
-12 22 -7 0 -23 3 -35 6 -16 4 -26 -1 -38 -19z"/>
<path d="M2060 937 c-27 -14 -35 -52 -10 -52 9 0 15 9 14 23 0 15 5 22 18 22
31 0 21 -42 -15 -65 -40 -25 -51 -75 -17 -75 12 0 30 5 41 10 13 7 19 7 19 0
0 -13 47 -13 55 0 3 6 1 10 -4 10 -7 0 -11 22 -11 53 0 77 -32 103 -90 74z
m40 -92 c0 -16 -6 -25 -15 -25 -18 0 -20 21 -3 38 17 17 18 16 18 -13z"/>
<path d="M2711 941 c-8 -5 -28 -7 -45 -4 l-31 5 3 -61 c3 -39 -1 -67 -8 -76
-11 -13 -6 -15 31 -15 27 0 39 3 31 9 -9 5 -12 25 -10 62 2 43 7 55 21 57 17
3 18 -3 15 -62 l-3 -66 30 0 30 0 -5 70 c-6 80 -23 104 -59 81z"/>
<path d="M2833 940 c-31 -12 -40 -55 -18 -80 14 -16 15 -23 6 -34 -7 -8 -11
-23 -9 -33 1 -10 -1 -24 -6 -31 -14 -23 14 -42 64 -42 46 0 80 20 80 48 0 19
-43 42 -78 42 -42 0 -39 22 5 31 44 9 53 17 53 49 0 15 6 30 13 33 6 2 10 6 7
9 -10 10 -96 16 -117 8z m51 -16 c11 -29 6 -65 -9 -71 -22 -8 -28 1 -27 37 1
47 23 68 36 34z m25 -163 c22 -14 3 -31 -34 -31 -19 0 -37 5 -41 11 -8 14 14
29 41 29 11 0 26 -4 34 -9z"/>
<path d="M3090 937 c-14 -7 -25 -21 -25 -32 0 -28 29 -25 33 3 4 26 27 29 37
5 4 -12 0 -22 -10 -28 -43 -25 -65 -48 -65 -66 0 -25 25 -35 56 -21 15 7 24 8
24 2 0 -13 47 -13 55 0 3 6 1 10 -4 10 -7 0 -11 24 -11 60 0 48 -4 61 -19 70
-25 13 -40 13 -71 -3z m46 -89 c-3 -25 -36 -38 -36 -16 0 15 19 38 32 38 4 0
6 -10 4 -22z"/>
<path d="M3311 941 c-8 -5 -28 -7 -45 -4 l-31 5 3 -67 c3 -49 0 -70 -10 -76
-8 -6 -1 -9 22 -9 l35 0 0 62 c0 53 3 63 18 66 17 3 18 -3 15 -62 l-3 -66 30
0 30 0 -5 70 c-6 80 -23 104 -59 81z"/>
<path d="M3443 940 c-42 -17 -57 -85 -27 -128 19 -27 75 -30 95 -5 10 12 10
15 1 9 -24 -14 -51 5 -62 44 -11 41 -5 70 15 70 7 0 15 -9 18 -20 3 -11 12
-20 21 -20 23 0 20 37 -3 50 -23 12 -29 12 -58 0z"/>
<path d="M3683 938 c-34 -16 -47 -68 -29 -112 13 -31 19 -36 49 -36 23 0 40 7
53 23 10 12 12 16 4 10 -21 -19 -48 -16 -60 6 -17 33 -11 41 30 41 32 0 40 4
40 18 0 19 -39 62 -56 61 -5 0 -19 -5 -31 -11z m41 -14 c11 -29 6 -44 -14 -44
-11 0 -20 6 -20 14 0 21 11 46 20 46 4 0 11 -7 14 -16z"/>
<path d="M3881 941 c-8 -5 -28 -7 -45 -4 l-31 5 3 -67 c3 -49 0 -70 -10 -76
-8 -6 3 -9 31 -9 36 0 42 2 32 14 -7 8 -11 36 -9 63 2 37 7 49 21 51 17 3 18
-3 15 -62 l-3 -66 40 1 c22 0 34 3 28 6 -8 3 -13 26 -13 63 0 73 -23 104 -59
81z"/>
<path d="M4978 939 c-31 -18 -22 -61 19 -96 33 -27 36 -32 20 -38 -11 -5 -25
-1 -37 10 -19 17 -20 17 -20 -2 0 -26 51 -36 80 -16 31 22 25 58 -15 89 -19
14 -35 30 -35 35 0 16 39 9 49 -8 9 -16 10 -16 11 3 0 14 -8 24 -22 28 -29 7
-30 7 -50 -5z"/>
<path d="M5213 940 c-31 -12 -40 -55 -18 -80 14 -16 15 -23 6 -34 -7 -8 -11
-23 -9 -33 1 -10 -1 -24 -6 -31 -25 -40 93 -61 128 -23 35 38 3 71 -67 71 -19
0 -27 4 -24 13 2 6 10 11 16 9 6 -1 25 5 41 13 23 12 30 22 30 44 0 16 6 31
13 34 6 2 10 6 7 9 -10 10 -96 16 -117 8z m53 -24 c8 -35 1 -60 -19 -64 -14
-3 -17 4 -17 36 0 55 24 74 36 28z m23 -155 c22 -14 3 -31 -34 -31 -35 0 -51
12 -40 30 8 12 55 13 74 1z"/>
<path d="M5447 943 c-4 -3 -26 -6 -49 -5 l-43 2 0 -75 0 -75 30 0 30 0 0 62
c0 53 3 63 18 66 17 3 18 -3 15 -62 l-3 -66 30 0 30 0 -5 64 c-6 73 -30 113
-53 89z"/>
<path d="M5567 934 c-32 -17 -33 -49 -2 -49 15 0 19 6 18 23 -2 16 2 22 17 22
36 0 25 -42 -18 -65 -60 -32 -50 -96 11 -68 15 7 27 7 38 0 9 -6 24 -7 33 -4
13 5 15 11 6 26 -5 11 -10 40 -10 65 0 35 -5 48 -19 56 -26 13 -40 12 -74 -6z
m53 -89 c0 -14 -6 -25 -13 -25 -21 0 -27 11 -16 31 14 27 29 23 29 -6z"/>
<path d="M6077 933 c-11 -11 -17 -13 -17 -5 0 7 -12 12 -27 12 l-28 0 0 -75 0
-75 30 0 c30 0 30 0 30 57 0 51 2 58 20 58 33 1 48 14 34 31 -15 18 -21 18
-42 -3z"/>
<path d="M6165 925 c-31 -30 -34 -93 -7 -118 27 -24 79 -22 92 3 10 19 10 20
-10 8 -19 -11 -24 -10 -41 11 -28 34 -24 41 21 41 33 0 40 3 40 20 0 24 -34
60 -55 60 -9 0 -27 -11 -40 -25z m55 -21 c0 -17 -5 -24 -20 -24 -22 0 -27 29
-8 48 16 16 28 6 28 -24z"/>
<path d="M6308 939 c-31 -18 -22 -61 19 -96 33 -27 36 -32 20 -38 -11 -5 -25
-1 -37 10 -19 17 -20 17 -20 -3 0 -19 6 -22 38 -22 71 0 85 51 27 96 -19 14
-35 30 -35 35 0 16 39 9 49 -8 9 -16 10 -16 11 3 0 14 -8 24 -22 28 -29 7 -30
7 -50 -5z"/>
<path d="M1452 923 c8 -10 25 -44 38 -75 12 -32 25 -58 29 -58 4 0 23 34 42
75 31 67 33 75 16 75 -10 0 -16 -4 -13 -9 7 -11 -13 -71 -23 -71 -10 0 -31 46
-31 65 0 11 -11 15 -37 15 -33 0 -35 -1 -21 -17z"/>
<path d="M1628 874 c3 -48 0 -69 -10 -75 -8 -6 1 -9 27 -9 l40 0 -3 75 c-4 74
-4 75 -30 75 -27 0 -27 0 -24 -66z"/>
<path d="M1858 888 c5 -100 3 -97 85 -96 39 0 66 2 60 5 -9 3 -13 28 -13 74 0
69 0 69 -27 69 -28 0 -28 -1 -28 -62 0 -49 -3 -63 -15 -63 -11 0 -16 15 -18
63 -3 56 -5 62 -25 62 -20 0 -22 -4 -19 -52z"/>
<path d="M2288 928 c16 -16 16 -110 0 -126 -9 -9 -2 -12 33 -11 24 0 38 3 32
6 -9 3 -13 28 -13 74 l0 69 -32 0 c-25 0 -29 -3 -20 -12z"/>
<path d="M2380 923 c0 -13 3 -14 12 -5 7 7 23 12 36 12 23 0 23 -1 10 -22 -8
-13 -27 -44 -42 -70 l-28 -48 65 0 c56 0 65 3 70 20 6 24 1 25 -19 5 -15 -15
-54 -21 -54 -9 0 3 8 18 18 32 10 15 29 44 41 65 l23 37 -66 0 c-55 0 -66 -3
-66 -17z"/>
<path d="M2538 874 c3 -48 0 -69 -10 -75 -8 -6 1 -9 27 -9 l40 0 -3 75 c-4 74
-4 75 -30 75 -27 0 -27 0 -24 -66z"/>
<path d="M3555 865 l0 -75 30 0 30 0 -3 75 c-4 74 -4 75 -30 75 -27 0 -27 0
-27 -75z"/>
<path d="M5098 874 c3 -48 0 -69 -10 -75 -8 -6 3 -9 30 -9 32 0 41 3 35 13 -4
6 -7 39 -8 72 0 56 -1 60 -25 63 -25 3 -25 2 -22 -64z"/>
<path d="M5818 878 c2 -35 8 -68 13 -74 5 -7 39 -12 74 -12 60 0 64 1 55 18
-6 10 -10 44 -10 74 0 51 -2 56 -22 56 -21 0 -23 -4 -23 -62 0 -52 -3 -63 -17
-66 -16 -3 -18 5 -18 62 0 65 0 66 -27 66 -28 0 -28 0 -25 -62z"/>
</g>
</svg>
