<?xml version="1.0" standalone="no"?>
<!DOCTYPE svg PUBLIC "-//W3C//DTD SVG 20010904//EN"
 "http://www.w3.org/TR/2001/REC-SVG-20010904/DTD/svg10.dtd">
<svg version="1.0" xmlns="http://www.w3.org/2000/svg"
 width="1024.000000pt" height="768.000000pt" viewBox="0 0 1024.000000 768.000000"
 preserveAspectRatio="xMidYMid meet">
<metadata>
Created by potrace 1.14, written by Peter Selinger 2001-2017
</metadata>
<g transform="translate(0.000000,768.000000) scale(0.100000,-0.100000)"
fill="#000000" stroke="none">
<path d="M4635 7374 c-184 -12 -509 -76 -684 -134 -122 -41 -317 -126 -396
-173 -11 -7 -50 -29 -87 -50 -37 -21 -70 -43 -73 -47 -3 -5 -25 -22 -49 -38
-131 -88 -266 -235 -357 -387 -63 -104 -131 -289 -150 -405 -19 -114 -19 -537
0 -640 17 -100 101 -349 150 -447 21 -43 40 -82 42 -88 12 -30 133 -236 145
-246 11 -9 14 -41 14 -133 1 -164 16 -353 36 -429 23 -91 96 -235 147 -289 24
-27 49 -48 55 -48 29 0 72 -55 101 -130 53 -140 69 -275 81 -691 9 -334 17
-386 80 -526 51 -113 161 -234 280 -308 25 -16 61 -38 80 -51 35 -22 64 -35
215 -94 95 -38 383 -106 512 -122 197 -24 467 31 683 139 63 32 126 67 140 78
14 12 38 29 53 38 56 35 195 167 263 249 123 148 114 123 114 316 0 285 29
676 61 821 5 25 21 76 35 112 24 60 32 70 84 103 143 92 221 210 266 406 42
182 42 254 -1 578 -3 26 3 40 33 75 86 101 187 268 228 375 14 37 34 90 45
117 49 127 74 335 66 540 -8 179 -35 343 -70 416 -74 158 -89 189 -118 239
-41 70 -150 222 -167 233 -7 5 -25 25 -40 45 -24 34 -110 116 -189 182 -16 14
-68 51 -114 82 -320 213 -731 325 -1229 332 -124 2 -252 2 -285 0z m531 -125
c123 -10 311 -41 389 -63 80 -23 254 -91 332 -130 40 -20 75 -36 77 -36 14 0
220 -129 287 -181 172 -131 333 -327 401 -490 17 -41 34 -78 38 -84 11 -15 48
-171 60 -250 15 -107 12 -359 -5 -461 -21 -120 -39 -182 -86 -293 -55 -128
-185 -341 -210 -341 -7 0 -25 266 -21 315 1 17 18 100 38 185 20 85 47 207 61
270 l25 115 -21 121 c-12 66 -21 123 -21 127 0 11 -57 8 -85 -5 -30 -14 -30
-10 -4 -78 35 -88 25 -253 -31 -565 -18 -101 -19 -157 -20 -652 0 -637 -1
-641 -91 -794 -52 -87 -63 -95 -134 -103 -135 -15 -258 -71 -355 -163 -75 -70
-180 -224 -180 -264 0 -13 -10 -42 -23 -64 -18 -32 -38 -48 -107 -83 -131 -66
-306 -92 -618 -92 -272 0 -487 25 -643 75 l-84 26 -38 89 c-60 136 -148 244
-282 344 -63 47 -131 86 -150 86 -4 0 -41 16 -82 36 -82 40 -163 115 -202 186
-45 82 -50 94 -65 153 -44 170 -44 246 -6 590 16 149 33 320 36 380 6 116 2
135 -112 577 -14 55 -13 59 11 114 23 52 55 158 55 181 0 14 -46 33 -79 33
-26 0 -28 -3 -54 -107 -28 -110 -33 -198 -18 -283 15 -79 89 -344 111 -394 20
-43 21 -54 11 -109 -10 -55 -31 -176 -47 -275 l-5 -33 -33 49 c-97 145 -208
399 -247 569 -42 184 -35 528 15 708 18 64 94 245 111 265 7 8 23 35 35 60 63
126 241 317 392 422 381 264 978 377 1674 317z m-1461 -3561 c50 -43 100 -149
142 -298 20 -72 80 -353 98 -457 16 -97 41 -148 92 -193 131 -116 315 -179
701 -240 161 -26 221 -22 417 25 100 25 295 112 353 159 15 12 45 34 68 49 81
54 94 75 120 197 13 62 33 142 43 179 11 36 31 111 46 166 14 55 32 107 39
115 8 8 16 46 20 85 11 130 71 215 169 239 31 7 32 5 12 -55 -40 -121 -72
-421 -81 -769 l-7 -245 -35 -65 c-71 -132 -180 -262 -299 -357 -70 -56 -251
-142 -353 -167 -243 -61 -480 -70 -695 -27 -101 20 -262 66 -280 81 -5 5 -40
24 -77 43 -123 64 -263 186 -365 317 l-51 65 -16 180 c-10 99 -23 218 -31 265
-8 47 -24 157 -35 245 -25 194 -56 387 -70 435 -5 19 -10 41 -10 47 0 24 49
13 85 -19z m2120 -150 c-4 -13 -16 -32 -26 -43 -11 -13 -25 -56 -35 -105 -8
-47 -24 -116 -34 -155 -10 -38 -31 -123 -46 -189 -28 -117 -87 -257 -111 -264
-10 -3 -13 49 -13 235 l0 240 45 32 c42 30 157 181 186 244 15 34 44 38 34 5z
m-1854 -133 c38 -55 82 -119 99 -142 l30 -42 -2 -236 -3 -235 -36 29 c-20 17
-39 43 -42 58 -4 15 -24 111 -46 213 -22 102 -57 246 -77 320 -20 74 -38 146
-41 160 l-6 25 27 -25 c15 -13 58 -70 97 -125z m260 -191 l39 -7 0 -118 0
-119 -27 6 c-86 22 -78 7 -81 138 -2 106 -1 118 14 112 8 -3 33 -9 55 -12z
m1283 -69 c4 -36 9 -78 12 -94 6 -27 3 -30 -42 -46 -27 -10 -53 -22 -58 -27
-22 -18 -26 -3 -26 96 0 120 8 136 69 136 l38 0 7 -65z m-1101 24 l47 -11 0
-120 0 -119 -37 6 c-21 4 -50 9 -65 11 l-28 6 0 124 c0 115 1 125 18 120 9 -3
38 -10 65 -17z m927 -103 l0 -124 -27 -6 c-16 -2 -45 -7 -65 -11 l-38 -6 0
119 0 120 58 15 c31 8 60 15 65 16 4 1 7 -55 7 -123z m-722 -43 l3 -133 -51 0
-50 0 0 136 0 135 48 -3 47 -3 3 -132z m532 2 l0 -135 -50 0 -50 0 0 128 c0
71 3 132 7 135 3 4 26 7 50 7 l43 0 0 -135z m-150 -20 l0 -145 -70 0 -70 0 0
135 0 135 33 1 c17 1 43 5 57 9 51 16 50 19 50 -135z m-190 -10 l0 -135 -70 0
-70 0 0 135 0 135 70 0 70 0 0 -135z m709 -49 c8 -9 8 -16 2 -20 -7 -5 -7 -15
-1 -32 13 -33 13 -120 0 -144 -8 -16 -101 -80 -115 -80 -3 0 -4 55 -3 122 l3
122 40 23 c47 27 58 28 74 9z m-1268 -16 c17 -10 19 -22 19 -135 0 -69 -4
-125 -8 -125 -5 0 -29 7 -55 16 l-47 16 0 119 0 119 36 0 c19 0 44 -5 55 -10z
m134 -53 c11 -3 32 -8 48 -11 l27 -6 0 -134 0 -134 -37 8 c-21 5 -50 11 -65
15 l-28 5 0 136 c0 124 1 135 18 130 9 -2 26 -7 37 -9z m955 -107 c0 -134 1
-133 -88 -164 l-42 -15 0 134 0 135 28 6 c15 3 41 10 57 14 17 5 33 9 38 9 4
1 7 -53 7 -119z m-722 -72 l-3 -133 -47 -3 c-34 -2 -48 1 -48 10 0 7 -7 26
-15 41 -11 22 -12 33 -3 53 9 20 9 27 -1 33 -9 6 -10 11 -3 15 6 3 14 31 17
61 l7 55 49 0 50 0 -3 -132z m532 15 c0 -65 -4 -124 -9 -132 -5 -7 -26 -14
-47 -15 l-39 -1 -3 133 -3 132 51 0 50 0 0 -117z m-340 -38 l0 -135 -70 0 -70
0 0 135 0 135 70 0 70 0 0 -135z m190 16 c0 -143 -5 -151 -86 -151 l-54 0 0
135 0 135 70 0 70 0 0 -119z"/>
<path d="M5427 5189 c-48 -11 -112 -44 -159 -82 -51 -41 -114 -165 -129 -253
l-12 -69 47 -120 c62 -158 137 -271 220 -328 81 -57 105 -66 189 -73 170 -15
329 42 419 149 58 70 72 101 104 236 21 86 25 123 22 216 -3 110 -4 113 -40
168 -41 61 -83 88 -195 126 -106 37 -367 53 -466 30z"/>
<path d="M3877 5160 c-227 -49 -327 -152 -327 -336 0 -79 23 -225 45 -293 42
-127 148 -230 265 -258 67 -16 230 -17 302 -2 120 25 233 120 293 246 54 114
77 191 82 279 13 191 -56 284 -267 363 -74 28 -265 28 -393 1z"/>
<path d="M4707 4352 c-96 -75 -170 -195 -218 -352 -18 -60 -23 -99 -23 -200
-1 -153 5 -184 48 -234 27 -33 40 -40 69 -40 49 0 133 73 175 153 l32 60 0
325 c-1 371 3 356 -83 288z"/>
<path d="M4900 4044 l0 -348 27 -40 c15 -23 42 -58 60 -79 18 -20 33 -42 33
-47 0 -20 74 2 114 33 21 17 44 45 52 62 17 42 30 155 17 155 -6 0 -13 40 -17
90 -8 102 -54 271 -92 336 -31 52 -118 143 -162 167 l-32 18 0 -347z"/>
<path d="M3050 1125 l0 -65 105 0 105 0 0 -295 0 -295 75 0 75 0 0 295 0 295
110 0 110 0 0 65 0 65 -290 0 -290 0 0 -65z"/>
<path d="M5580 1130 l0 -60 70 0 70 0 0 60 0 60 -70 0 -70 0 0 -60z"/>
<path d="M6410 830 l0 -360 70 0 70 0 0 360 0 360 -70 0 -70 0 0 -360z"/>
<path d="M4267 1143 c-4 -3 -7 -37 -7 -75 l0 -68 -35 0 -35 0 0 -50 0 -50 35
0 35 0 0 -170 c0 -243 11 -262 149 -264 l76 -1 3 52 3 52 -43 3 -43 3 -3 163
-2 162 45 0 46 0 -3 48 -3 47 -42 3 -43 3 0 75 0 74 -63 0 c-35 0 -67 -3 -70
-7z"/>
<path d="M4710 1000 c-211 -72 -220 -447 -12 -527 72 -27 183 -24 247 7 90 45
138 133 138 255 1 211 -172 335 -373 265z m179 -126 c33 -28 51 -76 51 -139 0
-103 -47 -165 -124 -165 -80 0 -126 61 -126 165 0 104 46 165 126 165 31 0 51
-7 73 -26z"/>
<path d="M5404 1000 c-11 -4 -34 -24 -52 -44 l-32 -37 0 41 0 40 -65 0 -65 0
0 -265 0 -265 70 0 70 0 0 160 c0 176 7 206 55 228 14 7 44 12 65 12 l40 0 0
70 0 70 -32 -1 c-18 0 -42 -4 -54 -9z"/>
<path d="M5959 1000 c-64 -19 -119 -89 -119 -150 0 -18 7 -20 63 -20 59 1 63
2 82 33 18 28 26 32 72 35 42 2 56 -1 72 -17 12 -12 21 -25 21 -31 0 -21 -40
-48 -81 -55 -154 -23 -200 -44 -232 -105 -24 -46 -19 -135 8 -173 58 -78 199
-81 282 -4 l23 20 6 -31 7 -32 78 0 c79 0 92 6 64 30 -12 10 -15 43 -15 176 0
244 -14 285 -109 319 -46 16 -176 19 -222 5z m191 -310 c0 -69 -44 -126 -100
-130 -65 -5 -90 13 -90 64 0 43 17 56 98 77 91 24 92 23 92 -11z"/>
<path d="M3632 788 c3 -192 5 -216 23 -247 32 -55 67 -75 139 -79 67 -4 108 9
154 51 l22 20 0 -31 0 -32 70 0 70 0 0 265 0 265 -69 0 -69 0 -4 -177 c-4
-203 -11 -224 -79 -244 -51 -16 -94 1 -108 43 -6 18 -11 108 -11 204 l0 174
-71 0 -70 0 3 -212z"/>
<path d="M5580 735 l0 -265 70 0 70 0 0 265 0 265 -70 0 -70 0 0 -265z"/>
</g>
</svg>
